<svg width="100" height="61" viewBox="0 0 100 61" version="1.1" xmlns="http://www.w3.org/2000/svg" xmlns:xlink="http://www.w3.org/1999/xlink">
<title>Group</title>
<desc>Created using Figma</desc>
<g id="Canvas" transform="translate(643 -937)">
<g id="Group">
<g id="Vector">
<use xlink:href="#path0_fill" transform="translate(-559.573 955.021)" fill="#98CDFF"/>
</g>
<g id="Vector">
<use xlink:href="#path1_fill" transform="translate(-643 938.628)" fill="#24368A"/>
</g>
<g id="Vector">
<use xlink:href="#path2_fill" transform="translate(-609.838 937)" fill="#1B9DFF"/>
</g>
</g>
</g>
<defs>
<path id="path0_fill" d="M 16.2899 33.3672L 11.6356 33.3672C 11.6356 31.1582 11.5193 28.9492 11.1702 26.7403L 15.8245 26.0427C 16.0572 28.4842 16.2899 31.0419 16.2899 33.3672ZM 9.65758 20.3458C 9.0758 18.2531 8.2613 16.1604 7.33045 14.184L 11.5193 12.2075C 12.5665 14.4165 13.4973 16.7417 14.1955 19.067L 9.65758 20.3458ZM 4.07247 8.37086C 2.79255 6.51067 1.51263 4.76674 -3.55091e-06 3.13907L 3.49069 0C 5.11968 1.86019 6.63231 3.72038 8.02859 5.8131L 4.07247 8.37086Z"/>
<path id="path1_fill" d="M 4.65425 49.7601L 0 49.7601C 0 22.3223 22.3404 -2.7719e-08 49.8005 -2.7719e-08C 62.1343 -2.7719e-08 73.8863 4.53422 83.0784 12.7888L 79.9368 16.2767C 71.6755 8.83591 60.9707 4.76674 49.8005 4.76674C 24.9003 4.65048 4.65425 24.8801 4.65425 49.7601Z"/>
<path id="path2_fill" d="M 0 45.5747L 31.4162 60.9213L 41.7719 0L 0 45.5747ZM 20.7114 49.7601C 16.988 49.7601 13.8464 46.7373 13.8464 42.9007C 13.8464 39.1803 16.8717 36.0412 20.7114 36.0412C 24.5512 36.0412 27.5765 39.064 27.5765 42.9007C 27.5765 46.621 24.5512 49.7601 20.7114 49.7601Z"/>
</defs>
</svg>
