<svg width="96" height="108" viewBox="0 0 96 108" version="1.1" xmlns="http://www.w3.org/2000/svg" xmlns:xlink="http://www.w3.org/1999/xlink">
<title>Group</title>
<desc>Created using Figma</desc>
<g id="Canvas" transform="translate(651 -2427)">
<g id="Group">
<g id="Vector">
<use xlink:href="#path0_fill" transform="translate(-642.042 2461.62)" fill="#24368A"/>
</g>
<g id="Vector">
<use xlink:href="#path1_fill" transform="matrix(0.604654 -0.796523 0.794473 0.607345 -599.396 2481.53)" fill="#24368A"/>
</g>
<g id="Vector">
<use xlink:href="#path2_fill" transform="translate(-616.498 2463.93)" fill="#1B9DFF"/>
</g>
<g id="Vector">
<use xlink:href="#path3_fill" transform="translate(-651 2452.51)" fill="#1B9DFF"/>
</g>
<g id="Vector">
<use xlink:href="#path4_fill" transform="translate(-581.875 2427)" fill="#1B9DFF"/>
</g>
<g id="Vector">
<use xlink:href="#path5_fill" transform="translate(-582.844 2513.5)" fill="#98CDFF"/>
</g>
</g>
</g>
<defs>
<path id="path0_fill" d="M 67.9142 63.901L 42.855 23.2036L 1.15451e-07 4.49494L 1.93695 0L 46.2446 19.4376L 72.0303 61.3498L 67.9142 63.901Z"/>
<path id="path1_fill" d="M 51.5647 0L 0 0L 0 4.84863L 51.5647 4.84863L 51.5647 0Z"/>
<path id="path2_fill" d="M 19.0063 38.1462C 29.5032 38.1462 38.0126 29.6069 38.0126 19.0731C 38.0126 8.53932 29.5032 0 19.0063 0C 8.50941 0 0 8.53932 0 19.0731C 0 29.6069 8.50941 38.1462 19.0063 38.1462Z"/>
<path id="path3_fill" d="M 9.92686 19.9235C 15.4093 19.9235 19.8537 15.4635 19.8537 9.96176C 19.8537 4.46003 15.4093 0 9.92686 0C 4.44441 0 0 4.46003 0 9.96176C 0 15.4635 4.44441 19.9235 9.92686 19.9235Z"/>
<path id="path4_fill" d="M -1.84722e-06 23.3251L 13.4376 0L 26.8752 23.3251L -1.84722e-06 23.3251Z"/>
<path id="path5_fill" d="M 21.4275 0L 0 0L 0 21.5028L 21.4275 21.5028L 21.4275 0Z"/>
</defs>
</svg>
