<svg width="283" height="578" viewBox="0 0 283 578" version="1.1" xmlns="http://www.w3.org/2000/svg" xmlns:xlink="http://www.w3.org/1999/xlink">
<title>ce-ce</title>
<desc>Created using Figma</desc>
<g id="Canvas" transform="translate(634 -1108)">
<g id="ce-ce">
<g id="Vector">
<use xlink:href="#path0_fill" transform="translate(-358.5 1166.95)" fill="#1D8CEB"/>
</g>
<g id="Vector">
<use xlink:href="#path1_fill" transform="translate(-614.848 1171.46)" fill="#1D8CEB"/>
</g>
<g id="Vector">
<use xlink:href="#path2_fill" transform="translate(-634 1166.95)" fill="#1D8CEB"/>
</g>
<g id="Vector">
<use xlink:href="#path3_fill" transform="translate(-634 1125.79)" fill="#1D8CEB"/>
</g>
<g id="Vector">
<use xlink:href="#path4_fill" transform="translate(-634 1108)" fill="#1D8CEB"/>
</g>
<g id="Vector">
<use xlink:href="#path5_fill" transform="translate(-614.848 1108)" fill="#1D8CEB"/>
</g>
<g id="Vector">
<use xlink:href="#path6_fill" transform="translate(-358.5 1108)" fill="#1D8CEB"/>
</g>
<g id="Vector">
<use xlink:href="#path7_fill" transform="translate(-354 1125.79)" fill="#1D8CEB"/>
</g>
<g id="Vector">
<use xlink:href="#path8_fill" transform="translate(-616.872 1124.88)" fill="#1D8CEB"/>
</g>
<g id="Vector">
<use xlink:href="#path9_fill" transform="translate(-605.397 1124.71)" fill="#1D8CEB"/>
</g>
<g id="Vector">
<use xlink:href="#path10_fill" transform="translate(-595.882 1124.88)" fill="#1D8CEB"/>
</g>
<g id="Vector">
<use xlink:href="#path11_fill" transform="translate(-586.921 1124.87)" fill="#1D8CEB"/>
</g>
<g id="Vector">
<use xlink:href="#path12_fill" transform="translate(-616.788 1145.79)" fill="#1D8CEB"/>
</g>
<g id="Vector">
<use xlink:href="#path13_fill" transform="translate(-611.491 1145.79)" fill="#1D8CEB"/>
</g>
<g id="Vector">
<use xlink:href="#path14_fill" transform="translate(-599.601 1145.79)" fill="#1D8CEB"/>
</g>
<g id="Vector">
<use xlink:href="#path15_fill" transform="translate(-589.218 1145.79)" fill="#1D8CEB"/>
</g>
<g id="Vector">
<use xlink:href="#path16_fill" transform="translate(-580.257 1145.77)" fill="#1D8CEB"/>
</g>
<g id="Vector">
<use xlink:href="#path17_fill" transform="translate(-569.694 1145.79)" fill="#1D8CEB"/>
</g>
<g id="Vector">
<use xlink:href="#path18_fill" transform="translate(-562.351 1145.74)" fill="#1D8CEB"/>
</g>
<g id="Vector">
<use xlink:href="#path19_fill" transform="translate(-550.396 1145.62)" fill="#1D8CEB"/>
</g>
<g id="Vector">
<use xlink:href="#path20_fill" transform="translate(-539.679 1145.79)" fill="#1D8CEB"/>
</g>
<g id="Vector">
<use xlink:href="#path21_fill" transform="translate(-494 1466.28)" fill="#1D8CEB"/>
</g>
<g id="Vector">
<use xlink:href="#path22_fill" transform="translate(-494 1184.7)" fill="#1D8CEB"/>
</g>
<g id="Vector">
<use xlink:href="#path23_fill" transform="translate(-521.532 1220.41)" fill="#1D8CEB"/>
</g>
<g id="Vector">
<use xlink:href="#path24_fill" transform="translate(-507.819 1242.51)" fill="#FFFFFF"/>
</g>
<g id="Vector">
<use xlink:href="#path25_fill" transform="translate(-493.331 1242.55)" fill="#FFFFFF"/>
</g>
<g id="Vector">
<use xlink:href="#path26_fill" transform="translate(-481.664 1242.56)" fill="#FFFFFF"/>
</g>
<g id="Vector">
<use xlink:href="#path27_fill" transform="translate(-634 1324.25)" fill="#24368A"/>
</g>
<g id="Vector">
<use xlink:href="#path28_fill" transform="translate(-616.788 1341.12)" fill="#24368A"/>
</g>
<g id="Vector">
<use xlink:href="#path29_fill" transform="translate(-606.122 1341.14)" fill="#24368A"/>
</g>
<g id="Vector">
<use xlink:href="#path30_fill" transform="translate(-594.647 1340.96)" fill="#24368A"/>
</g>
<g id="Vector">
<use xlink:href="#path31_fill" transform="translate(-585.132 1341.14)" fill="#24368A"/>
</g>
<g id="Vector">
<use xlink:href="#path32_fill" transform="translate(-579.835 1341.14)" fill="#24368A"/>
</g>
<g id="Vector">
<use xlink:href="#path33_fill" transform="translate(-566.827 1341.14)" fill="#24368A"/>
</g>
<g id="Vector">
<use xlink:href="#path34_fill" transform="translate(-558.569 1340.96)" fill="#24368A"/>
</g>
<g id="Vector">
<use xlink:href="#path35_fill" transform="translate(-549.757 1340.96)" fill="#24368A"/>
</g>
<g id="Vector">
<use xlink:href="#path36_fill" transform="translate(-616.788 1362.04)" fill="#24368A"/>
</g>
<g id="Vector">
<use xlink:href="#path37_fill" transform="translate(-608.271 1361.85)" fill="#24368A"/>
</g>
<g id="Vector">
<use xlink:href="#path38_fill" transform="translate(-595.537 1361.86)" fill="#24368A"/>
</g>
<g id="Vector">
<use xlink:href="#path39_fill" transform="translate(-583.429 1362.04)" fill="#24368A"/>
</g>
<g id="Vector">
<use xlink:href="#path40_fill" transform="translate(-578.654 1361.87)" fill="#24368A"/>
</g>
<g id="Vector">
<use xlink:href="#path41_fill" transform="translate(-538.49 1434.25)" fill="#EC6B6B"/>
</g>
<g id="Vector">
<use xlink:href="#path42_fill" transform="translate(-529.155 1434.4)" fill="#EC6B6B"/>
</g>
<g id="Vector">
<use xlink:href="#path43_fill" transform="translate(-521.35 1434.4)" fill="#EC6B6B"/>
</g>
<g id="Vector">
<use xlink:href="#path44_fill" transform="translate(-510.994 1434.4)" fill="#EC6B6B"/>
</g>
<g id="Vector">
<use xlink:href="#path45_fill" transform="translate(-501.952 1434.38)" fill="#EC6B6B"/>
</g>
<g id="Vector">
<use xlink:href="#path46_fill" transform="translate(-494.003 1434.36)" fill="#EC6B6B"/>
</g>
<g id="Vector">
<use xlink:href="#path47_fill" transform="translate(-483.137 1434.4)" fill="#EC6B6B"/>
</g>
<g id="Vector">
<use xlink:href="#path48_fill" transform="translate(-475.265 1434.4)" fill="#EC6B6B"/>
</g>
<g id="Vector">
<use xlink:href="#path49_fill" transform="translate(-471.57 1434.4)" fill="#EC6B6B"/>
</g>
<g id="Vector">
<use xlink:href="#path50_fill" transform="translate(-462.582 1434.4)" fill="#EC6B6B"/>
</g>
<g id="Vector">
<use xlink:href="#path51_fill" transform="translate(-454.777 1434.39)" fill="#EC6B6B"/>
</g>
<g id="Vector">
<use xlink:href="#path52_fill" transform="translate(-616.406 1384.35)" fill="#222222"/>
</g>
<g id="Vector">
<use xlink:href="#path53_fill" transform="translate(-606.493 1387.48)" fill="#222222"/>
</g>
<g id="Vector">
<use xlink:href="#path54_fill" transform="translate(-596.898 1387.47)" fill="#222222"/>
</g>
<g id="Vector">
<use xlink:href="#path55_fill" transform="translate(-589.037 1385.35)" fill="#222222"/>
</g>
<g id="Vector">
<use xlink:href="#path56_fill" transform="translate(-577.585 1384.18)" fill="#222222"/>
</g>
<g id="Vector">
<use xlink:href="#path57_fill" transform="translate(-567.716 1387.48)" fill="#222222"/>
</g>
<g id="Vector">
<use xlink:href="#path58_fill" transform="translate(-557.273 1387.48)" fill="#222222"/>
</g>
<g id="Vector">
<use xlink:href="#path59_fill" transform="translate(-551.868 1387.67)" fill="#222222"/>
</g>
<g id="Vector">
<use xlink:href="#path60_fill" transform="translate(-542.13 1384.17)" fill="#222222"/>
</g>
<g id="Vector">
<use xlink:href="#path61_fill" transform="translate(-538.501 1387.47)" fill="#222222"/>
</g>
<g id="Vector">
<use xlink:href="#path62_fill" transform="translate(-529.949 1387.48)" fill="#222222"/>
</g>
<g id="Vector">
<use xlink:href="#path63_fill" transform="translate(-634 1422.87)" fill="#EC6B6B"/>
</g>
<g id="Vector">
<use xlink:href="#path64_fill" transform="translate(-634 1616.83)" fill="#24368A"/>
</g>
<g id="Vector">
<use xlink:href="#path65_fill" transform="translate(-634 1581.3)" fill="#24368A"/>
</g>
<g id="Vector">
<use xlink:href="#path66_fill" transform="translate(-634 1545.75)" fill="#24368A"/>
</g>
<g id="Vector">
<use xlink:href="#path67_fill" transform="translate(-532.893 1589.66)" fill="#24368A"/>
</g>
<g id="Vector">
<use xlink:href="#path68_fill" transform="translate(-522.319 1589.63)" fill="#24368A"/>
</g>
<g id="Vector">
<use xlink:href="#path69_fill" transform="translate(-510.776 1589.68)" fill="#24368A"/>
</g>
<g id="Vector">
<use xlink:href="#path70_fill" transform="translate(-501.688 1589.63)" fill="#24368A"/>
</g>
<g id="Vector">
<use xlink:href="#path71_fill" transform="translate(-489.009 1589.66)" fill="#24368A"/>
</g>
<g id="Vector">
<use xlink:href="#path72_fill" transform="translate(-479.547 1589.63)" fill="#24368A"/>
</g>
<g id="Vector">
<use xlink:href="#path73_fill" transform="translate(-467.584 1589.5)" fill="#24368A"/>
</g>
<g id="Vector">
<use xlink:href="#path74_fill" transform="translate(-457.914 1589.68)" fill="#24368A"/>
</g>
<g id="Vector">
<use xlink:href="#path75_fill" transform="translate(-538.49 1663.92)" fill="#EC6B6B"/>
</g>
<g id="Vector">
<use xlink:href="#path76_fill" transform="translate(-529.155 1664.06)" fill="#EC6B6B"/>
</g>
<g id="Vector">
<use xlink:href="#path77_fill" transform="translate(-521.35 1664.06)" fill="#EC6B6B"/>
</g>
<g id="Vector">
<use xlink:href="#path78_fill" transform="translate(-510.994 1664.06)" fill="#EC6B6B"/>
</g>
<g id="Vector">
<use xlink:href="#path79_fill" transform="translate(-501.952 1664.05)" fill="#EC6B6B"/>
</g>
<g id="Vector">
<use xlink:href="#path80_fill" transform="translate(-494.003 1664.02)" fill="#EC6B6B"/>
</g>
<g id="Vector">
<use xlink:href="#path81_fill" transform="translate(-483.137 1664.06)" fill="#EC6B6B"/>
</g>
<g id="Vector">
<use xlink:href="#path82_fill" transform="translate(-475.265 1664.06)" fill="#EC6B6B"/>
</g>
<g id="Vector">
<use xlink:href="#path83_fill" transform="translate(-471.57 1664.06)" fill="#EC6B6B"/>
</g>
<g id="Vector">
<use xlink:href="#path84_fill" transform="translate(-462.582 1664.06)" fill="#EC6B6B"/>
</g>
<g id="Vector">
<use xlink:href="#path85_fill" transform="translate(-454.777 1664.05)" fill="#EC6B6B"/>
</g>
<g id="Vector">
<use xlink:href="#path86_fill" transform="translate(-634 1652.54)" fill="#EC6B6B"/>
</g>
</g>
</g>
<defs>
<path id="path0_fill" d="M 7.5 7.5L 0 7.5L 0 4.5L 4.5 4.5L 4.5 1.83105e-06L 7.5 1.83105e-06L 7.5 7.5Z"/>
<path id="path1_fill" d="M 244.695 3L 233.043 3L 233.043 -1.875e-06L 244.695 -1.875e-06L 244.695 3ZM 221.391 3L 209.739 3L 209.739 -1.875e-06L 221.391 -1.875e-06L 221.391 3L 221.391 3ZM 198.087 3L 186.435 3L 186.435 -1.875e-06L 198.087 -1.875e-06L 198.087 3L 198.087 3ZM 174.782 3L 163.13 3L 163.13 -1.875e-06L 174.782 -1.875e-06L 174.782 3ZM 151.478 3L 139.826 3L 139.826 -1.875e-06L 151.478 -1.875e-06L 151.478 3ZM 128.174 3L 116.521 3L 116.521 -1.875e-06L 128.174 -1.875e-06L 128.174 3ZM 104.869 3L 93.2168 3L 93.2168 -1.875e-06L 104.869 -1.875e-06L 104.869 3ZM 81.5644 3L 69.9131 3L 69.9131 -1.875e-06L 81.5645 -1.875e-06L 81.5645 3L 81.5644 3ZM 58.2607 3L 46.6084 3L 46.6084 -1.875e-06L 58.2608 -1.875e-06L 58.2608 3L 58.2607 3ZM 34.9561 3L 23.3037 3L 23.3037 -1.875e-06L 34.9561 -1.875e-06L 34.9561 3L 34.9561 3ZM 11.6523 3L -6.46973e-08 3L -6.46973e-08 -1.875e-06L 11.6523 -1.875e-06L 11.6523 3L 11.6523 3Z"/>
<path id="path2_fill" d="M 7.5 7.5L 0 7.5L 0 1.83105e-06L 3 1.83105e-06L 3 4.5L 7.5 4.5L 7.5 7.5Z"/>
<path id="path3_fill" d="M 3 30.8731L 0 30.8731L 0 20.582L 3 20.582L 3 30.873L 3 30.8731ZM 3 10.291L 0 10.291L 0 3.66211e-07L 3 3.66211e-07L 3 10.291Z"/>
<path id="path4_fill" d="M 3 7.5L 0 7.5L 0 0L 7.5 0L 7.5 3L 3 3L 3 7.5Z"/>
<path id="path5_fill" d="M 244.695 3L 233.043 3L 233.043 0L 244.695 0L 244.695 3ZM 221.392 3L 209.739 3L 209.739 0L 221.392 0L 221.392 3ZM 198.087 3L 186.435 3L 186.435 0L 198.087 0L 198.087 3L 198.087 3ZM 174.782 3L 163.131 3L 163.131 0L 174.782 0L 174.782 3ZM 151.479 3L 139.826 3L 139.826 0L 151.479 0L 151.479 3ZM 128.174 3L 116.521 3L 116.521 0L 128.174 0L 128.174 3ZM 104.869 3L 93.2178 3L 93.2178 0L 104.869 0L 104.869 3L 104.869 3ZM 81.5654 3L 69.9131 3L 69.9131 0L 81.5654 0L 81.5654 3ZM 58.2608 3L 46.6084 3L 46.6084 0L 58.2608 0L 58.2608 3ZM 34.9561 3L 23.3047 3L 23.3047 0L 34.9561 0L 34.9561 3ZM 11.6523 3L -6.46973e-08 3L -6.46973e-08 0L 11.6523 0L 11.6523 3Z"/>
<path id="path6_fill" d="M 7.5 7.5L 4.5 7.5L 4.5 3L 0 3L 0 0L 7.5 0L 7.5 7.5Z"/>
<path id="path7_fill" d="M 3 30.8731L 0 30.8731L 0 20.582L 3 20.582L 3 30.873L 3 30.8731ZM 3 10.2911L 0 10.2911L 0 3.66211e-07L 3 3.66211e-07L 3 10.291L 3 10.2911Z"/>
<path id="path8_fill" d="M 9.38041 -9.375e-07L 9.38041 7.39063C 9.39779 8.16806 9.2019 8.93541 8.814 9.60938C 8.42949 10.2513 7.85858 10.7609 7.17728 11.0703C 6.38187 11.426 5.51707 11.5995 4.64603 11.5781C 3.40269 11.6557 2.17724 11.2514 1.22416 10.4492C 0.81175 10.0514 0.489533 9.56967 0.279279 9.03663C 0.0690243 8.50358 -0.0243692 7.93161 0.00541007 7.35937L 0.00541007 -9.375e-07L 2.41947 -9.375e-07L 2.41947 6.99221C 2.36234 7.6805 2.55052 8.36682 2.95072 8.92971C 3.18107 9.15442 3.45774 9.32608 3.76137 9.43269C 4.065 9.5393 4.38826 9.57828 4.70853 9.5469C 5.02364 9.57599 5.3413 9.53543 5.639 9.4281C 5.93669 9.32077 6.20714 9.14929 6.43119 8.92581C 6.83393 8.35954 7.02348 7.66912 6.96635 6.97659L 6.96635 -9.375e-07L 9.38041 -9.375e-07Z"/>
<path id="path9_fill" d="M 7.44531 8.42143C 7.46514 8.88673 7.37461 9.35012 7.18112 9.77375C 6.98764 10.1974 6.69669 10.5692 6.33203 10.8589C 5.43172 11.5013 4.33839 11.8157 3.23437 11.7496C 2.11776 11.7718 1.01103 11.5365 -9.375e-07 11.0621L -9.375e-07 8.81206C 0.632291 9.10514 1.28664 9.34807 1.957 9.53862C 2.43426 9.67125 2.92655 9.74214 3.42184 9.74956C 3.85107 9.77663 4.27816 9.6702 4.6445 9.44487C 4.78593 9.34178 4.89909 9.2047 4.97351 9.0463C 5.04793 8.8879 5.08121 8.71329 5.07028 8.53862C 5.07327 8.32448 5.00756 8.11502 4.88278 7.94096C 4.7307 7.7415 4.54417 7.57084 4.332 7.43705C 3.85405 7.15055 3.35973 6.8923 2.85156 6.66364C 2.28893 6.41877 1.76096 6.10094 1.28125 5.71833C 0.937735 5.42345 0.653963 5.06541 0.44531 4.66364C 0.228961 4.22706 0.12173 3.74451 0.13281 3.25739C 0.111323 2.80821 0.192704 2.36005 0.370746 1.9471C 0.548787 1.53415 0.818786 1.16732 1.16015 0.874581C 1.9725 0.255009 2.98011 -0.0526821 3.99999 0.00738942C 4.57308 0.00480655 5.14414 0.0756989 5.69921 0.218331C 6.27733 0.372825 6.84278 0.571321 7.39062 0.812081L 6.60937 2.69489C 6.11828 2.48539 5.61314 2.31048 5.09765 2.17145C 4.71321 2.07439 4.31837 2.02454 3.92187 2.02301C 3.54303 1.99778 3.16801 2.11168 2.86718 2.34332C 2.74733 2.44631 2.65212 2.57488 2.58857 2.71956C 2.52502 2.86423 2.49475 3.02133 2.49999 3.17926C 2.49549 3.37577 2.54697 3.5695 2.64843 3.73785C 2.77285 3.92217 2.93371 4.07904 3.12109 4.19879C 3.61642 4.49604 4.12905 4.76344 4.65625 4.99957C 5.49247 5.34279 6.24222 5.86708 6.85156 6.53473C 7.25716 7.07838 7.46647 7.74348 7.44531 8.42143Z"/>
<path id="path10_fill" d="M 6.57813 11.4219L 2.47803e-07 11.4219L 2.47803e-07 -9.375e-07L 6.57813 -9.375e-07L 6.57813 1.98438L 2.42184 1.98438L 2.42184 4.49221L 6.28903 4.49221L 6.28903 6.47659L 2.42184 6.47659L 2.42184 9.4219L 6.57809 9.4219L 6.57809 11.4219L 6.57813 11.4219Z"/>
<path id="path11_fill" d="M 2.4219 7.05523L 2.4219 11.438L 1.5625e-06 11.438L 1.5625e-06 0.0161653L 3.32813 0.0161653C 4.53751 -0.0751121 5.74447 0.22184 6.77344 0.863825C 7.15374 1.17075 7.45401 1.56525 7.64858 2.01356C 7.84314 2.46187 7.92619 2.95064 7.89063 3.43805C 7.90029 4.07937 7.70606 4.70721 7.33594 5.23105C 6.93601 5.77818 6.39253 6.20404 5.76563 6.46152C 7.48438 9.02939 8.60418 10.6882 9.12501 11.4381L 6.4375 11.4381L 3.7109 7.05523L 2.4219 7.05523ZM 2.4219 5.08648L 3.20315 5.08648C 3.79371 5.12974 4.3838 4.9965 4.89846 4.70367C 5.0839 4.56572 5.23133 4.383 5.32697 4.1726C 5.42262 3.96219 5.46334 3.73097 5.44534 3.50055C 5.46542 3.27533 5.42408 3.04888 5.32572 2.84528C 5.22736 2.64169 5.07566 2.46855 4.88675 2.3443C 4.35037 2.07901 3.75333 1.96042 3.15628 2.00055L 2.4219 2.00055L 2.4219 5.08648Z"/>
<path id="path12_fill" d="M 2.47803e-07 11.4219L 2.47803e-07 1.09375e-06L 2.42188 1.09375e-06L 2.42188 11.4219L 2.47803e-07 11.4219Z"/>
<path id="path13_fill" d="M 10.1328 11.4219L 7.05469 11.4219L 2.08594 2.78126L 2.01562 2.78126C 2.11425 4.30763 2.16373 5.39617 2.16406 6.04689L 2.16406 11.4219L -9.375e-07 11.4219L -9.375e-07 1.09375e-06L 3.05469 1.09375e-06L 8.01563 8.55469L 8.07031 8.55469C 7.99218 7.07032 7.95312 6.02084 7.95312 5.40625L 7.95312 1.09375e-06L 10.1328 1.09375e-06L 10.1328 11.4219Z"/>
<path id="path14_fill" d="M 5.52344 11.4219L 3.10159 11.4219L 3.10159 2.01563L 2.47803e-07 2.01563L 2.47803e-07 1.09375e-06L 8.625 1.09375e-06L 8.625 2.01563L 5.52344 2.01563L 5.52344 11.4219Z"/>
<path id="path15_fill" d="M 6.57812 11.4219L 3.77197e-07 11.4219L 3.77197e-07 1.09375e-06L 6.57813 1.09375e-06L 6.57813 1.98438L 2.42187 1.98438L 2.42187 4.49219L 6.28906 4.49219L 6.28906 6.47657L 2.42187 6.47657L 2.42187 9.42188L 6.57812 9.42188L 6.57812 11.4219Z"/>
<path id="path16_fill" d="M 2.42184 7.05523L 2.42184 11.438L 2.47803e-07 11.438L 2.47803e-07 0.0161673L 3.32813 0.0161673C 4.53751 -0.0751101 5.74447 0.221842 6.77344 0.863827C 7.37363 1.40442 7.76034 2.14211 7.86353 2.94324C 7.96672 3.74438 7.77955 4.55598 7.33594 5.23101C 6.93601 5.77815 6.39253 6.20401 5.76563 6.46149C 7.48438 9.02936 8.60418 10.6882 9.12501 11.438L 6.43751 11.438L 3.71094 7.05523L 2.42184 7.05523ZM 2.42184 5.08648L 3.20309 5.08648C 3.79365 5.12974 4.38374 4.9965 4.8984 4.70367C 5.08384 4.56572 5.23128 4.383 5.32692 4.1726C 5.42256 3.96219 5.46328 3.73097 5.44528 3.50055C 5.46535 3.27533 5.42402 3.04888 5.32566 2.84528C 5.2273 2.64169 5.0756 2.46855 4.88669 2.3443C 4.35031 2.07901 3.75327 1.96042 3.15622 2.00055L 2.42184 2.00055L 2.42184 5.08649L 2.42184 5.08648Z"/>
<path id="path17_fill" d="M 2.38282 11.4219L -3.56689e-06 11.4219L -3.56689e-06 1.09375e-06L 6.54688 1.09375e-06L 6.54688 1.98438L 2.38282 1.98438L 2.38282 4.92969L 6.25782 4.92969L 6.25782 6.90625L 2.38282 6.90625L 2.38282 11.4219Z"/>
<path id="path18_fill" d="M 8.42969 11.4688L 7.60159 8.75L 3.4375 8.75L 2.60938 11.4688L -3.56689e-06 11.4688L 4.03125 -9.15527e-08L 6.99219 -9.15527e-08L 11.0391 11.4688L 8.42969 11.4688ZM 7.02344 6.71875C 6.25782 4.25537 5.82682 2.86214 5.73044 2.53906C 5.63376 2.21631 5.56544 1.96094 5.52344 1.77344C 5.35154 2.44043 4.85935 4.08886 4.04688 6.71875L 7.02344 6.71875Z"/>
<path id="path19_fill" d="M 5.37366 2.01717C 4.96314 1.99869 4.5545 2.08297 4.18479 2.26237C 3.81509 2.44177 3.496 2.71061 3.25647 3.04451C 2.70986 3.89556 2.44727 4.89806 2.50647 5.90779C 2.50647 8.45466 3.4622 9.7281 5.37366 9.7281C 6.37154 9.68961 7.35618 9.48635 8.28772 9.12654L 8.28772 11.1578C 7.29019 11.5599 6.22251 11.7591 5.1471 11.7437C 4.43933 11.7897 3.73019 11.678 3.07087 11.4166C 2.41155 11.1551 1.81852 10.7505 1.3346 10.232C 0.379564 8.99503 -0.0900357 7.45144 0.0142921 5.89217C -0.0095152 4.81605 0.212244 3.74866 0.66273 2.77108C 1.06253 1.91403 1.71202 1.19782 2.52601 0.716388C 3.39312 0.224963 4.37727 -0.0220861 5.37367 0.00154852C 6.5347 0.0139518 7.67786 0.28906 8.71742 0.80624L 7.93612 2.77499C 7.51629 2.57488 7.08598 2.39754 6.64706 2.24374C 6.23841 2.09694 5.80787 2.02034 5.37366 2.01717Z"/>
<path id="path20_fill" d="M 6.57812 11.4219L -9.375e-07 11.4219L -9.375e-07 1.09375e-06L 6.57813 1.09375e-06L 6.57813 1.98438L 2.42187 1.98438L 2.42187 4.49219L 6.28906 4.49219L 6.28906 6.47657L 2.42187 6.47657L 2.42187 9.42188L 6.57812 9.42188L 6.57812 11.4219Z"/>
<path id="path21_fill" d="M 3 3.125e-06L 0 3.125e-06L 0 69.4824L 3 69.4824L 3 3.125e-06Z"/>
<path id="path22_fill" d="M 2.99999 3.25439e-06L -6.37695e-06 3.25439e-06L -6.37695e-06 129.482L 2.99999 129.482L 2.99999 3.25439e-06Z"/>
<path id="path23_fill" d="M 29.0318 58.0637C 45.0657 58.0637 58.0637 45.0657 58.0637 29.0318C 58.0637 12.998 45.0657 -3.40576e-06 29.0318 -3.40576e-06C 12.998 -3.40576e-06 0 12.998 0 29.0318C 0 45.0657 12.998 58.0637 29.0318 58.0637Z"/>
<path id="path24_fill" d="M 9.78913 13.3183L 8.82718 10.1611L 3.99218 10.1611L 3.03027 13.3184L -3.34961e-06 13.3184L 4.68164 4.63379e-06L 8.12017 4.63379e-06L 12.8194 13.3184L 9.78913 13.3184L 9.78913 13.3183ZM 8.15632 7.80272C 7.26668 4.94139 6.76601 3.32355 6.65432 2.94921C 6.54299 2.57421 6.46291 2.27766 6.41409 2.05956C 6.21487 2.83397 5.64325 4.74836 4.69925 7.80272L 8.15625 7.80272L 8.15632 7.80272Z"/>
<path id="path25_fill" d="M 9.16304 4.1502C 9.20223 4.76179 9.10219 5.3743 8.87046 5.94163C 8.63872 6.50896 8.28132 7.01634 7.82515 7.42559C 6.73262 8.2457 5.38273 8.64787 4.01951 8.55938L 2.8125 8.55938L 2.8125 13.2772L 4.71191e-06 13.2772L 4.71191e-06 0.0134834L 4.23729 0.0134834C 5.54417 -0.077053 6.84178 0.29034 7.90722 1.05255C 8.3397 1.43829 8.67786 1.91818 8.89559 2.45524C 9.11332 2.9923 9.20482 3.57219 9.16304 4.1502ZM 2.81246 6.25567L 3.73824 6.25567C 4.42447 6.30637 5.10792 6.12588 5.67965 5.74298C 5.89695 5.56254 6.06858 5.33334 6.18058 5.07405C 6.29258 4.81475 6.34178 4.53269 6.32418 4.25079C 6.34635 3.98261 6.3095 3.71283 6.21621 3.46043C 6.12291 3.20803 5.97545 2.97914 5.78418 2.78985C 5.29448 2.43559 4.69415 2.26827 4.0918 2.31817L 2.8125 2.31817L 2.8125 6.25567L 2.81246 6.25567Z"/>
<path id="path26_fill" d="M 6.38184e-06 13.2637L 6.38184e-06 -3.125e-06L 2.81251 -3.125e-06L 2.81251 13.2637L 6.38184e-06 13.2637Z"/>
<path id="path27_fill" d="M 283 91.2568L 0 91.2568L 0 -3.125e-07L 283 -3.125e-07L 283 91.2568ZM 3 88.2568L 280 88.2568L 280 3L 3 3L 3 88.2568Z"/>
<path id="path28_fill" d="M 2.47803e-07 0.0177354L 3.55469 0.0177354C 4.77106 -0.0699681 5.98878 0.16872 7.08203 0.709142C 7.44565 0.943335 7.73947 1.27116 7.93262 1.65815C 8.12577 2.04513 8.21112 2.47699 8.17969 2.90836C 8.20488 3.50542 8.03634 4.09462 7.69922 4.58805C 7.55029 4.79869 7.36041 4.97713 7.14093 5.11271C 6.92146 5.24828 6.6769 5.33821 6.42188 5.37711L 6.42188 5.45525C 7.03823 5.55292 7.5964 5.87585 7.98829 6.3615C 8.33163 6.8842 8.49989 7.50252 8.46876 8.12713C 8.49045 8.59425 8.39917 9.05972 8.20264 9.48404C 8.00612 9.90837 7.71015 10.279 7.33985 10.5646C 6.44449 11.1913 5.36471 11.4995 4.27344 11.4396L 2.47803e-07 11.4396L 2.47803e-07 0.0177354ZM 2.42188 4.54117L 3.82809 4.54117C 4.3228 4.57936 4.81798 4.47354 5.25387 4.23649C 5.4067 4.11956 5.52736 3.96577 5.60456 3.78951C 5.68176 3.61325 5.71297 3.42028 5.69528 3.22867C 5.71009 3.04267 5.67302 2.8562 5.5882 2.69001C 5.50338 2.52381 5.37412 2.3844 5.21481 2.28727C 4.74064 2.06502 4.21777 1.9669 3.69528 2.00211L 2.42188 2.00211L 2.42188 4.54116L 2.42188 4.54117ZM 2.42188 6.46305L 2.42188 9.43961L 4.00001 9.43961C 4.52115 9.48062 5.041 9.34585 5.47657 9.0568C 5.64159 8.91192 5.77058 8.7306 5.85331 8.52718C 5.93603 8.32376 5.97021 8.10387 5.95313 7.88494C 5.95313 6.93718 5.27605 6.46322 3.92188 6.46306L 2.42188 6.46306L 2.42188 6.46305Z"/>
<path id="path29_fill" d="M 9.38041 4.6875e-07L 9.38041 7.39063C 9.39779 8.16806 9.2019 8.9354 8.814 9.60938C 8.42949 10.2513 7.85858 10.7609 7.17728 11.0703C 6.38187 11.426 5.51707 11.5994 4.64603 11.5781C 3.4027 11.6557 2.17725 11.2514 1.22416 10.4492C 0.81175 10.0514 0.489533 9.56968 0.279279 9.03664C 0.0690243 8.50359 -0.0243692 7.93162 0.00541007 7.35938L 0.00541007 1.57275e-05L 2.41947 1.57275e-05L 2.41947 6.9922C 2.36234 7.68049 2.55052 8.36681 2.95072 8.9297C 3.18107 9.15441 3.45774 9.32607 3.76137 9.43268C 4.065 9.53929 4.38826 9.57827 4.70853 9.54689C 5.02364 9.57598 5.3413 9.53542 5.63899 9.42809C 5.93669 9.32075 6.20714 9.14928 6.43119 8.9258C 6.83393 8.35953 7.02348 7.6691 6.96635 6.97658L 6.96635 1.57275e-05L 9.38041 1.57275e-05L 9.38041 4.6875e-07Z"/>
<path id="path30_fill" d="M 7.44531 8.42146C 7.46514 8.88676 7.37461 9.35016 7.18112 9.77379C 6.98764 10.1974 6.69669 10.5693 6.33203 10.859C 5.43172 11.5014 4.33839 11.8157 3.23437 11.7496C 2.11776 11.7718 1.01103 11.5366 -9.375e-07 11.0621L -9.375e-07 8.81209C 0.632291 9.10517 1.28664 9.3481 1.957 9.53865C 2.43426 9.67128 2.92655 9.74217 3.42184 9.74959C 3.85107 9.77665 4.27816 9.67022 4.6445 9.4449C 4.78593 9.34181 4.89909 9.20472 4.97351 9.04632C 5.04793 8.88792 5.08121 8.71332 5.07028 8.53865C 5.07327 8.32451 5.00756 8.11505 4.88278 7.94099C 4.7307 7.74153 4.54417 7.57088 4.332 7.43709C 3.85404 7.15057 3.35971 6.8923 2.85153 6.66363C 2.2889 6.41876 1.76093 6.10094 1.28122 5.71834C 0.937704 5.42345 0.653934 5.06541 0.445281 4.66363C 0.228933 4.22705 0.121701 3.74451 0.132781 3.25738C 0.111294 2.8082 0.192674 2.36006 0.370715 1.94711C 0.548757 1.53416 0.818757 1.16733 1.16012 0.874585C 1.97247 0.255013 2.98008 -0.0526889 3.99996 0.00738268C 4.57305 0.00479981 5.14411 0.0757036 5.69918 0.218335C 6.2773 0.372829 6.84275 0.571325 7.39059 0.812085L 6.60934 2.69488C 6.11825 2.48538 5.61311 2.31048 5.09762 2.17145C 4.71318 2.07438 4.31834 2.02454 3.92184 2.02301C 3.543 1.99778 3.16798 2.11168 2.86715 2.34332C 2.7473 2.44631 2.65209 2.57488 2.58854 2.71956C 2.52499 2.86423 2.49472 3.02133 2.49996 3.17926C 2.49546 3.37576 2.54694 3.5695 2.6484 3.73785C 2.77282 3.92217 2.93368 4.07904 3.12106 4.19879C 3.61638 4.49604 4.12901 4.76344 4.65622 4.99957C 5.49244 5.34279 6.24219 5.86708 6.85153 6.53473C 7.25715 7.07838 7.46647 7.74349 7.44531 8.42146Z"/>
<path id="path31_fill" d="M 2.47803e-07 11.4219L 2.47803e-07 4.6875e-07L 2.42184 4.6875e-07L 2.42184 11.4219L 2.47803e-07 11.4219Z"/>
<path id="path32_fill" d="M 10.1329 11.4219L 7.05473 11.4219L 2.086 2.78125L 2.01566 2.78125C 2.11429 4.30762 2.16377 5.39616 2.1641 6.04688L 2.1641 11.4219L 9.15527e-07 11.4219L 9.15527e-07 4.6875e-07L 3.05469 4.6875e-07L 8.01563 8.55469L 8.07032 8.55469C 7.99219 7.07031 7.95313 6.02084 7.95313 5.40625L 7.95313 4.6875e-07L 10.1328 4.6875e-07L 10.1328 11.4219L 10.1329 11.4219Z"/>
<path id="path33_fill" d="M 6.57815 11.4219L 1.5625e-06 11.4219L 1.5625e-06 4.6875e-07L 6.57815 4.6875e-07L 6.57815 1.98438L 2.42188 1.98438L 2.42188 4.49219L 6.28907 4.49219L 6.28907 6.47656L 2.42188 6.47656L 2.42188 9.42188L 6.57815 9.42188L 6.57815 11.4219Z"/>
<path id="path34_fill" d="M 7.44531 8.42146C 7.46514 8.88676 7.37461 9.35016 7.18113 9.77379C 6.98764 10.1974 6.69668 10.5693 6.33203 10.859C 5.43172 11.5014 4.3384 11.8157 3.23437 11.7496C 2.11776 11.7718 1.01103 11.5366 -3.04932e-06 11.0621L -3.04932e-06 8.81209C 0.632289 9.10517 1.28664 9.3481 1.957 9.53865C 2.43426 9.67128 2.92655 9.74217 3.42184 9.74959C 3.85107 9.77665 4.27816 9.67022 4.6445 9.4449C 4.78593 9.34181 4.89909 9.20472 4.97351 9.04632C 5.04793 8.88792 5.08121 8.71332 5.07028 8.53865C 5.07327 8.32451 5.00755 8.11505 4.88278 7.94099C 4.7307 7.74153 4.54417 7.57088 4.332 7.43709C 3.85404 7.15057 3.35971 6.8923 2.85153 6.66363C 2.2889 6.41876 1.76093 6.10094 1.28122 5.71834C 0.937702 5.42345 0.653932 5.06541 0.445279 4.66363C 0.228931 4.22705 0.121699 3.74451 0.132779 3.25738C 0.111292 2.8082 0.192675 2.36006 0.370717 1.94711C 0.548758 1.53416 0.818759 1.16733 1.16012 0.874585C 1.97247 0.255013 2.98007 -0.0526889 3.99996 0.00738268C 4.57305 0.00479981 5.14411 0.0757036 5.69918 0.218335C 6.2773 0.372829 6.84275 0.571325 7.39059 0.812085L 6.60931 2.6949C 6.11822 2.4854 5.61308 2.31049 5.09759 2.17146C 4.71315 2.0744 4.31831 2.02455 3.92181 2.02302C 3.54297 1.9978 3.16795 2.11169 2.86712 2.34334C 2.74727 2.44632 2.65206 2.57489 2.58851 2.71957C 2.52496 2.86425 2.49469 3.02134 2.49993 3.17927C 2.49543 3.37578 2.54692 3.56952 2.64837 3.73787C 2.77279 3.92218 2.93365 4.07905 3.12103 4.1988C 3.61635 4.49605 4.12899 4.76345 4.65619 4.99959C 5.49241 5.3428 6.24216 5.86709 6.8515 6.53474C 7.25712 7.07839 7.46645 7.74349 7.44531 8.42146Z"/>
<path id="path35_fill" d="M 7.44531 8.42146C 7.46513 8.88676 7.37461 9.35016 7.18112 9.77379C 6.98764 10.1974 6.69669 10.5693 6.33203 10.859C 5.43172 11.5014 4.33839 11.8157 3.23437 11.7496C 2.11776 11.7718 1.01104 11.5366 1.69189e-06 11.0621L 1.69189e-06 8.81209C 0.632294 9.10517 1.28664 9.3481 1.957 9.53865C 2.43426 9.67128 2.92655 9.74217 3.42184 9.74959C 3.85107 9.77665 4.27817 9.67022 4.6445 9.4449C 4.78593 9.34181 4.89908 9.20472 4.97351 9.04632C 5.04793 8.88792 5.08121 8.71332 5.07028 8.53865C 5.07327 8.32451 5.00756 8.11505 4.88278 7.94099C 4.7307 7.74153 4.54417 7.57088 4.332 7.43709C 3.85405 7.15057 3.35971 6.8923 2.85153 6.66363C 2.28891 6.41876 1.76094 6.10094 1.28122 5.71834C 0.937707 5.42345 0.653937 5.06541 0.445284 4.66363C 0.228935 4.22705 0.121704 3.74451 0.132784 3.25738C 0.111297 2.8082 0.192672 2.36006 0.370714 1.94711C 0.548756 1.53416 0.818756 1.16733 1.16012 0.874585C 1.97247 0.255013 2.98008 -0.0526889 3.99996 0.00738268C 4.57306 0.00479981 5.14412 0.0757036 5.69918 0.218335C 6.2773 0.372829 6.84275 0.571325 7.39059 0.812085L 6.60934 2.69488C 6.11825 2.48538 5.61311 2.31048 5.09762 2.17145C 4.71318 2.07438 4.31834 2.02454 3.92184 2.02301C 3.543 1.99778 3.16798 2.11168 2.86715 2.34332C 2.7473 2.44631 2.65209 2.57488 2.58854 2.71956C 2.52499 2.86423 2.49472 3.02133 2.49996 3.17926C 2.49546 3.37576 2.54694 3.5695 2.6484 3.73785C 2.77282 3.92217 2.93368 4.07904 3.12106 4.19879C 3.61638 4.49604 4.12902 4.76344 4.65622 4.99957C 5.49244 5.34279 6.24219 5.86708 6.85153 6.53473C 7.25715 7.07838 7.46646 7.74349 7.44531 8.42146Z"/>
<path id="path36_fill" d="M 2.47803e-07 11.4219L 2.47803e-07 2.5e-06L 2.42188 2.5e-06L 2.42188 9.42188L 7.05469 9.42188L 7.05469 11.4219L 2.47803e-07 11.4219Z"/>
<path id="path37_fill" d="M 10.8897 5.88651C 10.9948 7.4659 10.4916 9.02565 9.48342 10.2459C 8.95891 10.7725 8.32786 11.1809 7.63258 11.4437C 6.9373 11.7064 6.19388 11.8174 5.45217 11.7693C 4.71046 11.8174 3.96703 11.7064 3.27176 11.4437C 2.57648 11.1809 1.94542 10.7725 1.42092 10.2459C 0.411025 9.02045 -0.0920773 7.45524 0.0146676 5.87089C -0.0946838 4.29152 0.410563 2.73101 1.42483 1.51543C 1.9547 0.994016 2.58881 0.590486 3.28557 0.331307C 3.98233 0.0721275 4.726 -0.0368586 5.46783 0.0115131C 6.20839 -0.0378549 6.95095 0.0718699 7.6456 0.33329C 8.34025 0.594711 8.97089 1.00178 9.49517 1.52715C 10.4976 2.74997 10.9963 4.3089 10.8897 5.88651ZM 2.55373 5.88651C 2.48262 6.90031 2.73717 7.91033 3.28029 8.76933C 3.53585 9.09568 3.86736 9.35456 4.24592 9.52341C 4.62448 9.69227 5.0386 9.76596 5.45217 9.73808C 7.38479 9.73808 8.35094 8.45422 8.35061 5.88651C 8.35061 3.31376 7.38967 2.02731 5.4678 2.02715C 5.05278 1.99992 4.63739 2.07427 4.25759 2.24375C 3.87778 2.41324 3.54502 2.67273 3.28811 2.99979C 2.74038 3.85851 2.48295 4.87045 2.55374 5.88651L 2.55373 5.88651Z"/>
<path id="path38_fill" d="M 4.85805 5.18216L 9.3893 5.18216L 9.3893 11.104C 8.7132 11.3297 8.01936 11.4983 7.31508 11.6079C 6.65677 11.7049 5.99221 11.7532 5.3268 11.7525C 4.59767 11.8012 3.86669 11.6905 3.18468 11.4281C 2.50267 11.1657 1.88601 10.7578 1.37758 10.2329C 0.394565 8.9996 -0.0917093 7.44325 0.0142984 5.86966C -0.0322598 5.08073 0.0841805 4.29068 0.356358 3.54873C 0.628537 2.80678 1.05062 2.12884 1.5963 1.55717C 2.18793 1.02064 2.88062 0.607491 3.63385 0.341885C 4.38707 0.0762783 5.1857 -0.0364574 5.98302 0.010296C 7.14953 0.0092169 8.30376 0.248583 9.37365 0.713436L 8.56896 2.65094C 7.76302 2.24084 6.87168 2.0267 5.9674 2.02594C 5.49639 2.00639 5.02684 2.09073 4.59208 2.27301C 4.15733 2.45528 3.76802 2.73101 3.45178 3.08062C 2.79037 3.87293 2.45273 4.88587 2.50647 5.91656C 2.4394 6.92136 2.70727 7.92005 3.26819 8.7564C 3.53204 9.08506 3.87088 9.34563 4.25627 9.51623C 4.64166 9.68684 5.06235 9.7625 5.48303 9.73687C 5.99996 9.73586 6.5155 9.68351 7.02209 9.58062L 7.02209 7.19778L 4.85805 7.19778L 4.85805 5.18216Z"/>
<path id="path39_fill" d="M -9.375e-07 11.4219L -9.375e-07 2.5e-06L 2.42188 2.5e-06L 2.42188 11.4219L -9.375e-07 11.4219Z"/>
<path id="path40_fill" d="M 5.37366 2.01716C 4.96314 1.99869 4.5545 2.08298 4.1848 2.26237C 3.81509 2.44177 3.496 2.7106 3.25647 3.04451C 2.70986 3.89556 2.44727 4.89805 2.50647 5.90779C 2.50647 8.45466 3.4622 9.7281 5.37366 9.7281C 6.37154 9.68962 7.35618 9.48635 8.28772 9.12654L 8.28772 11.1578C 7.29018 11.5599 6.22251 11.7591 5.1471 11.7437C 4.43934 11.7897 3.73019 11.678 3.07087 11.4165C 2.41155 11.1551 1.81852 10.7505 1.3346 10.232C 0.379569 8.99503 -0.0900382 7.45144 0.0142896 5.89216C -0.00951805 4.81605 0.212245 3.74865 0.662731 2.77107C 1.06253 1.91402 1.71202 1.19782 2.52601 0.716384C 3.39312 0.224959 4.37727 -0.0220794 5.37367 0.00155519C 6.53471 0.0139584 7.67787 0.289063 8.71742 0.806243L 7.93617 2.77498C 7.51634 2.57487 7.08603 2.39753 6.64711 2.24373C 6.23844 2.09692 5.80788 2.02033 5.37366 2.01716Z"/>
<path id="path41_fill" d="M 4.68039 1.75621C 4.3228 1.74012 3.96686 1.8136 3.64488 1.96998C 3.3229 2.12637 3.04508 2.36071 2.83664 2.65172C 2.36054 3.3927 2.1318 4.26563 2.18332 5.14488C 2.18332 7.36363 3.01568 8.47268 4.68039 8.47203C 5.54951 8.43875 6.40712 8.26188 7.21849 7.94859L 7.21849 9.71812C 6.34958 10.0679 5.41972 10.2412 4.48314 10.2279C 3.86675 10.2681 3.24913 10.1708 2.67492 9.94313C 2.1007 9.71547 1.58423 9.36311 1.16282 8.91148C 0.330766 7.83406 -0.0784098 6.48948 0.0124336 5.13121C -0.00809185 4.19419 0.184937 3.26479 0.576887 2.41343C 0.925058 1.66679 1.4908 1.04283 2.19989 0.623426C 2.95526 0.195612 3.8125 -0.0193732 4.68036 0.00135593C 5.69146 0.0120419 6.68703 0.251447 7.59247 0.701582L 6.91181 2.41639C 6.54625 2.24232 6.1717 2.08781 5.78974 1.9535C 5.43366 1.82592 5.05863 1.75923 4.68039 1.75621Z"/>
<path id="path42_fill" d="M 5.72949 9.94824L 2.47314e-06 9.94824L 2.47314e-06 -5.625e-06L 5.72949 -5.625e-06L 5.72949 1.72851L 2.10937 1.72851L 2.10937 3.9121L 5.47753 3.9121L 5.47753 5.64062L 2.10937 5.64062L 2.10937 8.20605L 5.72949 8.20605L 5.72949 9.94824Z"/>
<path id="path43_fill" d="M 8.8252 9.94826L 6.14454 9.94826L 1.81642 2.42287L 1.75587 2.42287C 1.84181 3.75197 1.88478 4.69988 1.88478 5.26662L 1.88478 9.94826L 2.34375e-06 9.94826L 2.34375e-06 1.4375e-05L 2.66016 1.4375e-05L 6.98145 7.45119L 7.0293 7.45119C 6.96094 6.15822 6.92676 5.24416 6.92676 4.709L 6.92676 1.4375e-05L 8.8252 1.4375e-05L 8.8252 9.94823L 8.8252 9.94826Z"/>
<path id="path44_fill" d="M 4.81054 9.94824L 2.70117 9.94824L 2.70117 1.75585L -2.34375e-06 1.75585L -2.34375e-06 -5.625e-06L 7.51172 -5.625e-06L 7.51172 1.75585L 4.81055 1.75585L 4.81055 9.94824L 4.81054 9.94824Z"/>
<path id="path45_fill" d="M 2.10937 6.14499L 2.10937 9.96237L -1.5625e-07 9.96237L -1.5625e-07 0.0141323L 2.89844 0.0141323C 3.95186 -0.0655207 5.00321 0.193124 5.89944 0.752414C 6.42189 1.22344 6.75852 1.86588 6.84843 2.56354C 6.93835 3.2612 6.77561 3.96802 6.38966 4.55612C 6.0415 5.03292 5.56789 5.40376 5.02151 5.62741C 6.51859 7.86374 7.49385 9.30873 7.9473 9.96241L 5.60648 9.96241L 3.23247 6.14502L 2.10947 6.14502L 2.10937 6.14499ZM 2.10937 4.43015L 2.79002 4.43015C 3.30431 4.46758 3.81815 4.35169 4.26659 4.09714C 4.42791 3.97686 4.55613 3.8177 4.6393 3.63446C 4.72246 3.45123 4.75786 3.2499 4.74219 3.04929C 4.75971 2.85304 4.72374 2.65572 4.63811 2.47827C 4.55248 2.30083 4.42037 2.14987 4.25584 2.04148C 3.7887 1.81075 3.26885 1.70766 2.74901 1.74265L 2.10936 1.74265L 2.10936 4.43015L 2.10937 4.43015Z"/>
<path id="path46_fill" d="M 7.34184 9.98926L 6.62114 7.62109L 2.99414 7.62109L 2.27246 9.98926L -3.74512e-06 9.98926L 3.51074 -1.25e-06L 6.08984 -1.25e-06L 9.61425 9.98926L 7.34179 9.98926L 7.34184 9.98926ZM 6.11723 5.85156C 5.45024 3.70605 5.0749 2.49284 4.99122 2.21191C 4.90722 1.93067 4.84701 1.70834 4.81057 1.54492C 4.66116 2.12597 4.23245 3.56152 3.52444 5.85156L 6.11721 5.85156L 6.11723 5.85156Z"/>
<path id="path47_fill" d="M 2.96875e-06 9.94824L 2.96875e-06 -5.625e-06L 2.10938 -5.625e-06L 2.10938 8.20605L 6.14453 8.20605L 6.14453 9.94824L 2.96875e-06 9.94824Z"/>
<path id="path48_fill" d="M 3.28125e-06 9.94824L 3.28125e-06 -5.625e-06L 2.10938 -5.625e-06L 2.10938 9.94824L 3.28125e-06 9.94824Z"/>
<path id="path49_fill" d="M 7.40332 9.94824L -4.21875e-06 9.94824L -4.21875e-06 8.58007L 4.7705 1.74218L 0.129894 1.74218L 0.129894 -5.625e-06L 7.27443 -5.625e-06L 7.27443 1.36132L 2.51075 8.20605L 7.40333 8.20605L 7.40333 9.94824L 7.40332 9.94824Z"/>
<path id="path50_fill" d="M 5.72949 9.94824L -2.96875e-06 9.94824L -2.96875e-06 -5.625e-06L 5.72949 -5.625e-06L 5.72949 1.72851L 2.10937 1.72851L 2.10937 3.9121L 5.47754 3.9121L 5.47754 5.64062L 2.10939 5.64062L 2.10939 8.20605L 5.7295 8.20605L 5.7295 9.94824L 5.72949 9.94824Z"/>
<path id="path51_fill" d="M 8.25391 4.889C 8.29986 5.57938 8.19898 6.27166 7.95794 6.92022C 7.71689 7.56878 7.34116 8.1589 6.85547 8.6517C 5.72773 9.59063 4.28141 10.0586 2.81739 9.95834L 4.53125e-06 9.95834L 4.53125e-06 0.0100959L 3.12301 0.0100959C 4.50416 -0.075593 5.86343 0.386509 6.90619 1.29623C 7.3694 1.76768 7.72866 2.33097 7.96079 2.94979C 8.19292 3.56861 8.29277 4.22922 8.25391 4.889ZM 6.0625 4.94369C 6.0625 2.80697 5.11915 1.73861 3.23243 1.73861L 2.10943 1.73861L 2.10943 8.21615L 3.01468 8.21615C 5.04688 8.21615 6.06283 7.12533 6.0625 4.94369Z"/>
<path id="path52_fill" d="M 0 12.8664L 0 0.0167937L 3.0625 0.0167937C 4.30562 -0.0780805 5.54617 0.230856 6.59961 0.897653C 6.98849 1.21604 7.2953 1.62308 7.49428 2.0846C 7.69327 2.54613 7.77861 3.04866 7.74316 3.55C 7.76858 4.3369 7.52772 5.10937 7.05957 5.74238C 6.5278 6.38699 5.79789 6.83778 4.9834 7.02461L 8.47852 12.8664L 7.40625 12.8664L 4.08691 7.28535L 0.896481 7.28535L 0.896481 12.8664L 0 12.8664ZM 0.896481 6.49433L 3.34863 6.49433C 4.24824 6.55044 5.13954 6.29337 5.87109 5.76679C 6.1769 5.50316 6.41712 5.17195 6.57272 4.79939C 6.72832 4.42682 6.79503 4.02313 6.76757 3.62031C 6.80277 3.21895 6.74135 2.815 6.58844 2.44224C 6.43553 2.06948 6.19558 1.73875 5.88866 1.47773C 5.02755 0.959278 4.02514 0.724903 3.02343 0.807809L 0.896429 0.807809L 0.896429 6.49433L 0.896481 6.49433Z"/>
<path id="path53_fill" d="M 0.00993715 5.03849C -0.0562217 3.72483 0.340506 2.42959 1.13103 1.37833C 1.49303 0.929442 1.95491 0.571344 2.47984 0.332615C 3.00477 0.0938869 3.57823 -0.0188664 4.15447 0.0033306C 4.66145 -0.0194634 5.16686 0.0749222 5.63144 0.279179C 6.09601 0.483436 6.50724 0.792068 6.83318 1.18106C 7.53002 2.097 7.87795 3.23114 7.81463 4.38028L 7.81463 5.08341L 0.906427 5.08341C 0.843075 6.16321 1.16952 7.22987 1.82635 8.08927C 2.15277 8.44321 2.55398 8.71995 3.0008 8.89936C 3.44761 9.07876 3.92879 9.15631 4.40935 9.12638C 4.89324 9.13162 5.37664 9.09338 5.85369 9.01212C 6.39334 8.89781 6.92105 8.73302 7.42986 8.51993L 7.42986 9.31092C 6.94896 9.5262 6.4455 9.68703 5.92886 9.79041C 5.42726 9.87881 4.91864 9.92134 4.40933 9.91742C 3.80878 9.9513 3.20806 9.85407 2.64886 9.63248C 2.08966 9.41089 1.58539 9.07025 1.17105 8.63422C 0.343887 7.62524 -0.0709162 6.34068 0.00993715 5.03849ZM 0.959158 4.29239L 6.87416 4.29239C 6.92819 3.37868 6.67406 2.47326 6.15248 1.7211C 5.91797 1.41795 5.61409 1.17556 5.2664 1.01429C 4.91871 0.853014 4.53738 0.777581 4.15448 0.794346C 3.74189 0.776818 3.33035 0.84814 2.94773 1.00348C 2.5651 1.15883 2.22031 1.39456 1.93671 1.69474C 1.32731 2.42564 0.982823 3.34106 0.959158 4.29239Z"/>
<path id="path54_fill" d="M -1.3147e-06 9.34518L -1.3147e-06 8.40866C 0.942598 8.88559 1.98461 9.13287 3.041 9.13034C 3.78612 9.17719 4.52944 9.01411 5.18651 8.65963C 5.40931 8.53467 5.59468 8.35245 5.72344 8.13183C 5.85221 7.91121 5.9197 7.6602 5.91893 7.40475C 5.92085 7.17096 5.86922 6.93984 5.76799 6.72909C 5.66676 6.51834 5.51862 6.33356 5.33493 6.18893C 4.75536 5.76044 4.10758 5.43292 3.41893 5.22018C 2.71914 4.98936 2.04396 4.68972 1.40331 4.32565C 1.05036 4.1126 0.748889 3.82414 0.520499 3.48092C 0.313685 3.13405 0.21066 2.73515 0.223632 2.33151C 0.215758 1.99446 0.294824 1.66108 0.453211 1.36346C 0.611599 1.06584 0.843966 0.814026 1.12793 0.63229C 1.88816 0.174062 2.76909 -0.0437893 3.65527 0.0072896C 4.66145 0.00257701 5.65834 0.199829 6.58691 0.587368L 6.26171 1.38037C 5.4395 1.01722 4.55385 0.819456 3.65526 0.798366C 3.01546 0.768101 2.37852 0.901567 1.80467 1.18609C 1.60053 1.28191 1.4278 1.43375 1.3066 1.62393C 1.18541 1.81411 1.12073 2.0348 1.1201 2.26031C 1.11134 2.48734 1.15466 2.71335 1.24674 2.92105C 1.33883 3.12874 1.47723 3.31261 1.65135 3.45855C 2.28588 3.89981 2.98583 4.23858 3.72557 4.46246C 4.37805 4.67932 5.00717 4.961 5.6035 5.30328C 5.95828 5.51643 6.26012 5.80725 6.48631 6.15387C 6.68808 6.49128 6.79001 6.87901 6.78026 7.27203C 6.79806 7.65508 6.7179 8.03633 6.54737 8.37979C 6.37684 8.72324 6.12156 9.01756 5.80565 9.23492C 4.97602 9.74116 4.01108 9.98078 3.041 9.92144C 1.9963 9.96865 0.955002 9.77132 -1.3147e-06 9.34518Z"/>
<path id="path55_fill" d="M 6.25e-07 3.06741L 6.25e-07 2.5664L 1.40625 2.1621L 1.85449 -4.89258e-06L 2.30273 -4.89258e-06L 2.30273 2.31152L 5.09765 2.31152L 5.09765 3.06738L 2.30274 3.06738L 2.30274 9.10156C 2.26052 9.66925 2.39566 10.236 2.68946 10.7236C 2.8328 10.9043 3.01846 11.0468 3.23002 11.1386C 3.44157 11.2304 3.67249 11.2687 3.90235 11.25C 4.38649 11.2565 4.86988 11.2097 5.34376 11.1103L 5.34376 11.8252C 4.87261 11.9769 4.37965 12.0498 3.88476 12.041C 3.54241 12.0694 3.19797 12.0236 2.87491 11.9068C 2.55185 11.79 2.25776 11.605 2.01269 11.3643C 1.55807 10.7529 1.34241 9.99645 1.40624 9.23724L 1.40624 3.06741L 6.25e-07 3.06741Z"/>
<path id="path56_fill" d="M 9.15527e-07 12.6955L 9.15527e-07 11.799C 1.13012 12.2276 2.33401 12.4277 3.542 12.3879C 4.43636 12.4362 5.32081 12.1809 6.05177 11.6633C 6.34719 11.4432 6.58552 11.1556 6.74678 10.8244C 6.90803 10.4932 6.98751 10.1282 6.97853 9.75995C 6.99492 9.33602 6.88807 8.91641 6.67091 8.55194C 6.41185 8.18421 6.0682 7.88411 5.66891 7.67694C 5.01606 7.33242 4.33364 7.0471 3.62985 6.82441C 2.6252 6.54578 1.69561 6.04594 0.90915 5.36151C 0.391012 4.78967 0.12092 4.03561 0.158151 3.26484C 0.148092 2.81174 0.245186 2.36267 0.441529 1.9542C 0.637872 1.54573 0.927912 1.18941 1.28803 0.914249C 2.12034 0.281394 3.1477 -0.040562 4.19233 0.00409283C 5.3574 -0.00363412 6.51148 0.229772 7.58198 0.68964L 7.26362 1.46308C 6.30025 1.03961 5.2621 0.81252 4.20991 0.795078C 3.40131 0.752517 2.6021 0.984844 1.94233 1.45426C 1.66841 1.66374 1.4488 1.93594 1.30198 2.24796C 1.15515 2.55997 1.08539 2.90267 1.09858 3.24726C 1.08224 3.65285 1.17177 4.0557 1.35835 4.4162C 1.56716 4.7573 1.85872 5.04013 2.20601 5.23847C 2.85064 5.59315 3.52751 5.88582 4.22749 6.11249C 5.0147 6.36031 5.77068 6.69815 6.48042 7.11933C 6.93027 7.39323 7.30587 7.77353 7.57417 8.22675C 7.81545 8.68833 7.93415 9.20412 7.9189 9.72474C 7.9379 10.2124 7.84107 10.6976 7.63636 11.1407C 7.43165 11.5837 7.12487 11.972 6.74117 12.2736C 5.83779 12.9383 4.73245 13.2706 3.61226 13.214C 2.38638 13.2678 1.16124 13.092 9.15527e-07 12.6955Z"/>
<path id="path57_fill" d="M 0.00994044 5.03849C -0.0562184 3.72483 0.340505 2.42959 1.13103 1.37833C 1.49303 0.929442 1.95491 0.571344 2.47984 0.332615C 3.00477 0.0938869 3.57822 -0.0188664 4.15446 0.0033306C 4.66145 -0.0194634 5.16686 0.0749222 5.63144 0.279179C 6.09601 0.483436 6.50724 0.792068 6.83318 1.18106C 7.53002 2.097 7.87795 3.23114 7.81463 4.38028L 7.81463 5.08341L 0.906425 5.08341C 0.843072 6.16321 1.16952 7.22987 1.82635 8.08927C 2.15277 8.44321 2.55398 8.71995 3.00079 8.89936C 3.44761 9.07876 3.92879 9.15631 4.40935 9.12638C 4.89324 9.13162 5.37664 9.09338 5.85369 9.01212C 6.39334 8.89781 6.92105 8.73302 7.42985 8.51993L 7.42985 9.31092C 6.94896 9.5262 6.4455 9.68703 5.92886 9.79041C 5.42725 9.87881 4.91864 9.92134 4.40932 9.91742C 3.80878 9.9513 3.20805 9.85407 2.64886 9.63248C 2.08966 9.41089 1.58539 9.07025 1.17105 8.63422C 0.34389 7.62524 -0.0709129 6.34068 0.00994044 5.03849ZM 0.959159 4.29239L 6.87416 4.29239C 6.92819 3.37868 6.67407 2.47326 6.15248 1.7211C 5.91797 1.41795 5.61409 1.17556 5.2664 1.01429C 4.91872 0.853014 4.53738 0.777581 4.15448 0.794346C 3.74189 0.776818 3.33035 0.84814 2.94772 1.00348C 2.56509 1.15883 2.22031 1.39456 1.93671 1.69474C 1.32731 2.42564 0.982812 3.34106 0.959144 4.29239L 0.959159 4.29239Z"/>
<path id="path58_fill" d="M 2.5e-06 9.73967L 2.5e-06 0.185932L 0.738284 0.185932L 0.820277 1.90078L 0.878871 1.90078C 1.17199 1.31456 1.60334 0.808471 2.13571 0.426166C 2.62256 0.13166 3.18416 -0.0158641 3.7529 0.00136162C 4.18925 0.0043237 4.62451 0.0454667 5.05368 0.124347L 4.88668 0.950519C 4.4822 0.844275 4.06562 0.791093 3.64742 0.792316C 3.25389 0.788397 2.86541 0.881088 2.51604 1.06224C 2.16667 1.2434 1.86707 1.50749 1.64351 1.83138C 1.0999 2.59592 0.824829 3.51899 0.861277 4.45638L 0.861277 9.73958L 2.5e-06 9.73958L 2.5e-06 9.73967Z"/>
<path id="path59_fill" d="M 3.56689e-06 8.54492e-06L 0.89648 8.54492e-06L 3.36621 6.50199C 3.65381 7.21449 3.90031 7.9429 4.10449 8.68363L 4.15722 8.68363C 4.39746 7.88578 4.64355 7.15271 4.8955 6.48441L 7.36523 3.90625e-05L 8.26171 3.90625e-05L 4.5703 9.55375L 3.6914 9.55375L 3.56689e-06 8.54492e-06Z"/>
<path id="path60_fill" d="M -2.8125e-06 0.844323C -2.8125e-06 0.281823 0.16016 0.000572483 0.480474 0.000572483C 0.572243 -0.00350149 0.663659 0.0143094 0.747197 0.0525134C 0.830735 0.0907174 0.904001 0.148216 0.960942 0.220299C 1.08696 0.403002 1.14784 0.622787 1.13379 0.844292C 1.14607 1.06561 1.08535 1.28486 0.960942 1.46832C 0.905428 1.54255 0.832665 1.60214 0.748952 1.64196C 0.665239 1.68178 0.573096 1.70061 0.480474 1.69683C 0.16016 1.69686 -2.8125e-06 1.41268 -2.8125e-06 0.844323ZM 0.122998 13.0523L 0.122998 3.49859L 0.86128 3.49859L 0.86128 13.0523L 0.123036 13.0523L 0.122998 13.0523Z"/>
<path id="path61_fill" d="M 0.00995725 5.02424C -0.0720642 3.68578 0.354911 2.36579 1.20527 1.32893C 1.62393 0.882523 2.13496 0.532872 2.7027 0.304328C 3.27043 0.075784 3.8812 -0.0261505 4.49238 0.00568298C 5.30306 0.00287486 6.10738 0.148849 6.86538 0.436347L 6.62808 1.20978C 5.93661 0.959273 5.20984 0.819854 4.47476 0.796699C 3.97745 0.762778 3.47898 0.842985 3.01743 1.0312C 2.55587 1.21941 2.14345 1.51064 1.81167 1.88264C 1.15222 2.78526 0.831717 3.89131 0.906396 5.00666C 0.842402 6.09118 1.16296 7.16351 1.81167 8.03498C 2.12075 8.40005 2.51003 8.68872 2.94913 8.87846C 3.38822 9.06819 3.86524 9.15384 4.34292 9.12873C 5.17159 9.13621 5.99338 8.97783 6.75992 8.66291L 6.75992 9.47147C 6.00401 9.79945 5.18384 9.95267 4.36051 9.91971C 3.76512 9.95226 3.16987 9.85339 2.61697 9.6301C 2.06408 9.40682 1.5671 9.0646 1.16129 8.62772C 0.341278 7.61232 -0.0693916 6.32699 0.00995725 5.02424Z"/>
<path id="path62_fill" d="M 0.00993719 5.03849C -0.0562216 3.72483 0.34051 2.42959 1.13103 1.37833C 1.49303 0.929442 1.95492 0.571344 2.47985 0.332615C 3.00478 0.0938869 3.57823 -0.0188664 4.15447 0.0033306C 4.66145 -0.0194634 5.16687 0.0749222 5.63144 0.279179C 6.09602 0.483436 6.50725 0.792068 6.83318 1.18106C 7.53002 2.097 7.87795 3.23114 7.81463 4.38028L 7.81463 5.08341L 0.906391 5.08341C 0.843039 6.16321 1.16948 7.22987 1.82631 8.08927C 2.15274 8.44321 2.55395 8.71995 3.00076 8.89936C 3.44757 9.07876 3.92876 9.15631 4.40931 9.12638C 4.89321 9.13162 5.3766 9.09338 5.85365 9.01212C 6.3933 8.89781 6.92101 8.73302 7.42982 8.51993L 7.42982 9.31092C 6.94893 9.5262 6.44547 9.68703 5.92882 9.79041C 5.42722 9.87881 4.91861 9.92134 4.40929 9.91742C 3.80874 9.9513 3.20802 9.85407 2.64882 9.63248C 2.08962 9.41089 1.58535 9.07025 1.17101 8.63422C 0.343863 7.62524 -0.0709273 6.34067 0.00993719 5.03849ZM 0.959164 4.29239L 6.87416 4.29239C 6.92818 3.37868 6.67406 2.47326 6.15248 1.7211C 5.91796 1.41795 5.61409 1.17556 5.2664 1.01429C 4.91871 0.853014 4.53739 0.777581 4.15448 0.794346C 3.7419 0.776818 3.33036 0.84814 2.94773 1.00348C 2.5651 1.15883 2.22031 1.39456 1.93671 1.69474C 1.32731 2.42564 0.982829 3.34106 0.959164 4.29239Z"/>
<path id="path63_fill" d="M 283 33L 0 33L 0 -2.5e-06L 283 -2.5e-06L 283 33ZM 3 30L 280 30L 280 3L 3 3L 3 30Z"/>
<path id="path64_fill" d="M 283 28.5479L 0 28.5479L 0 1.5625e-06L 283 1.5625e-06L 283 28.5479ZM 3 25.5479L 280 25.5479L 280 3L 3 3L 3 25.5479Z"/>
<path id="path65_fill" d="M 283 28.5479L 0 28.5479L 0 9.375e-07L 283 9.375e-07L 283 28.5479ZM 3 25.5479L 280 25.5479L 280 3L 3 3L 3 25.5479Z"/>
<path id="path66_fill" d="M 283 28.5488L 0 28.5488L 0 2.8125e-06L 283 2.8125e-06L 283 28.5488ZM 3 25.5488L 280 25.5488L 280 3L 3 3L 3 25.5488Z"/>
<path id="path67_fill" d="M 9.6289 5.7032C 9.68245 6.50856 9.56481 7.31613 9.28371 8.07274C 9.00262 8.82934 8.56444 9.51782 7.99804 10.0928C 6.68217 11.1885 4.99443 11.7346 3.28613 11.6173L -4.95605e-07 11.6173L -4.95605e-07 0.0117955L 3.64357 0.0117955C 5.25494 -0.0882004 6.84082 0.450719 8.05763 1.5118C 8.5978 2.06191 9.01671 2.71911 9.28734 3.44103C 9.55797 4.16294 9.67432 4.93356 9.6289 5.7032ZM 7.07324 5.76668C 7.07324 3.27449 5.97233 2.0284 3.77051 2.0284L 2.46094 2.0284L 2.46094 9.58501L 3.51657 9.58501C 5.88768 9.58501 7.07323 8.31224 7.07323 5.76668L 7.07324 5.76668Z"/>
<path id="path68_fill" d="M 8.56544 11.6533L 7.72364 8.89062L 3.49317 8.89062L 2.65137 11.6533L -1.19629e-06 11.6533L 4.09668 -3.125e-07L 7.10449 -3.125e-07L 11.2168 11.6533L 8.56542 11.6533L 8.56544 11.6533ZM 7.13673 6.82715C 6.35841 4.32422 5.92058 2.90853 5.82325 2.58008C 5.72462 2.25195 5.6543 1.99251 5.61231 1.80176C 5.4375 2.47949 4.9375 4.15462 4.11231 6.82715L 7.13672 6.82715L 7.13673 6.82715Z"/>
<path id="path69_fill" d="M 5.61231 11.6055L 3.15137 11.6055L 3.15137 2.04785L 2.8125e-06 2.04785L 2.8125e-06 1.25e-06L 8.76465 1.25e-06L 8.76465 2.04785L 5.61231 2.04785L 5.61231 11.6055Z"/>
<path id="path70_fill" d="M 8.56543 11.6533L 7.72363 8.89062L 3.49316 8.89062L 2.65137 11.6533L 0 11.6533L 4.09668 -3.125e-07L 7.10451 -3.125e-07L 11.2168 11.6533L 8.56543 11.6533ZM 7.13672 6.82715C 6.3584 4.32422 5.92058 2.90853 5.82324 2.58008C 5.72461 2.25195 5.6543 1.99251 5.6123 1.80176C 5.4375 2.47949 4.9375 4.15462 4.1123 6.82715L 7.1367 6.82715L 7.13672 6.82715Z"/>
<path id="path71_fill" d="M 9.375e-07 0.0179288L 3.61133 0.0179288C 4.8475 -0.0708968 6.08501 0.171476 7.19634 0.720077C 7.5657 0.958084 7.86416 1.29115 8.0604 1.68431C 8.25663 2.07747 8.34339 2.5162 8.31155 2.95445C 8.33698 3.5612 8.16572 4.15993 7.82327 4.66145C 7.67178 4.87531 7.47881 5.05652 7.25585 5.19426C 7.03288 5.332 6.78449 5.42345 6.52544 5.46321L 6.52544 5.54329C 7.15158 5.64243 7.71872 5.97019 8.11723 6.46321C 8.46575 6.99477 8.63638 7.62331 8.60452 8.25813C 8.62653 8.73269 8.53382 9.20556 8.33424 9.63667C 8.13467 10.0678 7.83412 10.4444 7.45805 10.7347C 6.54805 11.3713 5.45076 11.6842 4.34184 11.6234L 4.67139e-05 11.6234L 4.67139e-05 0.0179288L 9.375e-07 0.0179288ZM 2.46094 4.61363L 3.88965 4.61363C 4.39218 4.65277 4.89528 4.54523 5.33789 4.30406C 5.49343 4.18558 5.61627 4.02946 5.69486 3.85042C 5.77344 3.67138 5.80519 3.47531 5.78711 3.28062C 5.80207 3.09157 5.76437 2.90207 5.67818 2.73314C 5.59199 2.56421 5.46068 2.42247 5.29883 2.32362C 4.81698 2.09803 4.28571 1.99857 3.75488 2.03456L 2.46092 2.03456L 2.46092 4.61366L 2.46094 4.61363ZM 2.46094 6.56676L 2.46094 9.59114L 4.06445 9.59114C 4.59383 9.63278 5.12191 9.49595 5.56445 9.20247C 5.73217 9.05535 5.86329 8.87118 5.94737 8.66454C 6.03146 8.45789 6.0662 8.23446 6.04884 8.01204C 6.04884 7.04817 5.36069 6.5664 3.98439 6.56673L 2.46095 6.56673L 2.46094 6.56676Z"/>
<path id="path72_fill" d="M 8.56544 11.6533L 7.72363 8.89062L 3.49316 8.89062L 2.65137 11.6533L -2.58789e-07 11.6533L 4.09668 -3.125e-07L 7.10449 -3.125e-07L 11.2168 11.6533L 8.56541 11.6533L 8.56544 11.6533ZM 7.13673 6.82715C 6.35841 4.32422 5.92059 2.90853 5.82326 2.58008C 5.72462 2.25195 5.6543 1.99251 5.6123 1.80176C 5.4375 2.47949 4.9375 4.15462 4.1123 6.82715L 7.13672 6.82715L 7.13673 6.82715Z"/>
<path id="path73_fill" d="M 7.56543 8.55727C 7.58556 9.03 7.49361 9.50079 7.29707 9.9312C 7.10053 10.3616 6.80499 10.7394 6.43457 11.0338C 5.51946 11.6867 4.40824 12.0062 3.28613 11.9391C 2.1516 11.9614 1.02717 11.7221 -4.375e-06 11.2399L -4.375e-06 8.95375C 0.642347 9.25166 1.30716 9.49852 1.98828 9.69203C 2.47341 9.82731 2.97395 9.89952 3.47753 9.90687C 3.9136 9.93407 4.34744 9.82596 4.71974 9.5973C 4.86323 9.49235 4.97805 9.353 5.05365 9.19209C 5.12924 9.03118 5.16318 8.85386 5.15235 8.67641C 5.15542 8.45879 5.08868 8.2459 4.96193 8.06898C 4.80763 7.8662 4.61808 7.69286 4.40235 7.55727C 3.91651 7.26605 3.41402 7.00356 2.89747 6.77113C 2.32583 6.52199 1.78935 6.19892 1.30177 5.8102C 0.952901 5.51049 0.664525 5.14687 0.452159 4.73891C 0.232599 4.29527 0.123701 3.80507 0.134777 3.3102C 0.112981 2.85368 0.195698 2.39821 0.376613 1.9785C 0.557528 1.55879 0.831875 1.18593 1.17874 0.88832C 2.00443 0.259186 3.02818 -0.0533131 4.06446 0.00746106C 4.64682 0.00466512 5.22711 0.076876 5.79103 0.222305C 6.37853 0.378829 6.95314 0.580268 7.50978 0.824844L 6.71583 2.73793C 6.21684 2.52514 5.70354 2.34762 5.1797 2.20668C 4.78925 2.10769 4.38816 2.05686 3.98536 2.05531C 3.60009 2.02936 3.21866 2.14539 2.9131 2.38148C 2.79154 2.48614 2.69494 2.61666 2.6304 2.7635C 2.56585 2.91035 2.535 3.06977 2.5401 3.23009C 2.53558 3.43007 2.58808 3.62723 2.69146 3.79848C 2.81803 3.98555 2.98154 4.14471 3.17193 4.26622C 3.67501 4.5684 4.19581 4.84008 4.7315 5.07973C 5.58118 5.42869 6.34294 5.96166 6.96197 6.64027C 7.37437 7.19251 7.58713 7.86837 7.56543 8.55727Z"/>
<path id="path74_fill" d="M 6.68359 11.6055L -2.5e-06 11.6055L -2.5e-06 1.25e-06L 6.68359 1.25e-06L 6.68359 2.0166L 2.46094 2.0166L 2.46094 4.56445L 6.38965 4.56445L 6.38965 6.58106L 2.46094 6.58106L 2.46094 9.57321L 6.68359 9.57321L 6.68359 11.6054L 6.68359 11.6055Z"/>
<path id="path75_fill" d="M 4.68039 1.75621C 4.3228 1.74012 3.96686 1.81363 3.64488 1.97001C 3.3229 2.1264 3.04508 2.36071 2.83664 2.65171C 2.36054 3.3927 2.1318 4.26563 2.18332 5.14488C 2.18332 7.36363 3.01568 8.47268 4.68039 8.47203C 5.54951 8.43875 6.40712 8.26188 7.21849 7.94859L 7.21849 9.71812C 6.34958 10.0679 5.41972 10.2412 4.48314 10.2279C 3.86675 10.2681 3.24913 10.1708 2.67492 9.94316C 2.1007 9.7155 1.58423 9.3631 1.16282 8.91148C 0.330766 7.83406 -0.0784098 6.48948 0.0124336 5.13121C -0.00809185 4.19419 0.184937 3.26479 0.576887 2.41343C 0.925058 1.66679 1.4908 1.04286 2.19989 0.623456C 2.95526 0.195641 3.8125 -0.0193439 4.68036 0.0013852C 5.69146 0.0120711 6.68703 0.251446 7.59247 0.701581L 6.91181 2.41642C 6.54625 2.24235 6.1717 2.08784 5.78974 1.95353C 5.43366 1.82595 5.05863 1.75923 4.68039 1.75621Z"/>
<path id="path76_fill" d="M 5.72949 9.94824L 2.47314e-06 9.94824L 2.47314e-06 -6.875e-06L 5.72949 -6.875e-06L 5.72949 1.72857L 2.10937 1.72857L 2.10937 3.9121L 5.47753 3.9121L 5.47753 5.64068L 2.10937 5.64068L 2.10937 8.20611L 5.72949 8.20611L 5.72949 9.9483L 5.72949 9.94824Z"/>
<path id="path77_fill" d="M 8.8252 9.94826L 6.14454 9.94826L 1.81642 2.42286L 1.75587 2.42286C 1.84181 3.75196 1.88478 4.69988 1.88478 5.26661L 1.88478 9.94826L 2.34375e-06 9.94826L 2.34375e-06 1.3125e-05L 2.66016 1.3125e-05L 6.98145 7.45119L 7.0293 7.45119C 6.96094 6.15822 6.92676 5.24416 6.92676 4.709L 6.92676 1.3125e-05L 8.8252 1.3125e-05L 8.8252 9.94826Z"/>
<path id="path78_fill" d="M 4.81054 9.94824L 2.70117 9.94824L 2.70117 1.75585L -2.34375e-06 1.75585L -2.34375e-06 -6.875e-06L 7.51172 -6.875e-06L 7.51172 1.75585L 4.81055 1.75585L 4.81055 9.94824L 4.81054 9.94824Z"/>
<path id="path79_fill" d="M 2.10937 6.14499L 2.10937 9.96237L -1.5625e-07 9.96237L -1.5625e-07 0.0141311L 2.89844 0.0141311C 3.95186 -0.0655219 5.00321 0.193123 5.89944 0.752412C 6.42189 1.22344 6.75852 1.86591 6.84843 2.56357C 6.93835 3.26123 6.77561 3.96802 6.38966 4.55612C 6.0415 5.03291 5.56789 5.40376 5.02151 5.62741C 6.51859 7.86374 7.49385 9.30876 7.9473 9.96243L 5.60648 9.96243L 3.23247 6.14505L 2.10947 6.14505L 2.10937 6.14499ZM 2.10937 4.43015L 2.79002 4.43015C 3.30431 4.46758 3.81815 4.35168 4.26659 4.09714C 4.42791 3.97686 4.55613 3.81766 4.6393 3.63443C 4.72246 3.4512 4.75786 3.2499 4.74219 3.04929C 4.75971 2.85304 4.72374 2.65575 4.63811 2.4783C 4.55248 2.30086 4.42037 2.14987 4.25584 2.04147C 3.7887 1.81075 3.26885 1.70766 2.74901 1.74265L 2.10936 1.74265L 2.10936 4.43015L 2.10937 4.43015Z"/>
<path id="path80_fill" d="M 7.34184 9.98925L 6.62114 7.62109L 2.99414 7.62109L 2.27246 9.98925L -3.74512e-06 9.98925L 3.51074 -2.5e-06L 6.08984 -2.5e-06L 9.61425 9.98925L 7.34179 9.98925L 7.34184 9.98925ZM 6.11723 5.85156C 5.45024 3.70605 5.0749 2.49284 4.99122 2.21191C 4.90722 1.93067 4.84701 1.70834 4.81057 1.54492C 4.66116 2.12597 4.23245 3.56152 3.52444 5.85156L 6.11721 5.85156L 6.11723 5.85156Z"/>
<path id="path81_fill" d="M 2.96875e-06 9.94824L 2.96875e-06 -6.875e-06L 2.10938 -6.875e-06L 2.10938 8.20605L 6.14453 8.20605L 6.14453 9.94824L 2.96875e-06 9.94824Z"/>
<path id="path82_fill" d="M 3.28125e-06 9.94824L 3.28125e-06 -6.875e-06L 2.10938 -6.875e-06L 2.10938 9.94824L 3.28125e-06 9.94824Z"/>
<path id="path83_fill" d="M 7.40332 9.94824L -4.21875e-06 9.94824L -4.21875e-06 8.58007L 4.7705 1.74218L 0.129894 1.74218L 0.129894 -6.875e-06L 7.27443 -6.875e-06L 7.27443 1.36132L 2.51075 8.20605L 7.40333 8.20605L 7.40333 9.94824L 7.40332 9.94824Z"/>
<path id="path84_fill" d="M 5.72949 9.94824L -2.96875e-06 9.94824L -2.96875e-06 -6.875e-06L 5.72949 -6.875e-06L 5.72949 1.72857L 2.10937 1.72857L 2.10937 3.9121L 5.47754 3.9121L 5.47754 5.64068L 2.10939 5.64068L 2.10939 8.20611L 5.7295 8.20611L 5.7295 9.9483L 5.72949 9.94824Z"/>
<path id="path85_fill" d="M 8.25391 4.889C 8.29986 5.57938 8.19898 6.27169 7.95794 6.92025C 7.71689 7.56881 7.34116 8.1589 6.85547 8.6517C 5.72773 9.59063 4.28141 10.0586 2.81739 9.95834L 4.53125e-06 9.95834L 4.53125e-06 0.0100946L 3.12301 0.0100946C 4.50416 -0.0755943 5.86343 0.386507 6.90619 1.29623C 7.3694 1.76767 7.72866 2.33097 7.96079 2.94979C 8.19292 3.56861 8.29277 4.22922 8.25391 4.889ZM 6.0625 4.94369C 6.0625 2.80697 5.11915 1.73861 3.23243 1.73861L 2.10943 1.73861L 2.10943 8.21615L 3.01468 8.21615C 5.04688 8.21615 6.06283 7.1253 6.0625 4.94363L 6.0625 4.94369Z"/>
<path id="path86_fill" d="M 283 33L 0 33L 0 -3.75e-06L 283 -3.75e-06L 283 33ZM 3 30L 280 30L 280 3L 3 3L 3 30Z"/>
</defs>
</svg>
