<svg width="284" height="578" viewBox="0 0 284 578" version="1.1" xmlns="http://www.w3.org/2000/svg" xmlns:xlink="http://www.w3.org/1999/xlink">
<title>ce-de</title>
<desc>Created using Figma</desc>
<g id="Canvas" transform="translate(225 -1108)">
<g id="ce-de">
<g id="Vector">
<use xlink:href="#path0_fill" transform="translate(50.752 1166.95)" fill="#1D8CEB"/>
</g>
<g id="Vector">
<use xlink:href="#path1_fill" transform="translate(-205.595 1171.46)" fill="#1D8CEB"/>
</g>
<g id="Vector">
<use xlink:href="#path2_fill" transform="translate(-224.748 1166.95)" fill="#1D8CEB"/>
</g>
<g id="Vector">
<use xlink:href="#path3_fill" transform="translate(-224.748 1125.79)" fill="#1D8CEB"/>
</g>
<g id="Vector">
<use xlink:href="#path4_fill" transform="translate(-224.748 1108)" fill="#1D8CEB"/>
</g>
<g id="Vector">
<use xlink:href="#path5_fill" transform="translate(-205.595 1108)" fill="#1D8CEB"/>
</g>
<g id="Vector">
<use xlink:href="#path6_fill" transform="translate(50.752 1108)" fill="#1D8CEB"/>
</g>
<g id="Vector">
<use xlink:href="#path7_fill" transform="translate(55.2523 1125.79)" fill="#1D8CEB"/>
</g>
<g id="Vector">
<use xlink:href="#path8_fill" transform="translate(-207.618 1124.88)" fill="#1D8CEB"/>
</g>
<g id="Vector">
<use xlink:href="#path9_fill" transform="translate(-196.144 1124.71)" fill="#1D8CEB"/>
</g>
<g id="Vector">
<use xlink:href="#path10_fill" transform="translate(-186.629 1124.88)" fill="#1D8CEB"/>
</g>
<g id="Vector">
<use xlink:href="#path11_fill" transform="translate(-177.668 1124.87)" fill="#1D8CEB"/>
</g>
<g id="Vector">
<use xlink:href="#path12_fill" transform="translate(-207.535 1145.79)" fill="#1D8CEB"/>
</g>
<g id="Vector">
<use xlink:href="#path13_fill" transform="translate(-202.238 1145.79)" fill="#1D8CEB"/>
</g>
<g id="Vector">
<use xlink:href="#path14_fill" transform="translate(-190.347 1145.79)" fill="#1D8CEB"/>
</g>
<g id="Vector">
<use xlink:href="#path15_fill" transform="translate(-179.965 1145.79)" fill="#1D8CEB"/>
</g>
<g id="Vector">
<use xlink:href="#path16_fill" transform="translate(-171.004 1145.77)" fill="#1D8CEB"/>
</g>
<g id="Vector">
<use xlink:href="#path17_fill" transform="translate(-160.441 1145.79)" fill="#1D8CEB"/>
</g>
<g id="Vector">
<use xlink:href="#path18_fill" transform="translate(-153.097 1145.74)" fill="#1D8CEB"/>
</g>
<g id="Vector">
<use xlink:href="#path19_fill" transform="translate(-141.143 1145.62)" fill="#1D8CEB"/>
</g>
<g id="Vector">
<use xlink:href="#path20_fill" transform="translate(-130.425 1145.79)" fill="#1D8CEB"/>
</g>
<g id="Vector">
<use xlink:href="#path21_fill" transform="translate(-84.7477 1466.28)" fill="#1D8CEB"/>
</g>
<g id="Vector">
<use xlink:href="#path22_fill" transform="translate(-84.7482 1184.7)" fill="#1D8CEB"/>
</g>
<g id="Vector">
<use xlink:href="#path23_fill" transform="translate(-112.28 1220.41)" fill="#1D8CEB"/>
</g>
<g id="Vector">
<use xlink:href="#path24_fill" transform="translate(-98.5665 1242.51)" fill="#FFFFFF"/>
</g>
<g id="Vector">
<use xlink:href="#path25_fill" transform="translate(-84.0782 1242.55)" fill="#FFFFFF"/>
</g>
<g id="Vector">
<use xlink:href="#path26_fill" transform="translate(-72.4112 1242.56)" fill="#FFFFFF"/>
</g>
<g id="Vector">
<use xlink:href="#path27_fill" transform="translate(-224.748 1324.25)" fill="#24368A"/>
</g>
<g id="Vector">
<use xlink:href="#path28_fill" transform="translate(-207.536 1341.12)" fill="#24368A"/>
</g>
<g id="Vector">
<use xlink:href="#path29_fill" transform="translate(-196.869 1341.14)" fill="#24368A"/>
</g>
<g id="Vector">
<use xlink:href="#path30_fill" transform="translate(-185.395 1340.96)" fill="#24368A"/>
</g>
<g id="Vector">
<use xlink:href="#path31_fill" transform="translate(-175.88 1341.14)" fill="#24368A"/>
</g>
<g id="Vector">
<use xlink:href="#path32_fill" transform="translate(-170.583 1341.14)" fill="#24368A"/>
</g>
<g id="Vector">
<use xlink:href="#path33_fill" transform="translate(-157.575 1341.14)" fill="#24368A"/>
</g>
<g id="Vector">
<use xlink:href="#path34_fill" transform="translate(-149.317 1340.96)" fill="#24368A"/>
</g>
<g id="Vector">
<use xlink:href="#path34_fill" transform="translate(-140.505 1340.96)" fill="#24368A"/>
</g>
<g id="Vector">
<use xlink:href="#path35_fill" transform="translate(-207.536 1362.04)" fill="#24368A"/>
</g>
<g id="Vector">
<use xlink:href="#path36_fill" transform="translate(-199.019 1361.85)" fill="#24368A"/>
</g>
<g id="Vector">
<use xlink:href="#path37_fill" transform="translate(-186.285 1361.86)" fill="#24368A"/>
</g>
<g id="Vector">
<use xlink:href="#path38_fill" transform="translate(-174.176 1362.04)" fill="#24368A"/>
</g>
<g id="Vector">
<use xlink:href="#path39_fill" transform="translate(-169.402 1361.87)" fill="#24368A"/>
</g>
<g id="Vector">
<use xlink:href="#path40_fill" transform="translate(-129.237 1434.25)" fill="#EC6B6B"/>
</g>
<g id="Vector">
<use xlink:href="#path41_fill" transform="translate(-119.902 1434.4)" fill="#EC6B6B"/>
</g>
<g id="Vector">
<use xlink:href="#path42_fill" transform="translate(-112.098 1434.4)" fill="#EC6B6B"/>
</g>
<g id="Vector">
<use xlink:href="#path43_fill" transform="translate(-101.741 1434.4)" fill="#EC6B6B"/>
</g>
<g id="Vector">
<use xlink:href="#path44_fill" transform="translate(-92.6994 1434.38)" fill="#EC6B6B"/>
</g>
<g id="Vector">
<use xlink:href="#path45_fill" transform="translate(-84.7512 1434.36)" fill="#EC6B6B"/>
</g>
<g id="Vector">
<use xlink:href="#path46_fill" transform="translate(-73.8849 1434.4)" fill="#EC6B6B"/>
</g>
<g id="Vector">
<use xlink:href="#path47_fill" transform="translate(-66.0129 1434.4)" fill="#EC6B6B"/>
</g>
<g id="Vector">
<use xlink:href="#path48_fill" transform="translate(-62.3176 1434.4)" fill="#EC6B6B"/>
</g>
<g id="Vector">
<use xlink:href="#path49_fill" transform="translate(-53.3293 1434.4)" fill="#EC6B6B"/>
</g>
<g id="Vector">
<use xlink:href="#path50_fill" transform="translate(-45.5246 1434.39)" fill="#EC6B6B"/>
</g>
<g id="Vector">
<use xlink:href="#path51_fill" transform="translate(-207.154 1384.35)" fill="#222222"/>
</g>
<g id="Vector">
<use xlink:href="#path52_fill" transform="translate(-197.241 1387.48)" fill="#222222"/>
</g>
<g id="Vector">
<use xlink:href="#path53_fill" transform="translate(-187.646 1387.47)" fill="#222222"/>
</g>
<g id="Vector">
<use xlink:href="#path54_fill" transform="translate(-179.785 1385.35)" fill="#222222"/>
</g>
<g id="Vector">
<use xlink:href="#path55_fill" transform="translate(-168.333 1384.18)" fill="#222222"/>
</g>
<g id="Vector">
<use xlink:href="#path56_fill" transform="translate(-158.464 1387.48)" fill="#222222"/>
</g>
<g id="Vector">
<use xlink:href="#path57_fill" transform="translate(-148.021 1387.48)" fill="#222222"/>
</g>
<g id="Vector">
<use xlink:href="#path58_fill" transform="translate(-142.616 1387.67)" fill="#222222"/>
</g>
<g id="Vector">
<use xlink:href="#path59_fill" transform="translate(-132.878 1384.17)" fill="#222222"/>
</g>
<g id="Vector">
<use xlink:href="#path60_fill" transform="translate(-129.249 1387.47)" fill="#222222"/>
</g>
<g id="Vector">
<use xlink:href="#path61_fill" transform="translate(-120.697 1387.48)" fill="#222222"/>
</g>
<g id="Vector">
<use xlink:href="#path62_fill" transform="translate(-224.748 1422.87)" fill="#EC6B6B"/>
</g>
<g id="Vector">
<use xlink:href="#path63_fill" transform="translate(-225 1652.81)" fill="#8BC34A"/>
</g>
<g id="Vector">
<use xlink:href="#path64_fill" transform="matrix(0.942436 -0.334386 0.334386 0.942436 -41.3406 1560.98)" fill="#24368A"/>
</g>
<g id="Vector">
<use xlink:href="#path65_fill" transform="translate(-135.049 1611.7)" fill="#24368A"/>
</g>
<g id="Vector">
<use xlink:href="#path66_fill" transform="translate(-124.126 1611.72)" fill="#24368A"/>
</g>
<g id="Vector">
<use xlink:href="#path67_fill" transform="translate(-115.472 1611.53)" fill="#24368A"/>
</g>
<g id="Vector">
<use xlink:href="#path68_fill" transform="translate(-102.532 1611.56)" fill="#24368A"/>
</g>
<g id="Vector">
<use xlink:href="#path69_fill" transform="translate(-91.6412 1611.72)" fill="#24368A"/>
</g>
<g id="Vector">
<use xlink:href="#path70_fill" transform="translate(-81.3766 1611.56)" fill="#24368A"/>
</g>
<g id="Vector">
<use xlink:href="#path71_fill" transform="translate(-70.486 1611.72)" fill="#24368A"/>
</g>
<g id="Vector">
<use xlink:href="#path72_fill" transform="translate(-59.5075 1611.68)" fill="#24368A"/>
</g>
<g id="Vector">
<use xlink:href="#path73_fill" transform="translate(-46.8288 1611.72)" fill="#24368A"/>
</g>
<g id="Vector">
<use xlink:href="#path74_fill" transform="translate(-41.447 1611.72)" fill="#24368A"/>
</g>
<g id="Vector">
<use xlink:href="#path75_fill" transform="translate(-167.552 1632.61)" fill="#24368A"/>
</g>
<g id="Vector">
<use xlink:href="#path76_fill" transform="translate(-155.518 1632.63)" fill="#24368A"/>
</g>
<g id="Vector">
<use xlink:href="#path77_fill" transform="translate(-150.85 1632.45)" fill="#24368A"/>
</g>
<g id="Vector">
<use xlink:href="#path78_fill" transform="translate(-142.317 1632.63)" fill="#24368A"/>
</g>
<g id="Vector">
<use xlink:href="#path79_fill" transform="translate(-131.766 1632.61)" fill="#24368A"/>
</g>
<g id="Vector">
<use xlink:href="#path80_fill" transform="translate(-121.034 1632.63)" fill="#24368A"/>
</g>
<g id="Vector">
<use xlink:href="#path81_fill" transform="translate(-115.651 1632.61)" fill="#24368A"/>
</g>
<g id="Vector">
<use xlink:href="#path82_fill" transform="translate(-104.814 1632.63)" fill="#24368A"/>
</g>
<g id="Vector">
<use xlink:href="#path83_fill" transform="translate(-93.5749 1632.63)" fill="#24368A"/>
</g>
<g id="Vector">
<use xlink:href="#path84_fill" transform="translate(-83.0241 1632.63)" fill="#24368A"/>
</g>
<g id="Vector">
<use xlink:href="#path85_fill" transform="translate(-73.9196 1632.61)" fill="#24368A"/>
</g>
<g id="Vector">
<use xlink:href="#path86_fill" transform="translate(-57.6619 1632.63)" fill="#24368A"/>
</g>
<g id="Vector">
<use xlink:href="#path87_fill" transform="translate(-48.4763 1632.63)" fill="#24368A"/>
</g>
<g id="Vector">
<use xlink:href="#path88_fill" transform="translate(-39.3718 1632.61)" fill="#24368A"/>
</g>
<g id="Vector">
<use xlink:href="#path89_fill" transform="translate(-27.8677 1632.45)" fill="#24368A"/>
</g>
<g id="Vector">
<use xlink:href="#path90_fill" transform="translate(-15.5641 1632.63)" fill="#24368A"/>
</g>
<g id="Vector">
<use xlink:href="#path91_fill" transform="translate(-6.45868 1632.61)" fill="#24368A"/>
</g>
<g id="Vector">
<use xlink:href="#path92_fill" transform="matrix(0.308327 -0.95128 0.95128 0.308327 -190.057 1580.45)" fill="#24368A"/>
</g>
<g id="Vector">
<use xlink:href="#path93_fill" transform="matrix(0.89663 -0.44278 0.44278 0.89663 -29.2708 1591.04)" fill="#24368A"/>
</g>
<g id="Vector">
<use xlink:href="#path94_fill" transform="translate(6.75267 1560.95)" fill="#1D8CEB"/>
</g>
<g id="Vector">
<use xlink:href="#path95_fill" transform="translate(-198.948 1563.67)" fill="#1D8CEB"/>
</g>
<g id="Vector">
<use xlink:href="#path96_fill" transform="matrix(0.103499 -0.99463 0.99463 0.103499 -89.1233 1593.13)" fill="#24368A"/>
</g>
<g id="Vector">
<use xlink:href="#path97_fill" transform="matrix(0.235637 -0.971841 0.971841 0.235637 -146.865 1592.99)" fill="#24368A"/>
</g>
<g id="Vector">
<use xlink:href="#path98_fill" transform="matrix(0.547756 -0.836638 0.836638 0.547756 -138.715 1563.6)" fill="#24368A"/>
</g>
<g id="Vector">
<use xlink:href="#path99_fill" transform="matrix(0.807975 -0.589216 0.589216 0.807975 -88.5151 1594.05)" fill="#24368A"/>
</g>
<g id="Vector">
<use xlink:href="#path100_fill" transform="matrix(0.033 -0.99946 0.99946 0.033 -145.453 1594.85)" fill="#24368A"/>
</g>
<g id="Vector">
<use xlink:href="#path101_fill" transform="matrix(0.998807 -0.0488334 0.0488334 0.998807 -87.7083 1593.76)" fill="#24368A"/>
</g>
<g id="Vector">
<use xlink:href="#path102_fill" transform="translate(-96.9884 1585.9)" fill="#1D8CEB"/>
</g>
<g id="Vector">
<use xlink:href="#path103_fill" transform="translate(-154.759 1583.99)" fill="#1D8CEB"/>
</g>
<g id="Vector">
<use xlink:href="#path104_fill" transform="translate(-49.2793 1551.12)" fill="#1D8CEB"/>
</g>
<g id="Vector">
<use xlink:href="#path105_fill" transform="translate(-93.0358 1546.03)" fill="#1D8CEB"/>
</g>
<g id="Vector">
<use xlink:href="#path106_fill" transform="translate(-147.246 1552.99)" fill="#1D8CEB"/>
</g>
<g id="Vector">
<use xlink:href="#path107_fill" transform="translate(-37.9586 1583.03)" fill="#1D8CEB"/>
</g>
<g id="Vector">
<use xlink:href="#path108_fill" transform="translate(-138.316 1664.33)" fill="#FFFFFF"/>
</g>
<g id="Vector">
<use xlink:href="#path109_fill" transform="translate(-128 1664.34)" fill="#FFFFFF"/>
</g>
<g id="Vector">
<use xlink:href="#path110_fill" transform="translate(-120.651 1664.2)" fill="#FFFFFF"/>
</g>
<g id="Vector">
<use xlink:href="#path111_fill" transform="translate(-111.316 1664.34)" fill="#FFFFFF"/>
</g>
<g id="Vector">
<use xlink:href="#path112_fill" transform="translate(-103.512 1664.34)" fill="#FFFFFF"/>
</g>
<g id="Vector">
<use xlink:href="#path113_fill" transform="translate(-93.1548 1664.34)" fill="#FFFFFF"/>
</g>
<g id="Vector">
<use xlink:href="#path114_fill" transform="translate(-84.1128 1664.33)" fill="#FFFFFF"/>
</g>
<g id="Vector">
<use xlink:href="#path115_fill" transform="translate(-76.1656 1664.3)" fill="#FFFFFF"/>
</g>
<g id="Vector">
<use xlink:href="#path116_fill" transform="translate(-65.2984 1664.34)" fill="#FFFFFF"/>
</g>
<g id="Vector">
<use xlink:href="#path117_fill" transform="translate(-57.4263 1664.34)" fill="#FFFFFF"/>
</g>
<g id="Vector">
<use xlink:href="#path118_fill" transform="translate(-53.7319 1664.34)" fill="#FFFFFF"/>
</g>
<g id="Vector">
<use xlink:href="#path119_fill" transform="translate(-44.7427 1664.34)" fill="#FFFFFF"/>
</g>
<g id="Vector">
<use xlink:href="#path120_fill" transform="translate(-36.938 1664.33)" fill="#FFFFFF"/>
</g>
</g>
</g>
<defs>
<path id="path0_fill" d="M 7.50001 7.5L 1.41602e-05 7.5L 1.41602e-05 4.5L 4.50001 4.5L 4.50001 1.83105e-06L 7.50001 1.83105e-06L 7.50001 7.5Z"/>
<path id="path1_fill" d="M 244.695 3L 233.043 3L 233.043 -1.875e-06L 244.695 -1.875e-06L 244.695 3ZM 221.391 3L 209.739 3L 209.739 -1.875e-06L 221.391 -1.875e-06L 221.391 3ZM 198.087 3L 186.435 3L 186.435 -1.875e-06L 198.087 -1.875e-06L 198.087 3ZM 174.782 3L 163.13 3L 163.13 -1.875e-06L 174.782 -1.875e-06L 174.782 3ZM 151.478 3L 139.826 3L 139.826 -1.875e-06L 151.478 -1.875e-06L 151.478 3L 151.478 3ZM 128.174 3L 116.521 3L 116.521 -1.875e-06L 128.174 -1.875e-06L 128.174 3ZM 104.869 3L 93.2168 3L 93.2168 -1.875e-06L 104.869 -1.875e-06L 104.869 3ZM 81.5644 3L 69.9131 3L 69.9131 -1.875e-06L 81.5645 -1.875e-06L 81.5645 3L 81.5644 3ZM 58.2607 3L 46.6084 3L 46.6084 -1.875e-06L 58.2607 -1.875e-06L 58.2607 3L 58.2607 3ZM 34.956 3L 23.3037 3L 23.3037 -1.875e-06L 34.9561 -1.875e-06L 34.9561 3L 34.956 3ZM 11.6523 3L -3.19824e-07 3L -3.19824e-07 -1.875e-06L 11.6523 -1.875e-06L 11.6523 3L 11.6523 3Z"/>
<path id="path2_fill" d="M 7.5 7.5L 4.05312e-09 7.5L 4.05312e-09 1.83105e-06L 3 1.83105e-06L 3 4.5L 7.5 4.5L 7.5 7.5Z"/>
<path id="path3_fill" d="M 3 30.8731L -4.86374e-10 30.8731L -4.86374e-10 20.582L 3 20.582L 3 30.873L 3 30.8731ZM 3 10.2911L -4.86374e-10 10.2911L -4.86374e-10 3.66211e-07L 3 3.66211e-07L 3 10.291L 3 10.2911Z"/>
<path id="path4_fill" d="M 3 7.5L 4.05312e-09 7.5L 4.05312e-09 0L 7.5 0L 7.5 3L 3 3L 3 7.5Z"/>
<path id="path5_fill" d="M 244.695 3L 233.043 3L 233.043 0L 244.695 0L 244.695 3ZM 221.392 3L 209.739 3L 209.739 0L 221.392 0L 221.392 3ZM 198.087 3L 186.435 3L 186.435 0L 198.087 0L 198.087 3ZM 174.782 3L 163.131 3L 163.131 0L 174.782 0L 174.782 3ZM 151.479 3L 139.826 3L 139.826 0L 151.479 0L 151.479 3ZM 128.174 3L 116.521 3L 116.521 0L 128.174 0L 128.174 3ZM 104.869 3L 93.2178 3L 93.2178 0L 104.869 0L 104.869 3ZM 81.5654 3L 69.9131 3L 69.9131 0L 81.5654 0L 81.5654 3ZM 58.2607 3L 46.6084 3L 46.6084 0L 58.2607 0L 58.2607 3ZM 34.9561 3L 23.3047 3L 23.3047 0L 34.9561 0L 34.9561 3ZM 11.6523 3L -3.19824e-07 3L -3.19824e-07 0L 11.6523 0L 11.6523 3Z"/>
<path id="path6_fill" d="M 7.50001 7.5L 4.50001 7.5L 4.50001 3L 1.41602e-05 3L 1.41602e-05 0L 7.50001 0L 7.50001 7.5Z"/>
<path id="path7_fill" d="M 3 30.8731L -1.69922e-06 30.8731L -1.69922e-06 20.582L 3 20.582L 3 30.873L 3 30.8731ZM 3 10.2911L -1.69922e-06 10.2911L -1.69922e-06 3.66211e-07L 3 3.66211e-07L 3 10.291L 3 10.2911Z"/>
<path id="path8_fill" d="M 9.38041 -9.375e-07L 9.38041 7.39063C 9.39779 8.16806 9.2019 8.93541 8.814 9.60938C 8.42949 10.2513 7.8586 10.7609 7.17731 11.0703C 6.3819 11.426 5.5171 11.5994 4.64606 11.5781C 3.40272 11.6557 2.17727 11.2514 1.22419 10.4492C 0.811773 10.0514 0.48955 9.56968 0.279291 9.03663C 0.0690311 8.50358 -0.0243667 7.93161 0.0054087 7.35937L 0.0054087 -9.375e-07L 2.41947 -9.375e-07L 2.41947 6.99221C 2.36234 7.6805 2.55052 8.36682 2.95072 8.92971C 3.18107 9.15442 3.45774 9.32608 3.76137 9.43269C 4.065 9.5393 4.38826 9.57828 4.70853 9.5469C 5.02364 9.57599 5.3413 9.53543 5.63899 9.4281C 5.93669 9.32077 6.20714 9.14929 6.43119 8.92581C 6.83392 8.35954 7.02348 7.66912 6.96635 6.97659L 6.96635 -9.375e-07L 9.38041 -9.375e-07Z"/>
<path id="path9_fill" d="M 7.44531 8.42146C 7.46514 8.88676 7.37461 9.35015 7.18112 9.77378C 6.98764 10.1974 6.69669 10.5693 6.33203 10.859C 5.43172 11.5014 4.33839 11.8157 3.23437 11.7496C 2.11776 11.7718 1.01103 11.5366 -3.52173e-07 11.0621L -3.52173e-07 8.81209C 0.632292 9.10517 1.28664 9.34811 1.957 9.53865C 2.43426 9.67128 2.92655 9.74217 3.42184 9.74959C 3.85107 9.77666 4.27816 9.67023 4.6445 9.4449C 4.78593 9.34181 4.89908 9.20473 4.9735 9.04633C 5.04793 8.88793 5.08121 8.71332 5.07028 8.53865C 5.07327 8.32451 5.00755 8.11505 4.88278 7.94099C 4.7307 7.74153 4.54417 7.57087 4.332 7.43708C 3.85404 7.15056 3.35971 6.89231 2.85153 6.66364C 2.2889 6.41877 1.76093 6.10094 1.28122 5.71833C 0.937705 5.42345 0.653933 5.06542 0.44528 4.66364C 0.228931 4.22706 0.1217 3.74451 0.13278 3.25739C 0.111293 2.80821 0.192674 2.36005 0.370716 1.9471C 0.548757 1.53415 0.818756 1.16732 1.16012 0.87458C 1.97247 0.255008 2.98007 -0.0526807 3.99996 0.00739081C 4.57305 0.00480794 5.14411 0.0756984 5.69918 0.21833C 6.2773 0.372824 6.84275 0.57132 7.39059 0.81208L 6.60934 2.69489C 6.11825 2.48539 5.61311 2.31048 5.09762 2.17145C 4.71318 2.07439 4.31834 2.02454 3.92184 2.02301C 3.543 1.99778 3.16798 2.11168 2.86715 2.34332C 2.7473 2.44631 2.65209 2.57488 2.58854 2.71955C 2.52499 2.86423 2.49472 3.02133 2.49996 3.17926C 2.49546 3.37577 2.54694 3.5695 2.6484 3.73785C 2.77282 3.92217 2.93368 4.07904 3.12106 4.19879C 3.61638 4.49604 4.12902 4.76344 4.65622 4.99957C 5.49244 5.34279 6.24219 5.86708 6.85153 6.53473C 7.25714 7.07839 7.46646 7.74349 7.44531 8.42146Z"/>
<path id="path10_fill" d="M 6.57813 11.4219L -1.07422e-06 11.4219L -1.07422e-06 -9.375e-07L 6.57813 -9.375e-07L 6.57813 1.98438L 2.42188 1.98438L 2.42188 4.49221L 6.28907 4.49221L 6.28907 6.47659L 2.42188 6.47659L 2.42188 9.4219L 6.57813 9.4219L 6.57813 11.4219L 6.57813 11.4219Z"/>
<path id="path11_fill" d="M 2.42187 7.05523L 2.42187 11.438L 2.40479e-07 11.438L 2.40479e-07 0.0161653L 3.32813 0.0161653C 4.53751 -0.0751121 5.74447 0.22184 6.77344 0.863825C 7.15375 1.17075 7.45403 1.56525 7.64859 2.01355C 7.84316 2.46186 7.92622 2.95063 7.89066 3.43804C 7.90032 4.07936 7.70609 4.7072 7.33597 5.23104C 6.93603 5.77816 6.39256 6.20401 5.76566 6.46148C 7.48441 9.02935 8.60421 10.6882 9.12504 11.438L 6.43754 11.438L 3.71098 7.05523L 2.42187 7.05523ZM 2.42187 5.08648L 3.20312 5.08648C 3.79368 5.12974 4.38377 4.9965 4.89843 4.70367C 5.08387 4.56572 5.23131 4.383 5.32695 4.1726C 5.42259 3.96219 5.46331 3.73097 5.44531 3.50055C 5.46539 3.27533 5.42405 3.04888 5.32569 2.84528C 5.22733 2.64169 5.07563 2.46855 4.88672 2.3443C 4.35034 2.07901 3.7533 1.96042 3.15625 2.00055L 2.42187 2.00055L 2.42187 5.08648Z"/>
<path id="path12_fill" d="M 8.3313e-07 11.4219L 8.3313e-07 1.09375e-06L 2.42185 1.09375e-06L 2.42185 11.4219L 8.3313e-07 11.4219Z"/>
<path id="path13_fill" d="M 10.1328 11.4219L 7.05471 11.4219L 2.086 2.78125L 2.01565 2.78125C 2.11428 4.30762 2.16376 5.39616 2.16409 6.04688L 2.16409 11.4219L -8.69751e-07 11.4219L -8.69751e-07 1.09375e-06L 3.05469 1.09375e-06L 8.01563 8.55469L 8.07032 8.55469C 7.99219 7.07032 7.95313 6.02084 7.95313 5.40625L 7.95313 1.09375e-06L 10.1328 1.09375e-06L 10.1328 11.4219L 10.1328 11.4219Z"/>
<path id="path14_fill" d="M 5.52344 11.4219L 3.10156 11.4219L 3.10156 2.01563L -1.07422e-06 2.01563L -1.07422e-06 1.09375e-06L 8.625 1.09375e-06L 8.625 2.01563L 5.52344 2.01563L 5.52344 11.4219Z"/>
<path id="path15_fill" d="M 6.57813 11.4219L 1.42578e-06 11.4219L 1.42578e-06 1.09375e-06L 6.57813 1.09375e-06L 6.57813 1.98438L 2.42188 1.98438L 2.42188 4.49219L 6.28907 4.49219L 6.28907 6.47657L 2.42188 6.47657L 2.42188 9.42188L 6.57813 9.42188L 6.57813 11.4219Z"/>
<path id="path16_fill" d="M 2.42188 7.05523L 2.42188 11.438L -1.07422e-06 11.438L -1.07422e-06 0.0161673L 3.32813 0.0161673C 4.53751 -0.0751101 5.74447 0.221842 6.77344 0.863827C 7.37363 1.40442 7.76034 2.14211 7.86353 2.94324C 7.96672 3.74438 7.77955 4.55598 7.33594 5.23101C 6.936 5.77815 6.39252 6.20401 5.7656 6.46148C 7.48435 9.02935 8.60415 10.6882 9.12498 11.438L 6.4375 11.438L 3.71094 7.05523L 2.42188 7.05523ZM 2.42188 5.08648L 3.20313 5.08648C 3.79369 5.12974 4.38378 4.9965 4.89844 4.70367C 5.08388 4.56572 5.23132 4.383 5.32696 4.1726C 5.4226 3.96219 5.46332 3.73097 5.44532 3.50055C 5.4654 3.27533 5.42406 3.04888 5.3257 2.84528C 5.22734 2.64169 5.07564 2.46855 4.88673 2.3443C 4.35035 2.07901 3.75331 1.96042 3.15626 2.00055L 2.42188 2.00055L 2.42188 5.08649L 2.42188 5.08648Z"/>
<path id="path17_fill" d="M 2.38281 11.4219L -1.07422e-06 11.4219L -1.07422e-06 1.09375e-06L 6.54688 1.09375e-06L 6.54688 1.98438L 2.38281 1.98438L 2.38281 4.92969L 6.25781 4.92969L 6.25781 6.90625L 2.38281 6.90625L 2.38281 11.4219Z"/>
<path id="path18_fill" d="M 8.42969 11.4688L 7.60157 8.75L 3.4375 8.75L 2.60935 11.4688L -1.07422e-06 11.4688L 4.03125 -9.15527e-08L 6.99219 -9.15527e-08L 11.0391 11.4688L 8.42969 11.4688ZM 7.02344 6.71875C 6.25781 4.25537 5.82681 2.86214 5.73044 2.53906C 5.63376 2.21631 5.56544 1.96094 5.52344 1.77344C 5.35156 2.44043 4.85938 4.08887 4.04688 6.71875L 7.02344 6.71875Z"/>
<path id="path19_fill" d="M 5.37366 2.01717C 4.96314 1.99869 4.5545 2.08297 4.1848 2.26237C 3.81509 2.44177 3.496 2.71061 3.25647 3.04451C 2.70986 3.89556 2.44727 4.89806 2.50647 5.90779C 2.50647 8.45466 3.4622 9.7281 5.37366 9.7281C 6.37154 9.68961 7.35617 9.48635 8.28772 9.12654L 8.28772 11.1578C 7.29018 11.5599 6.22251 11.7591 5.1471 11.7437C 4.43934 11.7897 3.73018 11.678 3.07087 11.4166C 2.41155 11.1551 1.81852 10.7505 1.3346 10.232C 0.379567 8.99503 -0.0900408 7.45144 0.014287 5.89217C -0.00952034 4.81605 0.212247 3.74866 0.662732 2.77108C 1.06253 1.91403 1.71202 1.19782 2.52601 0.716388C 3.39312 0.224963 4.37727 -0.0220861 5.37367 0.00154852C 6.5347 0.0139518 7.67786 0.28906 8.71742 0.80624L 7.93616 2.77499C 7.51633 2.57488 7.08602 2.39754 6.6471 2.24374C 6.23844 2.09694 5.80788 2.02033 5.37366 2.01717Z"/>
<path id="path20_fill" d="M 6.57812 11.4219L 1.55518e-06 11.4219L 1.55518e-06 1.09375e-06L 6.57813 1.09375e-06L 6.57813 1.98438L 2.42187 1.98438L 2.42187 4.49219L 6.28906 4.49219L 6.28906 6.47657L 2.42187 6.47657L 2.42187 9.42188L 6.57812 9.42188L 6.57812 11.4219Z"/>
<path id="path21_fill" d="M 3 3.125e-06L 0 3.125e-06L 0 69.4824L 3 69.4824L 3 3.125e-06Z"/>
<path id="path22_fill" d="M 3 3.25439e-06L -3.68652e-06 3.25439e-06L -3.68652e-06 129.482L 3 129.482L 3 3.25439e-06Z"/>
<path id="path23_fill" d="M 29.0318 58.0637C 45.0657 58.0637 58.0637 45.0657 58.0637 29.0318C 58.0637 12.998 45.0657 -3.40576e-06 29.0318 -3.40576e-06C 12.998 -3.40576e-06 0 12.998 0 29.0318C 0 45.0657 12.998 58.0637 29.0318 58.0637Z"/>
<path id="path24_fill" d="M 9.78909 13.3184L 8.82718 10.1611L 3.99217 10.1611L 3.03028 13.3184L 1.67969e-06 13.3184L 4.68164 -6.25e-07L 8.12012 -6.25e-07L 12.8193 13.3184L 9.78906 13.3184L 9.78909 13.3184ZM 8.15628 7.80273C 7.26664 4.9414 6.76597 3.32356 6.65428 2.94922C 6.54295 2.57422 6.46287 2.27767 6.41405 2.05957C 6.21483 2.83398 5.64321 4.74837 4.69921 7.80273L 8.15621 7.80273L 8.15628 7.80273Z"/>
<path id="path25_fill" d="M 9.16304 4.1502C 9.20223 4.76179 9.10219 5.3743 8.87046 5.94163C 8.63872 6.50896 8.28132 7.01634 7.82515 7.42559C 6.73262 8.2457 5.38273 8.64787 4.0195 8.55938L 2.8125 8.55938L 2.8125 13.2772L 3.96484e-06 13.2772L 3.96484e-06 0.0134834L 4.23729 0.0134834C 5.54417 -0.077053 6.84178 0.29034 7.90722 1.05255C 8.3397 1.43829 8.67786 1.91818 8.89559 2.45524C 9.11332 2.9923 9.20481 3.57219 9.16304 4.1502ZM 2.81246 6.25567L 3.73824 6.25567C 4.42447 6.30637 5.10792 6.12588 5.67965 5.74298C 5.89694 5.56254 6.06858 5.33334 6.18058 5.07405C 6.29257 4.81475 6.34177 4.53269 6.32418 4.25079C 6.34635 3.98261 6.3095 3.71283 6.21621 3.46043C 6.12291 3.20803 5.97545 2.97914 5.78418 2.78985C 5.29448 2.43559 4.69415 2.26827 4.0918 2.31817L 2.8125 2.31817L 2.8125 6.25567L 2.81246 6.25567Z"/>
<path id="path26_fill" d="M 5.63477e-06 13.2637L 5.63477e-06 -3.125e-06L 2.81251 -3.125e-06L 2.81251 13.2637L 5.63477e-06 13.2637Z"/>
<path id="path27_fill" d="M 283 91.2568L -4.86352e-10 91.2568L -4.86352e-10 -3.125e-07L 283 -3.125e-07L 283 91.2568ZM 3 88.2568L 280 88.2568L 280 3L 3 3L 3 88.2568Z"/>
<path id="path28_fill" d="M -7.32422e-09 0.0177354L 3.55469 0.0177354C 4.77106 -0.0699681 5.98878 0.16872 7.08203 0.709142C 7.44565 0.943335 7.73947 1.27116 7.93262 1.65815C 8.12578 2.04513 8.21112 2.47699 8.17969 2.90836C 8.20488 3.50542 8.03634 4.09462 7.69922 4.58805C 7.55029 4.79869 7.36041 4.97713 7.14093 5.11271C 6.92146 5.24828 6.6769 5.33821 6.42188 5.37711L 6.42188 5.45525C 7.03823 5.55292 7.59641 5.87585 7.98829 6.3615C 8.33163 6.8842 8.49989 7.50252 8.46876 8.12713C 8.49045 8.59425 8.39917 9.05972 8.20264 9.48404C 8.00612 9.90837 7.71015 10.279 7.33985 10.5646C 6.44449 11.1913 5.36471 11.4995 4.27344 11.4396L -7.32422e-09 11.4396L -7.32422e-09 0.0177354ZM 2.42188 4.54117L 3.82812 4.54117C 4.32283 4.57936 4.81801 4.47354 5.2539 4.23649C 5.40673 4.11956 5.52739 3.96577 5.60459 3.78951C 5.68179 3.61325 5.713 3.42028 5.69531 3.22867C 5.71012 3.04267 5.67305 2.8562 5.58823 2.69001C 5.50341 2.52381 5.37415 2.3844 5.21484 2.28727C 4.74067 2.06502 4.2178 1.9669 3.69531 2.00211L 2.42187 2.00211L 2.42187 4.54116L 2.42188 4.54117ZM 2.42188 6.46305L 2.42188 9.43961L 4.00001 9.43961C 4.52115 9.48062 5.041 9.34585 5.47657 9.0568C 5.64159 8.91192 5.77058 8.7306 5.85331 8.52718C 5.93603 8.32376 5.97021 8.10387 5.95313 7.88494C 5.95313 6.93718 5.27605 6.46322 3.92188 6.46306L 2.42188 6.46306L 2.42188 6.46305Z"/>
<path id="path29_fill" d="M 9.38041 4.6875e-07L 9.38041 7.39063C 9.39779 8.16806 9.2019 8.9354 8.814 9.60938C 8.42949 10.2513 7.85858 10.7609 7.17728 11.0703C 6.38187 11.426 5.51707 11.5994 4.64603 11.5781C 3.40269 11.6557 2.17725 11.2514 1.22416 10.4492C 0.81175 10.0514 0.489533 9.56968 0.279279 9.03664C 0.0690245 8.50359 -0.024369 7.93162 0.00541027 7.35938L 0.00541027 1.57275e-05L 2.41947 1.57275e-05L 2.41947 6.9922C 2.36234 7.68049 2.55052 8.36681 2.95072 8.9297C 3.18107 9.15441 3.45774 9.32607 3.76137 9.43268C 4.065 9.53929 4.38826 9.57827 4.70853 9.54689C 5.02364 9.57598 5.3413 9.53542 5.639 9.42809C 5.93669 9.32075 6.20714 9.14928 6.43119 8.9258C 6.83392 8.35953 7.02348 7.6691 6.96635 6.97658L 6.96635 1.57275e-05L 9.38041 1.57275e-05L 9.38041 4.6875e-07Z"/>
<path id="path30_fill" d="M 7.44531 8.42146C 7.46514 8.88676 7.37461 9.35016 7.18113 9.77379C 6.98764 10.1974 6.69668 10.5693 6.33203 10.859C 5.43172 11.5014 4.33839 11.8157 3.23437 11.7496C 2.11776 11.7718 1.01103 11.5366 1.17798e-06 11.0621L 1.17798e-06 8.81209C 0.632294 9.10517 1.28664 9.3481 1.957 9.53865C 2.43426 9.67128 2.92655 9.74217 3.42184 9.74959C 3.85107 9.77665 4.27816 9.67022 4.6445 9.4449C 4.78593 9.34181 4.89908 9.20472 4.9735 9.04632C 5.04792 8.88792 5.08121 8.71332 5.07028 8.53865C 5.07327 8.32451 5.00755 8.11505 4.88278 7.94099C 4.7307 7.74153 4.54417 7.57088 4.332 7.43709C 3.85404 7.15057 3.35971 6.8923 2.85153 6.66363C 2.2889 6.41876 1.76094 6.10094 1.28122 5.71834C 0.937706 5.42345 0.653933 5.06541 0.445279 4.66363C 0.228931 4.22705 0.121699 3.74451 0.132779 3.25738C 0.111292 2.8082 0.192672 2.36006 0.370713 1.94711C 0.548755 1.53416 0.818756 1.16733 1.16012 0.874585C 1.97246 0.255013 2.98007 -0.0526889 3.99996 0.00738268C 4.57305 0.00479981 5.14412 0.0757036 5.69918 0.218335C 6.2773 0.372829 6.84275 0.571325 7.39059 0.812085L 6.60934 2.69488C 6.11825 2.48538 5.61311 2.31048 5.09762 2.17145C 4.71318 2.07438 4.31834 2.02454 3.92184 2.02301C 3.543 1.99778 3.16798 2.11168 2.86715 2.34332C 2.7473 2.44631 2.65209 2.57488 2.58854 2.71956C 2.52499 2.86423 2.49472 3.02133 2.49996 3.17926C 2.49546 3.37576 2.54694 3.5695 2.6484 3.73785C 2.77282 3.92217 2.93368 4.07904 3.12106 4.19879C 3.61638 4.49604 4.12902 4.76344 4.65622 4.99957C 5.49244 5.34279 6.24219 5.86708 6.85153 6.53473C 7.25714 7.07838 7.46646 7.74349 7.44531 8.42146Z"/>
<path id="path31_fill" d="M -7.32422e-09 11.4219L -7.32422e-09 4.6875e-07L 2.42187 4.6875e-07L 2.42187 11.4219L -7.32422e-09 11.4219Z"/>
<path id="path32_fill" d="M 10.1328 11.4219L 7.0547 11.4219L 2.08595 2.78127L 2.01563 2.78127C 2.11426 4.30763 2.16374 5.39617 2.16407 6.04689L 2.16407 11.4219L 1.17798e-06 11.4219L 1.17798e-06 4.6875e-07L 3.0547 4.6875e-07L 8.01564 8.55469L 8.07033 8.55469C 7.9922 7.07031 7.95314 6.02084 7.95314 5.40625L 7.95314 4.6875e-07L 10.1328 4.6875e-07L 10.1328 11.4219L 10.1328 11.4219Z"/>
<path id="path33_fill" d="M 6.57813 11.4219L -1.36719e-07 11.4219L -1.36719e-07 4.6875e-07L 6.57813 4.6875e-07L 6.57813 1.98438L 2.42189 1.98438L 2.42189 4.49219L 6.28908 4.49219L 6.28908 6.47656L 2.42189 6.47656L 2.42189 9.42188L 6.57814 9.42188L 6.57814 11.4219L 6.57813 11.4219Z"/>
<path id="path34_fill" d="M 7.44531 8.42146C 7.46514 8.88676 7.37461 9.35016 7.18112 9.77379C 6.98764 10.1974 6.69669 10.5693 6.33203 10.859C 5.43172 11.5014 4.33839 11.8157 3.23437 11.7496C 2.11776 11.7718 1.01103 11.5366 -7.32422e-09 11.0621L -7.32422e-09 8.81209C 0.632292 9.10517 1.28664 9.3481 1.957 9.53865C 2.43426 9.67128 2.92655 9.74217 3.42184 9.74959C 3.85107 9.77665 4.27817 9.67022 4.6445 9.4449C 4.78593 9.34181 4.89908 9.20472 4.9735 9.04632C 5.04792 8.88792 5.08121 8.71332 5.07028 8.53865C 5.07327 8.32451 5.00756 8.11505 4.88278 7.94099C 4.7307 7.74153 4.54417 7.57088 4.332 7.43709C 3.85405 7.15057 3.35971 6.8923 2.85153 6.66363C 2.2889 6.41876 1.76093 6.10094 1.28122 5.71834C 0.937705 5.42345 0.653935 5.06541 0.445282 4.66363C 0.228934 4.22705 0.121702 3.74451 0.132782 3.25738C 0.111295 2.8082 0.192671 2.36006 0.370712 1.94711C 0.548754 1.53416 0.818754 1.16733 1.16012 0.874585C 1.97246 0.255013 2.98008 -0.0526889 3.99996 0.00738268C 4.57306 0.00479981 5.14411 0.0757036 5.69918 0.218335C 6.2773 0.372829 6.84275 0.571325 7.39059 0.812085L 6.60934 2.69488C 6.11825 2.48538 5.61311 2.31048 5.09762 2.17145C 4.71318 2.07438 4.31834 2.02454 3.92184 2.02301C 3.543 1.99778 3.16798 2.11168 2.86715 2.34332C 2.7473 2.44631 2.65209 2.57488 2.58854 2.71956C 2.52499 2.86423 2.49472 3.02133 2.49996 3.17926C 2.49546 3.37576 2.54694 3.5695 2.6484 3.73785C 2.77282 3.92217 2.93368 4.07904 3.12106 4.19879C 3.61639 4.49604 4.12902 4.76344 4.65622 4.99957C 5.49244 5.34279 6.24219 5.86708 6.85153 6.53473C 7.25715 7.07838 7.46647 7.74349 7.44531 8.42146Z"/>
<path id="path35_fill" d="M -7.32422e-09 11.4219L -7.32422e-09 2.5e-06L 2.42188 2.5e-06L 2.42188 9.42188L 7.05469 9.42188L 7.05469 11.4219L -7.32422e-09 11.4219Z"/>
<path id="path36_fill" d="M 10.8897 5.88651C 10.9948 7.4659 10.4916 9.02565 9.48342 10.2459C 8.95891 10.7725 8.32786 11.1809 7.63258 11.4437C 6.9373 11.7064 6.19388 11.8174 5.45217 11.7693C 4.71046 11.8174 3.96703 11.7064 3.27176 11.4437C 2.57648 11.1809 1.94542 10.7725 1.42092 10.2459C 0.411025 9.02045 -0.0920776 7.45524 0.0146673 5.87089C -0.094684 4.29152 0.410563 2.73101 1.42483 1.51543C 1.9547 0.994016 2.58881 0.590486 3.28557 0.331307C 3.98233 0.0721275 4.726 -0.0368586 5.46783 0.0115131C 6.20839 -0.0378549 6.95095 0.0718699 7.6456 0.33329C 8.34025 0.594711 8.97089 1.00178 9.49517 1.52715C 10.4976 2.74997 10.9963 4.3089 10.8897 5.88651ZM 2.55373 5.88651C 2.48262 6.90031 2.73717 7.91033 3.28029 8.76933C 3.53585 9.09568 3.86736 9.35456 4.24592 9.52341C 4.62448 9.69227 5.0386 9.76596 5.45217 9.73808C 7.38479 9.73808 8.35094 8.45422 8.35061 5.88651C 8.35061 3.31376 7.38967 2.02731 5.4678 2.02715C 5.05279 1.99992 4.63739 2.07427 4.25759 2.24375C 3.87778 2.41324 3.54502 2.67273 3.28811 2.99979C 2.74038 3.85851 2.48294 4.87045 2.55373 5.88651Z"/>
<path id="path37_fill" d="M 4.85805 5.18216L 9.3893 5.18216L 9.3893 11.104C 8.71321 11.3297 8.01936 11.4983 7.31508 11.6079C 6.65677 11.7049 5.99221 11.7532 5.3268 11.7525C 4.59767 11.8012 3.86669 11.6905 3.18468 11.4281C 2.50267 11.1657 1.88601 10.7578 1.37758 10.2329C 0.394563 8.9996 -0.0917072 7.44325 0.0143005 5.86966C -0.0322577 5.08073 0.0841788 4.29068 0.356357 3.54873C 0.628535 2.80678 1.05062 2.12884 1.5963 1.55717C 2.18793 1.02064 2.88062 0.607491 3.63385 0.341885C 4.38707 0.0762783 5.18571 -0.0364574 5.98302 0.010296C 7.14954 0.0092169 8.30375 0.248583 9.37365 0.713436L 8.56896 2.65094C 7.76302 2.24084 6.87168 2.0267 5.9674 2.02594C 5.49638 2.00639 5.02684 2.09073 4.59209 2.27301C 4.15733 2.45528 3.76802 2.73101 3.45178 3.08062C 2.79037 3.87293 2.45272 4.88587 2.50647 5.91656C 2.4394 6.92136 2.70727 7.92005 3.26819 8.7564C 3.53204 9.08506 3.87088 9.34563 4.25627 9.51623C 4.64166 9.68684 5.06235 9.7625 5.48303 9.73687C 5.99995 9.73586 6.51551 9.68351 7.02209 9.58062L 7.02209 7.19778L 4.85805 7.19778L 4.85805 5.18216Z"/>
<path id="path38_fill" d="M 1.17798e-06 11.4219L 1.17798e-06 2.5e-06L 2.42188 2.5e-06L 2.42188 11.4219L 1.17798e-06 11.4219Z"/>
<path id="path39_fill" d="M 5.37367 2.01717C 4.96315 1.9987 4.5545 2.08298 4.18479 2.26238C 3.81508 2.44178 3.496 2.71064 3.25647 3.04455C 2.70986 3.8956 2.44727 4.89809 2.50647 5.90783C 2.50647 8.4547 3.4622 9.72814 5.37366 9.72814C 6.37154 9.68965 7.35618 9.48637 8.28772 9.12655L 8.28772 11.1578C 7.29019 11.5599 6.22251 11.7591 5.1471 11.7437C 4.43934 11.7897 3.73019 11.678 3.07087 11.4166C 2.41155 11.1551 1.81852 10.7505 1.3346 10.232C 0.379568 8.99504 -0.090036 7.45145 0.0142918 5.89217C -0.00951594 4.81606 0.212244 3.74866 0.662729 2.77108C 1.06253 1.91403 1.71201 1.19783 2.52601 0.716393C 3.39312 0.224965 4.37727 -0.0220821 5.37367 0.00154953C 6.5347 0.0139528 7.67786 0.289057 8.71742 0.806237L 7.93617 2.77499C 7.51634 2.57488 7.08603 2.39754 6.64711 2.24374C 6.23845 2.09694 5.80789 2.02033 5.37367 2.01717Z"/>
<path id="path40_fill" d="M 4.68039 1.75621C 4.3228 1.74012 3.96686 1.8136 3.64488 1.96998C 3.3229 2.12637 3.04507 2.36071 2.83664 2.65172C 2.36054 3.3927 2.1318 4.26563 2.18333 5.14488C 2.18333 7.36363 3.01568 8.47268 4.68039 8.47203C 5.54951 8.43875 6.40712 8.26188 7.21849 7.94859L 7.21849 9.71812C 6.34958 10.0679 5.41972 10.2412 4.48314 10.2279C 3.86675 10.2681 3.24913 10.1708 2.67492 9.94313C 2.1007 9.71547 1.58424 9.36311 1.16283 8.91148C 0.330772 7.83406 -0.0784039 6.48948 0.0124395 5.13121C -0.00808592 4.19419 0.184935 3.26479 0.576885 2.41343C 0.925056 1.66679 1.4908 1.04283 2.19989 0.623426C 2.95526 0.195612 3.8125 -0.0193732 4.68036 0.00135593C 5.69146 0.0120419 6.68703 0.251447 7.59246 0.701582L 6.91181 2.41639C 6.54625 2.24232 6.1717 2.08781 5.78974 1.9535C 5.43366 1.82592 5.05863 1.75923 4.68039 1.75621Z"/>
<path id="path41_fill" d="M 5.72949 9.94824L 1.2915e-06 9.94824L 1.2915e-06 -5.625e-06L 5.72949 -5.625e-06L 5.72949 1.72851L 2.10937 1.72851L 2.10937 3.9121L 5.47749 3.9121L 5.47749 5.64062L 2.10933 5.64062L 2.10933 8.20605L 5.72949 8.20605L 5.72949 9.94824Z"/>
<path id="path42_fill" d="M 8.82522 9.94826L 6.14456 9.94826L 1.81644 2.42287L 1.75586 2.42287C 1.8418 3.75197 1.88477 4.69988 1.88477 5.26662L 1.88477 9.94826L -2.24365e-06 9.94826L -2.24365e-06 1.4375e-05L 2.66016 1.4375e-05L 6.98145 7.45119L 7.0293 7.45119C 6.96094 6.15822 6.92676 5.24416 6.92676 4.709L 6.92676 1.4375e-05L 8.8252 1.4375e-05L 8.8252 9.94823L 8.82522 9.94826Z"/>
<path id="path43_fill" d="M 4.81053 9.94824L 2.70117 9.94824L 2.70117 1.75585L 1.21582e-06 1.75585L 1.21582e-06 -5.625e-06L 7.51172 -5.625e-06L 7.51172 1.75585L 4.81055 1.75585L 4.81055 9.94824L 4.81053 9.94824Z"/>
<path id="path44_fill" d="M 2.1094 6.14499L 2.1094 9.96237L -1.85547e-06 9.96237L -1.85547e-06 0.0141323L 2.89841 0.0141323C 3.95183 -0.0655207 5.00316 0.193124 5.8994 0.752414C 6.42185 1.22344 6.75849 1.86588 6.8484 2.56354C 6.93832 3.2612 6.77558 3.96802 6.38963 4.55612C 6.04147 5.03292 5.56784 5.40376 5.02147 5.62741C 6.51854 7.86374 7.4938 9.30873 7.94725 9.96241L 5.6064 9.96241L 3.2324 6.14502L 2.1094 6.14502L 2.1094 6.14499ZM 2.1094 4.43015L 2.79005 4.43015C 3.30434 4.46758 3.81818 4.35169 4.26661 4.09714C 4.42793 3.97686 4.55616 3.8177 4.63933 3.63446C 4.72249 3.45123 4.75789 3.2499 4.74222 3.04929C 4.75973 2.85304 4.72377 2.65572 4.63814 2.47827C 4.55251 2.30083 4.4204 2.14987 4.25587 2.04148C 3.78873 1.81075 3.26888 1.70766 2.74904 1.74265L 2.1094 1.74265L 2.1094 4.43015Z"/>
<path id="path45_fill" d="M 7.34184 9.98926L 6.62113 7.62109L 2.99414 7.62109L 2.27246 9.98926L -5.44434e-06 9.98926L 3.51074 -1.25e-06L 6.08984 -1.25e-06L 9.61425 9.98926L 7.34179 9.98926L 7.34184 9.98926ZM 6.1172 5.85153C 5.4502 3.70602 5.07488 2.49281 4.99121 2.21188C 4.90721 1.93064 4.84698 1.70831 4.81054 1.54489C 4.66113 2.12594 4.23242 3.56149 3.52441 5.85153L 6.1172 5.85153Z"/>
<path id="path46_fill" d="M 1.26953e-06 9.94824L 1.26953e-06 -5.625e-06L 2.10938 -5.625e-06L 2.10938 8.20605L 6.14453 8.20605L 6.14453 9.94824L 1.65283e-05 9.94824L 1.26953e-06 9.94824Z"/>
<path id="path47_fill" d="M 6.84082e-06 9.94824L 6.84082e-06 -5.625e-06L 2.10938 -5.625e-06L 2.10938 9.94824L 6.84082e-06 9.94824Z"/>
<path id="path48_fill" d="M 7.40331 9.94824L -5.91797e-06 9.94824L -5.91797e-06 8.58007L 4.77052 1.74218L 0.129892 1.74218L 0.129892 -5.625e-06L 7.27442 -5.625e-06L 7.27442 1.36132L 2.51075 8.20605L 7.40333 8.20605L 7.40333 9.94824L 7.40331 9.94824Z"/>
<path id="path49_fill" d="M 5.72949 9.94824L -4.66797e-06 9.94824L -4.66797e-06 -5.625e-06L 5.72949 -5.625e-06L 5.72949 1.72851L 2.10937 1.72851L 2.10937 3.9121L 5.47753 3.9121L 5.47753 5.64062L 2.10937 5.64062L 2.10937 8.20605L 5.72949 8.20605L 5.72949 9.94824Z"/>
<path id="path50_fill" d="M 8.25391 4.889C 8.29985 5.57938 8.19898 6.27166 7.95793 6.92022C 7.71689 7.56878 7.34115 8.1589 6.85547 8.6517C 5.72773 9.59063 4.2814 10.0586 2.81739 9.95834L 2.83203e-06 9.95834L 2.83203e-06 0.0100959L 3.123 0.0100959C 4.50416 -0.075593 5.86345 0.386509 6.90621 1.29623C 7.36941 1.76768 7.72866 2.33097 7.96079 2.94979C 8.19292 3.56861 8.29277 4.22922 8.25391 4.889ZM 6.0625 4.94369C 6.0625 2.80697 5.11914 1.73861 3.23242 1.73861L 2.10942 1.73861L 2.10942 8.21615L 3.0147 8.21615C 5.0469 8.21615 6.06282 7.12533 6.0625 4.94369Z"/>
<path id="path51_fill" d="M 6.71387e-07 12.8664L 6.71387e-07 0.0167937L 3.0625 0.0167937C 4.30563 -0.0780805 5.54617 0.230856 6.59961 0.897653C 6.98849 1.21604 7.2953 1.62308 7.49428 2.0846C 7.69327 2.54613 7.77861 3.04866 7.74316 3.55C 7.76858 4.3369 7.52772 5.10937 7.05957 5.74238C 6.5278 6.38699 5.79789 6.83778 4.9834 7.02461L 8.47852 12.8664L 7.40626 12.8664L 4.08692 7.28535L 0.8965 7.28535L 0.8965 12.8664L 6.71387e-07 12.8664ZM 0.896479 6.49433L 3.34863 6.49433C 4.24824 6.55044 5.13954 6.29337 5.87109 5.76679C 6.1769 5.50316 6.41712 5.17195 6.57272 4.79939C 6.72832 4.42682 6.79503 4.02313 6.76757 3.62031C 6.80277 3.21895 6.74135 2.815 6.58844 2.44224C 6.43553 2.06948 6.19558 1.73875 5.88866 1.47773C 5.02755 0.959278 4.02514 0.724903 3.02343 0.807809L 0.89643 0.807809L 0.89643 6.49433L 0.896479 6.49433Z"/>
<path id="path52_fill" d="M 0.00993384 5.03849C -0.0562107 3.72482 0.340534 2.42958 1.13107 1.37833C 1.49307 0.929442 1.95496 0.571344 2.47989 0.332615C 3.00482 0.0938869 3.57828 -0.0188664 4.15451 0.0033306C 4.6615 -0.0194634 5.16691 0.0749222 5.63149 0.279179C 6.09606 0.483436 6.50729 0.792068 6.83323 1.18106C 7.53007 2.097 7.878 3.23114 7.81467 4.38028L 7.81467 5.08341L 0.906474 5.08341C 0.843121 6.16321 1.16956 7.22987 1.82639 8.08927C 2.15282 8.44321 2.55403 8.71995 3.00084 8.89936C 3.44766 9.07876 3.92884 9.15631 4.40939 9.12638C 4.89329 9.13162 5.37668 9.09338 5.85373 9.01212C 6.39338 8.89781 6.9211 8.73302 7.42991 8.51993L 7.42991 9.31092C 6.94901 9.5262 6.44555 9.68703 5.92891 9.79041C 5.42731 9.87881 4.91869 9.92134 4.40937 9.91742C 3.80883 9.9513 3.2081 9.85407 2.64891 9.63248C 2.08971 9.41089 1.58543 9.07025 1.17109 8.63422C 0.343915 7.62525 -0.0709055 6.34068 0.00993384 5.03849ZM 0.959154 4.29239L 6.87415 4.29239C 6.92818 3.37868 6.67406 2.47326 6.15247 1.7211C 5.91796 1.41795 5.61408 1.17556 5.2664 1.01429C 4.91871 0.853014 4.53738 0.777581 4.15447 0.794346C 3.74189 0.776818 3.33035 0.84814 2.94772 1.00348C 2.56509 1.15883 2.22031 1.39456 1.9367 1.69474C 1.32731 2.42564 0.98282 3.34106 0.959154 4.29239Z"/>
<path id="path53_fill" d="M 8.00781e-07 9.34518L 8.00781e-07 8.40866C 0.9426 8.88559 1.98462 9.13287 3.041 9.13034C 3.78612 9.17719 4.52944 9.01411 5.18651 8.65963C 5.40931 8.53467 5.59468 8.35245 5.72344 8.13183C 5.85221 7.91121 5.9197 7.6602 5.91893 7.40475C 5.92086 7.17096 5.86922 6.93984 5.76799 6.72909C 5.66677 6.51834 5.51863 6.33356 5.33493 6.18893C 4.75536 5.76044 4.10758 5.43292 3.41893 5.22018C 2.71914 4.98936 2.04396 4.68972 1.40331 4.32565C 1.05036 4.1126 0.748891 3.82414 0.520501 3.48092C 0.313687 3.13405 0.210658 2.73515 0.22363 2.33151C 0.215756 1.99446 0.294822 1.66108 0.45321 1.36346C 0.611597 1.06584 0.843968 0.814026 1.12793 0.63229C 1.88816 0.174062 2.76909 -0.0437893 3.65527 0.0072896C 4.66145 0.00257701 5.65835 0.199829 6.58691 0.587368L 6.26171 1.38037C 5.4395 1.01722 4.55385 0.819456 3.65526 0.798366C 3.01546 0.768101 2.37852 0.901567 1.80467 1.18609C 1.60052 1.28191 1.4278 1.43375 1.3066 1.62393C 1.18541 1.81411 1.12073 2.0348 1.1201 2.26031C 1.11134 2.48734 1.15466 2.71335 1.24675 2.92105C 1.33883 3.12874 1.47723 3.31261 1.65135 3.45855C 2.28588 3.89981 2.98583 4.23858 3.72557 4.46246C 4.37806 4.67932 5.00717 4.961 5.6035 5.30328C 5.95828 5.51643 6.26012 5.80725 6.48631 6.15387C 6.68808 6.49128 6.79001 6.87901 6.78026 7.27203C 6.79805 7.65508 6.7179 8.03633 6.54737 8.37979C 6.37684 8.72324 6.12156 9.01756 5.80565 9.23492C 4.97602 9.74116 4.01108 9.98078 3.041 9.92144C 1.9963 9.96865 0.955004 9.77132 8.00781e-07 9.34518Z"/>
<path id="path54_fill" d="M -1.07422e-06 3.06741L -1.07422e-06 2.5664L 1.40625 2.1621L 1.85449 -4.89258e-06L 2.30273 -4.89258e-06L 2.30273 2.31152L 5.09765 2.31152L 5.09765 3.06738L 2.30274 3.06738L 2.30274 9.10156C 2.26053 9.66925 2.39565 10.236 2.68946 10.7236C 2.8328 10.9043 3.01846 11.0468 3.23001 11.1386C 3.44157 11.2304 3.67249 11.2687 3.90235 11.25C 4.38649 11.2565 4.86988 11.2097 5.34376 11.1103L 5.34376 11.8252C 4.87262 11.9769 4.37966 12.0498 3.88476 12.041C 3.54241 12.0694 3.19797 12.0236 2.87491 11.9068C 2.55185 11.79 2.25776 11.605 2.01269 11.3643C 1.55807 10.7529 1.34241 9.99645 1.40624 9.23724L 1.40624 3.06741L -1.07422e-06 3.06741Z"/>
<path id="path55_fill" d="M 1.17798e-06 12.6955L 1.17798e-06 11.799C 1.13012 12.2276 2.33401 12.4277 3.542 12.3879C 4.43636 12.4362 5.32081 12.1809 6.05177 11.6633C 6.34719 11.4432 6.58552 11.1556 6.74678 10.8244C 6.90803 10.4932 6.98751 10.1282 6.97853 9.75995C 6.99492 9.33602 6.88807 8.91641 6.67091 8.55194C 6.41185 8.18421 6.06819 7.88411 5.66891 7.67694C 5.01605 7.33242 4.33364 7.0471 3.62985 6.82441C 2.6252 6.54578 1.69561 6.04594 0.90915 5.36151C 0.391012 4.78967 0.12092 4.03561 0.158151 3.26484C 0.148092 2.81174 0.245186 2.36267 0.44153 1.9542C 0.637873 1.54573 0.927912 1.18941 1.28803 0.914249C 2.12034 0.281394 3.1477 -0.040562 4.19233 0.00409283C 5.3574 -0.00363412 6.51148 0.229772 7.58198 0.68964L 7.26362 1.46308C 6.30025 1.03961 5.2621 0.81252 4.20991 0.795078C 3.40131 0.752517 2.6021 0.984844 1.94233 1.45426C 1.66841 1.66374 1.4488 1.93594 1.30198 2.24796C 1.15515 2.55997 1.08539 2.90267 1.09858 3.24726C 1.08224 3.65285 1.17177 4.0557 1.35835 4.4162C 1.56716 4.7573 1.85872 5.04013 2.20601 5.23847C 2.85065 5.59315 3.52751 5.88582 4.22749 6.11249C 5.0147 6.36031 5.77068 6.69815 6.48042 7.11933C 6.93027 7.39323 7.30587 7.77353 7.57417 8.22675C 7.81545 8.68833 7.93415 9.20412 7.9189 9.72474C 7.9379 10.2124 7.84108 10.6976 7.63636 11.1407C 7.43165 11.5837 7.12487 11.972 6.74117 12.2736C 5.83779 12.9383 4.73245 13.2706 3.61226 13.214C 2.38638 13.2678 1.16124 13.092 1.17798e-06 12.6955Z"/>
<path id="path56_fill" d="M 0.00993874 5.03849C -0.0562201 3.72483 0.340503 2.42959 1.13102 1.37833C 1.49302 0.929442 1.95491 0.571344 2.47984 0.332615C 3.00477 0.0938869 3.57823 -0.0188664 4.15447 0.0033306C 4.66145 -0.0194634 5.16686 0.0749222 5.63144 0.279179C 6.09601 0.483436 6.50725 0.792068 6.83318 1.18106C 7.53002 2.097 7.87795 3.23114 7.81463 4.38028L 7.81463 5.08341L 0.906431 5.08341C 0.843078 6.16321 1.16952 7.22987 1.82634 8.08927C 2.15277 8.44321 2.55398 8.71995 3.0008 8.89936C 3.44761 9.07876 3.92879 9.15631 4.40935 9.12638C 4.89324 9.13162 5.37664 9.09338 5.85369 9.01212C 6.39334 8.89781 6.92105 8.73302 7.42986 8.51993L 7.42986 9.31092C 6.94897 9.5262 6.44551 9.68703 5.92886 9.79041C 5.42726 9.87881 4.91865 9.92134 4.40933 9.91742C 3.80878 9.9513 3.20806 9.85407 2.64886 9.63248C 2.08966 9.41089 1.58539 9.07025 1.17105 8.63422C 0.343888 7.62524 -0.0709146 6.34068 0.00993874 5.03849ZM 0.959157 4.29239L 6.87416 4.29239C 6.92819 3.37868 6.67406 2.47326 6.15248 1.7211C 5.91797 1.41795 5.61409 1.17556 5.2664 1.01429C 4.91871 0.853014 4.53738 0.777581 4.15448 0.794346C 3.74189 0.776818 3.33035 0.84814 2.94772 1.00348C 2.56509 1.15883 2.22031 1.39456 1.9367 1.69474C 1.32731 2.42564 0.982823 3.34106 0.959157 4.29239Z"/>
<path id="path57_fill" d="M 8.00781e-07 9.73967L 8.00781e-07 0.185932L 0.738282 0.185932L 0.820283 1.90078L 0.878869 1.90078C 1.17199 1.31456 1.60335 0.808471 2.13571 0.426166C 2.62257 0.13166 3.18416 -0.0158641 3.7529 0.00136162C 4.18925 0.0043237 4.62451 0.0454667 5.05368 0.124347L 4.88668 0.950519C 4.4822 0.844275 4.06562 0.791093 3.64742 0.792316C 3.2539 0.788397 2.86541 0.881088 2.51604 1.06224C 2.16666 1.2434 1.86706 1.50749 1.64351 1.83138C 1.0999 2.59592 0.824835 3.51899 0.861283 4.45638L 0.861283 9.73958L 8.00781e-07 9.73958L 8.00781e-07 9.73967Z"/>
<path id="path58_fill" d="M 1.86768e-06 8.54492e-06L 0.896479 8.54492e-06L 3.36621 6.50199C 3.65382 7.21449 3.90031 7.9429 4.10449 8.68363L 4.15722 8.68363C 4.39745 7.88578 4.64355 7.15271 4.8955 6.48441L 7.36523 3.90625e-05L 8.26171 3.90625e-05L 4.5703 9.55375L 3.6914 9.55375L 1.86768e-06 8.54492e-06Z"/>
<path id="path59_fill" d="M 3.11768e-06 0.844323C 3.11768e-06 0.281823 0.160159 0.000572483 0.480472 0.000572483C 0.572241 -0.00350149 0.663665 0.0143094 0.747203 0.0525134C 0.830741 0.0907174 0.904 0.148216 0.960941 0.220299C 1.08696 0.403002 1.14785 0.622787 1.13379 0.844292C 1.14608 1.06561 1.08535 1.28486 0.960941 1.46832C 0.905426 1.54255 0.832671 1.60214 0.748958 1.64196C 0.665245 1.68178 0.573094 1.70061 0.480472 1.69683C 0.160159 1.69686 3.11768e-06 1.41268 3.11768e-06 0.844323ZM 0.122997 13.0523L 0.122997 3.49859L 0.861278 3.49859L 0.861278 13.0523L 0.12305 13.0523L 0.122997 13.0523Z"/>
<path id="path60_fill" d="M 0.00995555 5.02424C -0.0720659 3.68578 0.354909 2.36579 1.20527 1.32893C 1.62393 0.882523 2.13496 0.532872 2.7027 0.304328C 3.27043 0.075784 3.8812 -0.0261505 4.49238 0.00568298C 5.30306 0.00287486 6.10738 0.148849 6.86538 0.436347L 6.62808 1.20978C 5.93662 0.959273 5.20984 0.819854 4.47476 0.796699C 3.97746 0.762778 3.47898 0.842985 3.01742 1.0312C 2.55587 1.21941 2.14345 1.51064 1.81167 1.88264C 1.15222 2.78526 0.831722 3.89131 0.906402 5.00666C 0.842408 6.09118 1.16296 7.16351 1.81167 8.03498C 2.12074 8.40005 2.51004 8.68872 2.94913 8.87846C 3.38823 9.06819 3.86524 9.15384 4.34292 9.12873C 5.17159 9.13621 5.99338 8.97783 6.75992 8.66291L 6.75992 9.47147C 6.00401 9.79945 5.18385 9.95267 4.36051 9.91971C 3.76512 9.95226 3.16987 9.85339 2.61697 9.6301C 2.06408 9.40682 1.5671 9.0646 1.16128 8.62772C 0.341276 7.61232 -0.0693933 6.32699 0.00995555 5.02424Z"/>
<path id="path61_fill" d="M 0.0099403 5.03849C -0.0562185 3.72483 0.340505 2.42959 1.13103 1.37833C 1.49303 0.929442 1.95491 0.571344 2.47984 0.332615C 3.00477 0.0938869 3.57822 -0.0188664 4.15446 0.0033306C 4.66145 -0.0194634 5.16686 0.0749222 5.63144 0.279179C 6.09601 0.483436 6.50724 0.792068 6.83317 1.18106C 7.53002 2.097 7.87795 3.23114 7.81463 4.38028L 7.81463 5.08341L 0.906425 5.08341C 0.843072 6.16321 1.16952 7.22987 1.82635 8.08927C 2.15277 8.44321 2.55398 8.71995 3.00079 8.89936C 3.44761 9.07876 3.92879 9.15631 4.40935 9.12638C 4.89324 9.13162 5.37664 9.09338 5.85369 9.01212C 6.39334 8.89781 6.92105 8.73302 7.42985 8.51993L 7.42985 9.31092C 6.94896 9.5262 6.4455 9.68703 5.92885 9.79041C 5.42725 9.87881 4.91864 9.92134 4.40932 9.91742C 3.80878 9.9513 3.20805 9.85407 2.64886 9.63248C 2.08966 9.41089 1.58539 9.07025 1.17105 8.63422C 0.34389 7.62524 -0.070913 6.34068 0.0099403 5.03849ZM 0.959159 4.29239L 6.87416 4.29239C 6.92819 3.37868 6.67407 2.47326 6.15248 1.7211C 5.91797 1.41795 5.61409 1.17556 5.2664 1.01429C 4.91871 0.853014 4.53738 0.777581 4.15448 0.794346C 3.74189 0.776818 3.33035 0.84814 2.94772 1.00348C 2.56509 1.15883 2.22031 1.39456 1.93671 1.69474C 1.3273 2.42564 0.982802 3.34106 0.959129 4.29239L 0.959159 4.29239Z"/>
<path id="path62_fill" d="M 283 33L -4.86352e-10 33L -4.86352e-10 -2.5e-06L 283 -2.5e-06L 283 33ZM 3 30L 280 30L 280 3L 3 3L 3 30Z"/>
<path id="path63_fill" d="M 283 3.4375e-06L 0 3.4375e-06L 0 33L 283 33L 283 3.4375e-06Z"/>
<path id="path64_fill" d="M 3.00102 1.38281e-05L 0 1.38281e-05L 0 33.854L 3.00102 33.854L 3.00102 1.38281e-05Z"/>
<path id="path65_fill" d="M -2.94922e-06 0.0179937L 3.61133 0.0179937C 4.84763 -0.0710882 6.08528 0.171649 7.19633 0.721119C 7.56586 0.958961 7.86446 1.292 8.06071 1.6852C 8.25697 2.0784 8.34362 2.51721 8.31156 2.95549C 8.33684 3.56223 8.16559 4.16091 7.82328 4.66249C 7.67178 4.87635 7.47882 5.05756 7.25585 5.1953C 7.03288 5.33304 6.78448 5.4245 6.52543 5.46425L 6.52543 5.54335C 7.15183 5.64243 7.7191 5.97061 8.11723 6.46425C 8.46562 6.99551 8.63626 7.62372 8.60453 8.25823C 8.62653 8.73278 8.53382 9.20566 8.33424 9.63677C 8.13467 10.0679 7.83412 10.4445 7.45805 10.7348C 6.54816 11.3718 5.45087 11.685 4.34184 11.6244L 4.28271e-05 11.6244L 4.28271e-05 0.0179937L -2.94922e-06 0.0179937ZM 2.46094 4.61467L 3.88965 4.61467C 4.39215 4.65332 4.8951 4.54581 5.33789 4.3051C 5.49352 4.18649 5.61642 4.03021 5.695 3.851C 5.77359 3.67179 5.80529 3.47553 5.78711 3.28069C 5.80207 3.09177 5.76436 2.90241 5.67816 2.73363C 5.59196 2.56485 5.46066 2.42327 5.29883 2.32463C 4.81709 2.09866 4.28579 1.99889 3.75488 2.03466L 2.46094 2.03466L 2.46094 4.61473L 2.46094 4.61467ZM 2.46094 6.5678L 2.46094 9.59221L 4.06446 9.59221C 4.59395 9.63359 5.12205 9.49641 5.56446 9.20256C 5.73233 9.05557 5.86355 8.8714 5.94764 8.66472C 6.03174 8.45804 6.0664 8.23458 6.04884 8.01213C 6.04884 7.04924 5.36069 6.5678 3.98439 6.5678L 2.46094 6.5678Z"/>
<path id="path66_fill" d="M 5.86133e-05 11.6064L 5.86133e-05 -3.75e-06L 2.461 -3.75e-06L 2.461 9.57421L 7.168 9.57421L 7.168 11.6064L -2.42188e-06 11.6064L 5.86133e-05 11.6064Z"/>
<path id="path67_fill" d="M 11.0657 5.98142C 11.1723 7.58621 10.6611 9.17101 9.637 10.4111C 8.50561 11.4086 7.04912 11.959 5.54081 11.959C 4.03249 11.959 2.57601 11.4086 1.44462 10.4111C 0.418062 9.16617 -0.0934453 7.57574 0.0149282 5.9658C -0.0963073 4.36081 0.41737 2.77497 1.44851 1.54001C 1.98675 1.01014 2.63094 0.600067 3.33881 0.336676C 4.04669 0.0732846 4.80225 -0.0374691 5.55594 0.011694C 6.30851 -0.0384712 7.06311 0.0730074 7.76904 0.338629C 8.47497 0.60425 9.11588 1.01787 9.64871 1.5517C 10.6671 2.79438 11.1738 4.37838 11.0657 5.98142ZM 2.59501 5.98142C 2.52281 7.01169 2.78147 8.03809 3.33329 8.91111C 3.59302 9.2427 3.92989 9.50577 4.31457 9.67734C 4.69924 9.84892 5.12004 9.92378 5.54029 9.89548C 7.50416 9.89548 8.48592 8.59079 8.48559 5.98142C 8.48559 3.36716 7.50903 2.0602 5.55591 2.06052C 5.13422 2.03297 4.71218 2.10857 4.32627 2.28077C 3.94036 2.45296 3.60221 2.71657 3.34107 3.0488C 2.78457 3.92115 2.52304 4.9492 2.59501 5.98142Z"/>
<path id="path68_fill" d="M 5.46086 2.0494C 5.04367 2.03035 4.62833 2.11586 4.25261 2.29818C 3.87689 2.4805 3.5527 2.75385 3.3095 3.09335C 2.75389 3.95796 2.48684 4.97653 2.54679 6.00253C 2.54679 8.59042 3.51815 9.88437 5.46086 9.88437C 6.47481 9.84537 7.4753 9.63881 8.42178 9.27304L 8.42178 11.3375C 7.40799 11.7456 6.32311 11.9477 5.23038 11.9322C 4.51119 11.979 3.79057 11.8655 3.12061 11.5999C 2.45064 11.3342 1.84805 10.923 1.35638 10.3961C 0.385604 9.13957 -0.0916831 7.57118 0.014581 5.9869C -0.00946538 4.89327 0.215965 3.80853 0.673761 2.81503C 1.07996 1.94404 1.74003 1.21623 2.56732 0.727139C 3.4486 0.228387 4.44852 -0.0223497 5.46086 0.00155305C 6.64054 0.0139638 7.80209 0.293418 8.85832 0.818936L 8.06438 2.81894C 7.63788 2.6158 7.20072 2.43585 6.75481 2.27987C 6.33969 2.13022 5.90213 2.05229 5.46086 2.0494Z"/>
<path id="path69_fill" d="M 9.33488 11.6064L 6.54094 11.6064L 3.50095 6.71582L 2.46094 7.46191L 2.46094 11.6064L -9.27735e-08 11.6064L -9.27735e-08 -3.75e-06L 2.46094 -3.75e-06L 2.46094 5.31152L 3.42871 3.94531L 6.57227 -3.75e-06L 9.30371 -3.75e-06L 5.25488 5.13671L 9.33488 11.6064Z"/>
<path id="path70_fill" d="M 5.46086 2.0494C 5.04367 2.03035 4.62833 2.11586 4.25261 2.29818C 3.87688 2.4805 3.55269 2.75385 3.30949 3.09335C 2.75388 3.95796 2.48685 4.97653 2.5468 6.00253C 2.5468 8.59042 3.51814 9.88437 5.46085 9.88437C 6.4748 9.84537 7.47531 9.63881 8.4218 9.27304L 8.4218 11.3375C 7.408 11.7456 6.32311 11.9477 5.23038 11.9322C 4.51119 11.979 3.79057 11.8655 3.12061 11.5999C 2.45064 11.3342 1.84806 10.923 1.35638 10.3961C 0.385611 9.13957 -0.0916767 7.57118 0.0145873 5.9869C -0.00945906 4.89327 0.215972 3.80853 0.673767 2.81503C 1.07996 1.94404 1.74002 1.21623 2.56731 0.727139C 3.44859 0.228387 4.44851 -0.0223497 5.46086 0.00155305C 6.64054 0.0139638 7.80209 0.293418 8.85832 0.818936L 8.06438 2.81894C 7.63788 2.6158 7.20072 2.43585 6.75481 2.27987C 6.33969 2.13022 5.90212 2.05229 5.46086 2.0494Z"/>
<path id="path71_fill" d="M 9.50974 11.6064L 7.05663 11.6064L 7.05663 6.59668L 2.46093 6.59668L 2.46093 11.6064L 7.56836e-06 11.6064L 7.56836e-06 -3.75e-06L 2.46095 -3.75e-06L 2.46095 4.54882L 7.05663 4.54882L 7.05663 -3.75e-06L 9.50977 -3.75e-06L 9.50977 11.6064L 9.50974 11.6064Z"/>
<path id="path72_fill" d="M 8.56544 11.6533L 7.72363 8.89063L 3.49316 8.89063L 2.65136 11.6533L -7.32422e-06 11.6533L 4.09669 1.25e-06L 7.1045 1.25e-06L 11.2168 11.6533L 8.56544 11.6533ZM 7.13673 6.82617C 6.35841 4.32325 5.92057 2.90756 5.82324 2.5791C 5.7246 2.25098 5.65429 1.99186 5.6123 1.80176C 5.43749 2.47949 4.93749 4.1543 4.1123 6.82617L 7.13671 6.82617L 7.13673 6.82617Z"/>
<path id="path73_fill" d="M -6.38672e-06 11.6064L -6.38672e-06 -3.75e-06L 2.46095 -3.75e-06L 2.46095 11.6064L -6.38672e-06 11.6064Z"/>
<path id="path74_fill" d="M 10.2959 11.6064L 7.16799 11.6064L 2.11916 2.82617L 2.04788 2.82617C 2.14846 4.37695 2.19859 5.48307 2.19827 6.14453L 2.19827 11.6064L -6.22559e-06 11.6064L -6.22559e-06 -3.75e-06L 3.10352 -3.75e-06L 8.14452 8.69238L 8.20017 8.69238C 8.12107 7.18457 8.08136 6.11816 8.08103 5.49316L 8.08103 -3.75e-06L 10.2959 -3.75e-06L 10.2959 11.6064L 10.2959 11.6064Z"/>
<path id="path75_fill" d="M 9.62891 5.70318C 9.68246 6.50853 9.56482 7.31608 9.28372 8.07268C 9.00263 8.82929 8.56445 9.5178 7.99805 10.0928C 6.68217 11.1885 4.99444 11.7345 3.28614 11.6172L 8.00781e-07 11.6172L 8.00781e-07 0.0117708L 3.64355 0.0117708C 5.25492 -0.0882251 6.8408 0.450694 8.05761 1.51177C 8.59778 2.06188 9.01669 2.71912 9.28732 3.44103C 9.55796 4.16294 9.67432 4.93354 9.62891 5.70318ZM 7.07325 5.76665C 7.07325 3.27447 5.97234 2.02837 3.77052 2.02837L 2.46094 2.02837L 2.46094 9.58501L 3.5166 9.58501C 5.8877 9.58501 7.07325 8.31223 7.07325 5.76665Z"/>
<path id="path76_fill" d="M 4.88281e-07 11.6054L 4.88281e-07 -2.34375e-05L 2.46094 -2.34375e-05L 2.46094 11.6054L 4.88281e-07 11.6054Z"/>
<path id="path77_fill" d="M 7.56543 8.55726C 7.58556 9.02999 7.49361 9.50075 7.29707 9.93116C 7.10054 10.3616 6.80499 10.7394 6.43457 11.0338C 5.51946 11.6867 4.40825 12.0062 3.28613 11.9391C 2.1516 11.9614 1.02718 11.7221 -7.61719e-07 11.2399L -7.61719e-07 8.95375C 0.64235 9.25165 1.30717 9.49851 1.98828 9.69203C 2.47341 9.8273 2.97395 9.89951 3.47754 9.90687C 3.9136 9.93407 4.34743 9.82596 4.71973 9.5973C 4.86323 9.49234 4.97805 9.353 5.05364 9.19209C 5.12923 9.03118 5.16318 8.85386 5.15235 8.6764C 5.15542 8.45878 5.08868 8.2459 4.96192 8.06898C 4.80763 7.8662 4.61808 7.69286 4.40235 7.55726C 3.91651 7.26605 3.41402 7.00355 2.89747 6.77113C 2.32583 6.52198 1.78935 6.19892 1.30177 5.81019C 0.952904 5.51048 0.664529 5.14686 0.452163 4.7389C 0.232602 4.29526 0.123705 3.80506 0.13478 3.31019C 0.112985 2.85367 0.195694 2.39817 0.376609 1.97846C 0.557524 1.55876 0.831872 1.18592 1.17873 0.888316C 2.00442 0.259182 3.02818 -0.0533178 4.06447 0.00745637C 4.64682 0.00466043 5.22712 0.0768713 5.79103 0.2223C 6.37853 0.378824 6.95314 0.580263 7.50978 0.824839L 6.71583 2.73793C 6.21684 2.52513 5.70354 2.34761 5.1797 2.20668C 4.78925 2.10769 4.38816 2.05686 3.98536 2.05531C 3.60009 2.02935 3.21865 2.14538 2.91309 2.38148C 2.79154 2.48614 2.69494 2.61665 2.6304 2.7635C 2.56586 2.91034 2.535 3.06979 2.54009 3.23011C 2.53557 3.43009 2.58807 3.62723 2.69146 3.79847C 2.81803 3.98554 2.98154 4.14473 3.17193 4.26625C 3.67501 4.56843 4.1958 4.84007 4.7315 5.07972C 5.58117 5.42869 6.34293 5.96165 6.96197 6.64027C 7.37437 7.19251 7.58713 7.86837 7.56543 8.55726Z"/>
<path id="path78_fill" d="M 5.6123 11.6054L 3.15136 11.6054L 3.15136 2.04783L -7.32422e-09 2.04783L -7.32422e-09 -2.34375e-05L 8.76465 -2.34375e-05L 8.76465 2.04783L 5.6123 2.04783L 5.6123 11.6054Z"/>
<path id="path79_fill" d="M 2.46093 7.16876L 2.46093 11.6219L 1.24268e-06 11.6219L 1.24268e-06 0.0164201L 3.38184 0.0164201C 4.61045 -0.0763837 5.83661 0.225366 6.88184 0.877748C 7.49186 1.42691 7.88499 2.17648 7.98997 2.99054C 8.09495 3.8046 7.90485 4.62928 7.45411 5.31525C 7.04746 5.8709 6.49526 6.30347 5.85841 6.56525C 7.6045 9.17462 8.7422 10.8602 9.2715 11.6219L 6.54101 11.6219L 3.7705 7.16876L 2.46093 7.16876ZM 2.46093 5.16779L 3.25488 5.16779C 3.85492 5.21176 4.45451 5.07648 4.97754 4.77912C 5.16598 4.63892 5.3158 4.45321 5.41297 4.23938C 5.51015 4.02556 5.55151 3.79061 5.5332 3.55646C 5.55357 3.32754 5.51148 3.09739 5.41139 2.8905C 5.31131 2.68362 5.15697 2.50776 4.96484 2.38165C 4.4199 2.11246 3.81346 1.99218 3.20703 2.03302L 2.46093 2.03302L 2.46093 5.16779Z"/>
<path id="path80_fill" d="M 3.11768e-06 11.6054L 3.11768e-06 -2.34375e-05L 2.46094 -2.34375e-05L 2.46094 11.6054L 3.11768e-06 11.6054Z"/>
<path id="path81_fill" d="M -2.01172e-06 0.0179041L 3.61133 0.0179041C 4.84751 -0.0709215 6.08501 0.171451 7.19633 0.720053C 7.5657 0.958059 7.86417 1.29113 8.0604 1.68429C 8.25663 2.07744 8.34339 2.51617 8.31156 2.95443C 8.33699 3.56118 8.16572 4.15994 7.82328 4.66146C 7.67178 4.87532 7.47881 5.0565 7.25584 5.19423C 7.03288 5.33197 6.78447 5.42346 6.52543 5.46322L 6.52543 5.54329C 7.15157 5.64244 7.71872 5.9702 8.11723 6.46322C 8.46575 6.99477 8.63639 7.62331 8.60453 8.25814C 8.62653 8.73269 8.53382 9.20557 8.33424 9.63668C 8.13467 10.0678 7.83412 10.4444 7.45805 10.7347C 6.54804 11.3713 5.45076 11.6842 4.34184 11.6234L 4.37646e-05 11.6234L 4.37646e-05 0.0179041L -2.01172e-06 0.0179041ZM 2.46094 4.61361L 3.88965 4.61361C 4.39218 4.65275 4.89527 4.54521 5.33789 4.30404C 5.49343 4.18555 5.61627 4.02946 5.69485 3.85042C 5.77344 3.67139 5.80519 3.47529 5.78711 3.2806C 5.80207 3.09155 5.76436 2.90204 5.67817 2.73311C 5.59199 2.56419 5.46068 2.42247 5.29883 2.32363C 4.81698 2.09804 4.28571 1.99857 3.75488 2.03457L 2.46093 2.03457L 2.46093 4.61367L 2.46094 4.61361ZM 2.46094 6.56673L 2.46094 9.59115L 4.06446 9.59115C 4.59384 9.63279 5.12192 9.49596 5.56446 9.20247C 5.73218 9.05536 5.86329 8.87116 5.94737 8.66451C 6.03145 8.45786 6.0662 8.23447 6.04884 8.01204C 6.04884 7.04818 5.36069 6.56641 3.98439 6.56673L 2.46095 6.56673L 2.46094 6.56673Z"/>
<path id="path82_fill" d="M 9.53188 -2.34375e-05L 9.53188 7.50974C 9.54955 8.29947 9.35063 9.07902 8.95668 9.76371C 8.566 10.416 7.98588 10.9337 7.29359 11.2481C 6.48538 11.6098 5.60652 11.7863 4.72132 11.7647C 3.45806 11.8432 2.21307 11.4323 1.24476 10.6172C 0.825445 10.2131 0.497802 9.72371 0.284 9.18204C 0.0701984 8.64038 -0.0247726 8.05912 0.0055043 7.47758L 0.0055043 -2.34375e-05L 2.45863 -2.34375e-05L 2.45863 7.10447C 2.40059 7.80389 2.59188 8.50128 2.99863 9.07322C 3.23267 9.30158 3.5138 9.47602 3.82233 9.58433C 4.13086 9.69263 4.45934 9.7322 4.78476 9.70023C 5.10487 9.72985 5.42758 9.68871 5.73001 9.57969C 6.03243 9.47066 6.30718 9.29643 6.53476 9.06937C 6.94442 8.49424 7.13713 7.7926 7.07871 7.0889L 7.07871 -2.34375e-05L 9.53183 -2.34375e-05L 9.53188 -2.34375e-05Z"/>
<path id="path83_fill" d="M 5.6123 11.6054L 3.15137 11.6054L 3.15137 2.04783L -1.36719e-07 2.04783L -1.36719e-07 -2.34375e-05L 8.76465 -2.34375e-05L 8.76465 2.04783L 5.6123 2.04783L 5.6123 11.6054Z"/>
<path id="path84_fill" d="M 6.68358 11.6054L 6.37207e-06 11.6054L 6.37207e-06 -2.34375e-05L 6.68358 -2.34375e-05L 6.68358 2.01658L 2.46093 2.01658L 2.46093 4.56443L 6.38964 4.56443L 6.38964 6.58103L 2.46093 6.58103L 2.46093 9.57322L 6.68358 9.57322L 6.68358 11.6054Z"/>
<path id="path85_fill" d="M 9.6289 5.70318C 9.68245 6.50853 9.56481 7.31608 9.28372 8.07268C 9.00262 8.82929 8.56444 9.5178 7.99804 10.0928C 6.68217 11.1885 4.99443 11.7345 3.28613 11.6172L -6.69922e-06 11.6172L -6.69922e-06 0.0117708L 3.64355 0.0117708C 5.25492 -0.0882251 6.8408 0.450694 8.05761 1.51177C 8.59778 2.06188 9.01668 2.71912 9.28732 3.44103C 9.55795 4.16294 9.67431 4.93354 9.6289 5.70318ZM 7.07324 5.76665C 7.07324 3.27447 5.97234 2.02837 3.77052 2.02837L 2.46095 2.02837L 2.46095 9.58501L 3.51661 9.58501C 5.8877 9.58501 7.07324 8.31223 7.07324 5.76665Z"/>
<path id="path86_fill" d="M 5.58008e-05 11.6054L 5.58008e-05 -2.34375e-05L 2.46099 -2.34375e-05L 2.46099 9.57322L 7.16799 9.57322L 7.16799 11.6054L -5.23437e-06 11.6054L 5.58008e-05 11.6054Z"/>
<path id="path87_fill" d="M 6.68359 11.6054L -7.32422e-06 11.6054L -7.32422e-06 -2.34375e-05L 6.68359 -2.34375e-05L 6.68359 2.01658L 2.46093 2.01658L 2.46093 4.56443L 6.38964 4.56443L 6.38964 6.58103L 2.46093 6.58103L 2.46093 9.57322L 6.68359 9.57322L 6.68359 11.6054Z"/>
<path id="path88_fill" d="M 9.6289 5.70318C 9.68246 6.50853 9.56481 7.31608 9.28372 8.07268C 9.00262 8.82929 8.56444 9.5178 7.99804 10.0928C 6.68217 11.1885 4.99443 11.7345 3.28613 11.6172L -5.13672e-06 11.6172L -5.13672e-06 0.0117708L 3.64355 0.0117708C 5.25492 -0.0882251 6.8408 0.450694 8.05761 1.51177C 8.59778 2.06188 9.01668 2.71912 9.28732 3.44103C 9.55795 4.16294 9.67432 4.93354 9.6289 5.70318ZM 7.07324 5.76665C 7.07324 3.27447 5.97232 2.02837 3.7705 2.02837L 2.46095 2.02837L 2.46095 9.58501L 3.5166 9.58501C 5.88769 9.58501 7.07324 8.31223 7.07324 5.76665Z"/>
<path id="path89_fill" d="M 4.93632 5.2653L 9.54081 5.2653L 9.54081 11.2829C 8.85386 11.512 8.14892 11.6832 7.43339 11.7946C 6.76447 11.8938 6.08911 11.9431 5.41288 11.9421C 4.67203 11.9917 3.92927 11.8792 3.23628 11.6126C 2.54329 11.346 1.91672 10.9315 1.40019 10.3981C 0.401325 9.14489 -0.0929433 7.56351 0.014445 5.96452C -0.0328387 5.16291 0.0854748 4.36018 0.362025 3.6063C 0.638575 2.85243 1.06744 2.16356 1.62187 1.58268C 2.22315 1.03747 2.92709 0.6176 3.69255 0.347636C 4.458 0.077673 5.26958 -0.0369635 6.07986 0.010417C 7.26522 0.00936249 8.43807 0.252712 9.52517 0.725261L 8.70681 2.69401C 7.88831 2.27694 6.98287 2.05911 6.06423 2.05827C 5.58552 2.03841 5.10829 2.12417 4.66645 2.30949C 4.22461 2.4948 3.82898 2.77513 3.50765 3.13053C 2.83506 3.93541 2.49178 4.9649 2.54672 6.01237C 2.47902 7.03311 2.75134 8.04753 3.32113 8.89714C 3.58915 9.23136 3.93347 9.49634 4.32517 9.66984C 4.71688 9.84334 5.14451 9.9203 5.57212 9.89421C 6.09725 9.89264 6.62093 9.83932 7.1356 9.73503L 7.1356 7.31413L 4.93638 7.31413L 4.93638 5.2653L 4.93632 5.2653Z"/>
<path id="path90_fill" d="M 6.68359 11.6054L 7.30957e-06 11.6054L 7.30957e-06 -2.34375e-05L 6.68359 -2.34375e-05L 6.68359 2.01658L 2.46093 2.01658L 2.46093 4.56443L 6.38964 4.56443L 6.38964 6.58103L 2.46093 6.58103L 2.46093 9.57322L 6.68359 9.57322L 6.68359 11.6054Z"/>
<path id="path91_fill" d="M 2.46094 7.16876L 2.46094 11.6219L 8.00781e-07 11.6219L 8.00781e-07 0.0164201L 3.38184 0.0164201C 4.61045 -0.0763837 5.83661 0.225366 6.88184 0.877748C 7.49186 1.42691 7.88498 2.17648 7.98996 2.99054C 8.09494 3.8046 7.90486 4.62928 7.45412 5.31525C 7.04747 5.8709 6.49527 6.30347 5.85841 6.56525C 7.60451 9.17462 8.7422 10.8602 9.2715 11.6219L 6.54103 11.6219L 3.77052 7.16876L 2.46095 7.16876L 2.46094 7.16876ZM 2.46094 5.16779L 3.25488 5.16779C 3.85493 5.21176 4.45452 5.07648 4.97756 4.77912C 5.166 4.63892 5.3158 4.45321 5.41298 4.23938C 5.51016 4.02556 5.55152 3.79061 5.5332 3.55646C 5.55358 3.32754 5.5115 3.09739 5.41141 2.8905C 5.31132 2.68362 5.15698 2.50776 4.96484 2.38165C 4.41991 2.11246 3.81348 1.99218 3.20705 2.03302L 2.46095 2.03302L 2.46095 5.16779L 2.46094 5.16779Z"/>
<path id="path92_fill" d="M 2.99994 1.4707e-05L 0 1.4707e-05L 0 46.4516L 2.99994 46.4516L 2.99994 1.4707e-05Z"/>
<path id="path93_fill" d="M 49.868 2.73437e-06L 0 2.73437e-06L 0 2.99951L 49.868 2.99951L 49.868 2.73437e-06Z"/>
<path id="path94_fill" d="M 9.35298 18.706C 14.5185 18.706 18.706 14.5185 18.706 9.35299C 18.706 4.18748 14.5185 -6.2793e-06 9.35298 -6.2793e-06C 4.18747 -6.2793e-06 0 4.18748 0 9.35299C 0 14.5185 4.18747 18.706 9.35298 18.706Z"/>
<path id="path95_fill" d="M 9.35298 18.706C 14.5185 18.706 18.706 14.5185 18.706 9.35299C 18.706 4.18748 14.5185 -4.85352e-06 9.35298 -4.85352e-06C 4.18747 -4.85352e-06 0 4.18748 0 9.35299C 0 14.5185 4.18747 18.706 9.35298 18.706Z"/>
<path id="path96_fill" d="M 38.102 0L 2.33398e-06 0L 2.33398e-06 3.00049L 38.102 3.00049L 38.102 0Z"/>
<path id="path97_fill" d="M 31.8945 7.26562e-06L 0 7.26562e-06L 0 3.0005L 31.8945 3.0005L 31.8945 7.26562e-06Z"/>
<path id="path98_fill" d="M 2.9995 1.1709e-05L 0 1.1709e-05L 0 60.0711L 2.9995 60.0711L 2.9995 1.1709e-05Z"/>
<path id="path99_fill" d="M 59.0373 -2.87109e-06L 3.67676e-06 -2.87109e-06L 3.67676e-06 2.99988L 59.0373 2.99988L 59.0373 -2.87109e-06Z"/>
<path id="path100_fill" d="M 2.9997 -1.11328e-05L 0 -1.11328e-05L 0 57.802L 2.9997 57.802L 2.9997 -1.11328e-05Z"/>
<path id="path101_fill" d="M 59.099 -1.45996e-05L 7.17285e-06 -1.45996e-05L 7.17285e-06 2.99968L 59.099 2.99968L 59.099 -1.45996e-05Z"/>
<path id="path102_fill" d="M 9.35297 18.706C 14.5185 18.706 18.706 14.5185 18.706 9.35299C 18.706 4.18748 14.5185 -5.77148e-06 9.35297 -5.77148e-06C 4.18746 -5.77148e-06 6.16211e-06 4.18748 6.16211e-06 9.35299C 6.16211e-06 14.5185 4.18746 18.706 9.35297 18.706Z"/>
<path id="path103_fill" d="M 9.35298 18.706C 14.5185 18.706 18.706 14.5185 18.706 9.35298C 18.706 4.18747 14.5185 1.07715e-05 9.35298 1.07715e-05C 4.18747 1.07715e-05 -2.08496e-06 4.18747 -2.08496e-06 9.35298C -2.08496e-06 14.5185 4.18747 18.706 9.35298 18.706Z"/>
<path id="path104_fill" d="M 9.35298 18.7059C 14.5185 18.7059 18.706 14.5185 18.706 9.35298C 18.706 4.18748 14.5185 -1.31055e-05 9.35298 -1.31055e-05C 4.18747 -1.31055e-05 -2.65137e-06 4.18748 -2.65137e-06 9.35298C -2.65137e-06 14.5185 4.18747 18.7059 9.35298 18.7059Z"/>
<path id="path105_fill" d="M 9.35297 18.706C 14.5185 18.706 18.706 14.5185 18.706 9.35298C 18.706 4.18747 14.5185 1.15723e-05 9.35297 1.15723e-05C 4.18747 1.15723e-05 -7.11914e-06 4.18747 -7.11914e-06 9.35298C -7.11914e-06 14.5185 4.18747 18.706 9.35297 18.706Z"/>
<path id="path106_fill" d="M 9.35298 18.706C 14.5185 18.706 18.706 14.5185 18.706 9.35299C 18.706 4.18748 14.5185 -6.78711e-06 9.35298 -6.78711e-06C 4.18747 -6.78711e-06 0 4.18748 0 9.35299C 0 14.5185 4.18747 18.706 9.35298 18.706Z"/>
<path id="path107_fill" d="M 9.35298 18.706C 14.5185 18.706 18.706 14.5185 18.706 9.35297C 18.706 4.18746 14.5185 0 9.35298 0C 4.18747 0 -3.42285e-06 4.18746 -3.42285e-06 9.35297C -3.42285e-06 14.5185 4.18747 18.706 9.35298 18.706Z"/>
<path id="path108_fill" d="M 8.25392 4.889C 8.29987 5.57938 8.19899 6.27169 7.95795 6.92025C 7.71691 7.56881 7.34116 8.1589 6.85548 8.65169C 5.72773 9.59063 4.28141 10.0586 2.81739 9.95833L 2.03125e-06 9.95833L 2.03125e-06 0.0100918L 3.123 0.0100918C 4.50416 -0.0755971 5.86344 0.386504 6.9062 1.29622C 7.36941 1.76767 7.72866 2.33097 7.96079 2.94979C 8.19293 3.56861 8.29279 4.22922 8.25392 4.889ZM 6.06251 4.94369C 6.06251 2.80697 5.11915 1.73861 3.23243 1.73861L 2.10943 1.73861L 2.10943 8.21615L 3.0147 8.21615C 5.04689 8.21615 6.06283 7.12533 6.0625 4.94369L 6.06251 4.94369Z"/>
<path id="path109_fill" d="M 5.72949 9.94824L 1.71875e-06 9.94824L 1.71875e-06 3.125e-07L 5.72949 3.125e-07L 5.72949 1.72852L 2.10938 1.72852L 2.10938 3.91211L 5.47754 3.91211L 5.47754 5.64063L 2.10938 5.64063L 2.10938 8.20605L 5.72949 8.20605L 5.72949 9.94824Z"/>
<path id="path110_fill" d="M 4.6804 1.75624C 4.32281 1.74015 3.96686 1.81366 3.64488 1.97005C 3.3229 2.12644 3.04508 2.36074 2.83665 2.65175C 2.36055 3.39274 2.1318 4.26567 2.18333 5.14492C 2.18333 7.36367 3.01569 8.47272 4.6804 8.47206C 5.54951 8.43879 6.40712 8.26192 7.21849 7.94863L 7.21849 9.7181C 6.34958 10.0679 5.41972 10.2412 4.48313 10.2279C 3.86674 10.268 3.24913 10.1708 2.67491 9.94313C 2.1007 9.71547 1.58424 9.36308 1.16283 8.91146C 0.330771 7.83404 -0.078405 6.48945 0.0124384 5.13118C -0.00808703 4.19416 0.184934 3.26476 0.576884 2.41341C 0.925055 1.66677 1.4908 1.04283 2.19989 0.623432C 2.95526 0.195617 3.81249 -0.0193677 4.68035 0.00136135C 5.69145 0.0120473 6.68703 0.251422 7.59246 0.701557L 6.91181 2.4164C 6.54625 2.24233 6.1717 2.08781 5.78974 1.95351C 5.43365 1.82594 5.05863 1.75926 4.6804 1.75624Z"/>
<path id="path111_fill" d="M 5.72949 9.94824L 2.03125e-06 9.94824L 2.03125e-06 3.125e-07L 5.72949 3.125e-07L 5.72949 1.72852L 2.10937 1.72852L 2.10937 3.91211L 5.47753 3.91211L 5.47753 5.64063L 2.10937 5.64063L 2.10937 8.20605L 5.72949 8.20605L 5.72949 9.94824Z"/>
<path id="path112_fill" d="M 8.82519 9.94826L 6.14453 9.94826L 1.81641 2.42287L 1.75586 2.42287C 1.8418 3.75197 1.88477 4.69989 1.88477 5.26662L 1.88477 9.94826L -1.77246e-06 9.94826L -1.77246e-06 2.03125e-05L 2.66016 2.03125e-05L 6.98144 7.45119L 7.02929 7.45119C 6.96094 6.15823 6.92676 5.24416 6.92676 4.709L 6.92676 2.03125e-05L 8.82519 2.03125e-05L 8.82519 9.94826Z"/>
<path id="path113_fill" d="M 4.81054 9.94824L 2.70117 9.94824L 2.70117 1.75586L -5.15625e-06 1.75586L -5.15625e-06 3.125e-07L 7.51171 3.125e-07L 7.51171 1.75586L 4.81056 1.75586L 4.81056 9.94824L 4.81054 9.94824Z"/>
<path id="path114_fill" d="M 2.10937 6.14499L 2.10937 9.96237L -2.96875e-06 9.96237L -2.96875e-06 0.0141283L 2.89843 0.0141283C 3.95185 -0.0655247 5.00321 0.19312 5.89944 0.75241C 6.42189 1.22343 6.75852 1.8659 6.84843 2.56357C 6.93835 3.26123 6.77562 3.96802 6.38968 4.55612C 6.04151 5.03291 5.56789 5.40376 5.02151 5.62741C 6.51859 7.86374 7.49385 9.30876 7.94729 9.96243L 5.60647 9.96243L 3.23246 6.14505L 2.10946 6.14505L 2.10937 6.14499ZM 2.10937 4.43014L 2.79004 4.43014C 3.30432 4.46757 3.81815 4.35168 4.26658 4.09714C 4.4279 3.97686 4.55613 3.81766 4.63929 3.63443C 4.72246 3.4512 4.75786 3.2499 4.74218 3.04928C 4.7597 2.85304 4.72373 2.65575 4.6381 2.4783C 4.55247 2.30085 4.42039 2.14987 4.25586 2.04147C 3.78871 1.81075 3.26885 1.70765 2.74901 1.74264L 2.10936 1.74264L 2.10936 4.43014L 2.10937 4.43014Z"/>
<path id="path115_fill" d="M 7.34184 9.98926L 6.62114 7.6211L 2.99414 7.6211L 2.27246 9.98926L -3.12012e-06 9.98926L 3.51074 4.6875e-06L 6.08984 4.6875e-06L 9.61425 9.98926L 7.34179 9.98926L 7.34184 9.98926ZM 6.11723 5.85157C 5.45024 3.70606 5.0749 2.49285 4.99122 2.21192C 4.90722 1.93067 4.84701 1.70835 4.81057 1.54493C 4.66116 2.12598 4.23245 3.56153 3.52444 5.85157L 6.11721 5.85157L 6.11723 5.85157Z"/>
<path id="path116_fill" d="M 3.01563e-05 9.94824L 3.01563e-05 3.125e-07L 2.10937 3.125e-07L 2.10937 8.20605L 6.14453 8.20605L 6.14453 9.94824L -3.61328e-07 9.94824L 3.01563e-05 9.94824Z"/>
<path id="path117_fill" d="M 4.6875e-07 9.94824L 4.6875e-07 3.125e-07L 2.10938 3.125e-07L 2.10938 9.94824L 1.57275e-05 9.94824L 4.6875e-07 9.94824Z"/>
<path id="path118_fill" d="M 7.40332 9.94824L -3.59375e-06 9.94824L -3.59375e-06 8.58008L 4.7705 1.74219L 0.129894 1.74219L 0.129894 3.125e-07L 7.27443 3.125e-07L 7.27443 1.36133L 2.51075 8.20605L 7.40333 8.20605L 7.40333 9.94824L 7.40332 9.94824Z"/>
<path id="path119_fill" d="M 5.72949 9.94824L -5.78125e-06 9.94824L -5.78125e-06 3.125e-07L 5.72949 3.125e-07L 5.72949 1.72852L 2.10937 1.72852L 2.10937 3.91211L 5.47753 3.91211L 5.47753 5.64063L 2.10937 5.64063L 2.10937 8.20605L 5.72949 8.20605L 5.72949 9.94824Z"/>
<path id="path120_fill" d="M 8.25392 4.889C 8.29986 5.57938 8.19899 6.27169 7.95794 6.92025C 7.7169 7.56881 7.34116 8.1589 6.85548 8.65169C 5.72773 9.59063 4.28141 10.0586 2.81739 9.95833L -3.54004e-06 9.95833L -3.54004e-06 0.0100918L 3.123 0.0100918C 4.50416 -0.0755971 5.86344 0.386504 6.9062 1.29622C 7.36941 1.76767 7.72866 2.33097 7.9608 2.94979C 8.19293 3.56861 8.29278 4.22922 8.25392 4.889ZM 6.06251 4.94369C 6.06251 2.80697 5.11915 1.73861 3.23243 1.73861L 2.10943 1.73861L 2.10943 8.21615L 3.01471 8.21615C 5.04691 8.21615 6.06284 7.12533 6.06251 4.94369Z"/>
</defs>
</svg>
