<svg width="85" height="97" viewBox="0 0 85 97" version="1.1" xmlns="http://www.w3.org/2000/svg" xmlns:xlink="http://www.w3.org/1999/xlink">
<title>Group</title>
<desc>Created using Figma</desc>
<g id="Canvas" transform="translate(-5252 -655)">
<g id="Group">
<g id="Group">
<g id="Vector">
<use xlink:href="#path0_fill" transform="translate(5252 655)" fill="#1B9DFF"/>
</g>
<g id="Vector">
<use xlink:href="#path1_fill" transform="translate(5286 693.2)" fill="#24368A"/>
</g>
<g id="Vector">
<use xlink:href="#path2_fill" transform="translate(5263.8 693.2)" fill="#24368A"/>
</g>
<g id="Vector">
<use xlink:href="#path3_fill" transform="translate(5308.2 693.2)" fill="#24368A"/>
</g>
<g id="Vector">
<use xlink:href="#path4_fill" transform="translate(5254.3 731.6)" fill="#24368A"/>
</g>
</g>
</g>
</g>
<defs>
<path id="path0_fill" d="M 0 34.6L 42.3 0L 84.5 34.6L 0 34.6Z"/>
<path id="path1_fill" d="M 16.5 36.7L 0 36.7L 0 7.62939e-07L 16.5 7.62939e-07L 16.5 36.7ZM 3.8 32.9L 12.7 32.9L 12.7 3.8L 3.8 3.8L 3.8 32.9Z"/>
<path id="path2_fill" d="M 16.5 36.7L 1.90735e-07 36.7L 1.90735e-07 7.62939e-07L 16.5 7.62939e-07L 16.5 36.7ZM 3.8 32.9L 12.7 32.9L 12.7 3.8L 3.8 3.8L 3.8 32.9Z"/>
<path id="path3_fill" d="M 16.5 36.7L 7.62939e-07 36.7L 7.62939e-07 7.62939e-07L 16.5 7.62939e-07L 16.5 36.7ZM 3.8 32.9L 12.7 32.9L 12.7 3.8L 3.8 3.8L 3.8 32.9Z"/>
<path id="path4_fill" d="M 80 20.1L -4.76837e-08 20.1L -4.76837e-08 -1.52588e-06L 80 -1.52588e-06L 80 20.1ZM 3.7 16.3L 76.1 16.3L 76.1 3.8L 3.7 3.8L 3.7 16.3Z"/>
</defs>
</svg>
