<svg width="61" height="91" viewBox="0 0 61 91" version="1.1" xmlns="http://www.w3.org/2000/svg" xmlns:xlink="http://www.w3.org/1999/xlink">
<title>Group</title>
<desc>Created using Figma</desc>
<g id="Canvas" transform="translate(-5264 -382)">
<g id="Group">
<g id="Group">
<g id="Vector">
<use xlink:href="#path0_fill" transform="translate(5272.9 382)" fill="#98CDFF"/>
</g>
<g id="Vector">
<use xlink:href="#path1_fill" transform="translate(5264 405.1)" fill="#1B9DFF"/>
</g>
<g id="Vector">
<use xlink:href="#path2_fill" transform="translate(5270.8 415.7)" fill="#24368A"/>
</g>
<g id="Vector">
<use xlink:href="#path3_fill" transform="translate(5270.8 427.9)" fill="#24368A"/>
</g>
<g id="Vector">
<use xlink:href="#path4_fill" transform="translate(5270.8 440)" fill="#24368A"/>
</g>
<g id="Vector">
<use xlink:href="#path5_fill" transform="translate(5270.8 452.2)" fill="#24368A"/>
</g>
</g>
</g>
</g>
<defs>
<path id="path0_fill" d="M -3.8147e-07 17.7L 21.6 0L 43.2 17.7L -3.8147e-07 17.7Z"/>
<path id="path1_fill" d="M 60.4 0L 0 0L 0 67.1L 60.4 67.1L 60.4 0Z"/>
<path id="path2_fill" d="M 46.7 0L 0 0L 0 3.8L 46.7 3.8L 46.7 0Z"/>
<path id="path3_fill" d="M 46.7 0L 0 0L 0 3.8L 46.7 3.8L 46.7 0Z"/>
<path id="path4_fill" d="M 46.7 0L 0 0L 0 3.8L 46.7 3.8L 46.7 0Z"/>
<path id="path5_fill" d="M 46.7 -3.05176e-06L 0 -3.05176e-06L 0 3.8L 46.7 3.8L 46.7 -3.05176e-06Z"/>
</defs>
</svg>
