<svg id="Layer_1" data-name="Layer 1" xmlns="http://www.w3.org/2000/svg" viewBox="0 0 255 48"><defs><style>.cls-1{fill:#fff;}</style></defs><title>kumuluz-logo</title><path class="cls-1" d="M93.44,6.25h0a2.34,2.34,0,0,1,2.34,2.34v20.1l8.51-9a2.21,2.21,0,0,1,1.61-.7h0a2.21,2.21,0,0,1,1.62,3.72l-6.09,6.52,6.7,8.27a2.25,2.25,0,0,1-1.75,3.66h0a2.25,2.25,0,0,1-1.74-.83L95.77,29.41v9.38a2.34,2.34,0,0,1-2.34,2.34h0a2.34,2.34,0,0,1-2.34-2.34V8.59A2.34,2.34,0,0,1,93.44,6.25Z"/><path class="cls-1" d="M115,19h0.05a2.31,2.31,0,0,1,2.31,2.31V31.46q0,5.78,5.08,5.78A4.45,4.45,0,0,0,126,35.69a6.32,6.32,0,0,0,1.32-4.23V21.27A2.31,2.31,0,0,1,129.67,19h0A2.31,2.31,0,0,1,132,21.27V32.21a9.23,9.23,0,0,1-2.71,6.85,10.32,10.32,0,0,1-13.89,0,9.54,9.54,0,0,1-2.66-7V21.27A2.31,2.31,0,0,1,115,19Z"/><path class="cls-1" d="M137.32,39V21.42a2.31,2.31,0,0,1,2.31-2.31h0a2.31,2.31,0,0,1,2.31,2.31v1.1a13.6,13.6,0,0,1,3.13-3.06,6.16,6.16,0,0,1,3.43-1,6.38,6.38,0,0,1,4,1.1,8.29,8.29,0,0,1,2.43,3.52,14.4,14.4,0,0,1,3.39-3.52,6.61,6.61,0,0,1,3.79-1.1,6.14,6.14,0,0,1,4.56,2,6.51,6.51,0,0,1,1.92,4.69V39a2.31,2.31,0,0,1-2.31,2.31h-0.05A2.31,2.31,0,0,1,163.87,39V26.36q0-3.68-3.64-3.68a4.3,4.3,0,0,0-3.52,1.88,7.41,7.41,0,0,0-1.44,4.65V39A2.31,2.31,0,0,1,153,41.28H152.9A2.31,2.31,0,0,1,150.59,39V27q0-4.35-3.57-4.35a4.53,4.53,0,0,0-3.6,1.77,6.61,6.61,0,0,0-1.48,4.38V39a2.31,2.31,0,0,1-2.31,2.31h0A2.31,2.31,0,0,1,137.32,39Z"/><path class="cls-1" d="M176.19,19h0.05a2.31,2.31,0,0,1,2.31,2.31V31.46q0,5.78,5.08,5.78a4.45,4.45,0,0,0,3.57-1.55,6.32,6.32,0,0,0,1.32-4.23V21.27A2.31,2.31,0,0,1,190.83,19h0a2.31,2.31,0,0,1,2.31,2.31V32.21a9.23,9.23,0,0,1-2.71,6.85,10.32,10.32,0,0,1-13.89,0,9.54,9.54,0,0,1-2.66-7V21.27A2.31,2.31,0,0,1,176.19,19Z"/><path class="cls-1" d="M200.82,6.25h0a2.34,2.34,0,0,1,2.34,2.34v30.2a2.34,2.34,0,0,1-2.34,2.34h0a2.34,2.34,0,0,1-2.34-2.34V8.59A2.34,2.34,0,0,1,200.82,6.25Z"/><path class="cls-1" d="M210.8,19h0.05a2.31,2.31,0,0,1,2.31,2.31V31.46q0,5.78,5.08,5.78a4.45,4.45,0,0,0,3.57-1.55,6.32,6.32,0,0,0,1.32-4.23V21.27A2.31,2.31,0,0,1,225.44,19h0a2.31,2.31,0,0,1,2.31,2.31V32.21A9.23,9.23,0,0,1,225,39.06a10.32,10.32,0,0,1-13.89,0,9.54,9.54,0,0,1-2.66-7V21.27A2.31,2.31,0,0,1,210.8,19Z"/><path class="cls-1" d="M233.71,19h16.23A1.36,1.36,0,0,1,251,21.13L239.28,37H250.5a2,2,0,0,1,2,2h0a2,2,0,0,1-2,2H234.13A1.36,1.36,0,0,1,233,39L244.93,23H233.71a2,2,0,0,1-2-2h0A2,2,0,0,1,233.71,19Z"/><path class="cls-1" d="M68,22.19c-2.46-4.12-6.67-6.51-12-6.83a10.63,10.63,0,0,0-5-6,11.64,11.64,0,0,0-8.28-1.06,16.17,16.17,0,0,0-9.46-5.06A20.48,20.48,0,0,0,21.67,4.89c-7.08,3.2-11,9.43-10.53,16.25A11.88,11.88,0,0,0,2.48,33.37C2.76,38.82,6.59,44.56,13.34,45H26.21a2.25,2.25,0,0,0,2.25-2.25V34.11l8.23,10.12a2.05,2.05,0,0,0,1.59.76h0.09A2.05,2.05,0,0,0,40,41.64L33.7,33.91l5.65-6a2.05,2.05,0,0,0-1.5-3.45h0a2.05,2.05,0,0,0-1.49.65l-7.89,8.38V16.59a2.05,2.05,0,0,0-2.05-2.05H26.17a2.05,2.05,0,0,0-2.05,2.05v24H13.54c-4.17-.29-6.53-4-6.71-7.48-0.18-3.36,1.6-7.27,7.1-8.18h0a2.18,2.18,0,0,0,1.77-2.59h0C14.3,15.63,18.79,11,23.46,8.86c5.33-2.41,12.61-2.33,16.84,3.29h0a2.18,2.18,0,0,0,2.54.71h0A7.37,7.37,0,0,1,49,13.2a6.52,6.52,0,0,1,3.23,4.71h0a2.18,2.18,0,0,0,2.19,1.77h0c5.71-.13,8.51,2.51,9.84,4.75a11.51,11.51,0,0,1,0,11.26,9.77,9.77,0,0,1-8.9,5H45.76a2.26,2.26,0,0,0-2.29,2A2.18,2.18,0,0,0,45.63,45h9.71A14.14,14.14,0,0,0,68,37.82,15.77,15.77,0,0,0,68,22.19Z"/></svg>