<?xml version="1.0" encoding="UTF-8" standalone="no"?>
<!-- Created with Inkscape (http://www.inkscape.org/) -->

<svg
   xmlns:dc="http://purl.org/dc/elements/1.1/"
   xmlns:cc="http://creativecommons.org/ns#"
   xmlns:rdf="http://www.w3.org/1999/02/22-rdf-syntax-ns#"
   xmlns:svg="http://www.w3.org/2000/svg"
   xmlns="http://www.w3.org/2000/svg"
   xmlns:sodipodi="http://sodipodi.sourceforge.net/DTD/sodipodi-0.dtd"
   xmlns:inkscape="http://www.inkscape.org/namespaces/inkscape"
   width="30mm"
   height="30mm"
   viewBox="0 0 30 30"
   version="1.1"
   id="svg976"
   inkscape:version="0.92.2 (5c3e80d, 2017-08-06)"
   sodipodi:docname="safari-pinned-tab.svg">
  <defs
     id="defs970" />
  <sodipodi:namedview
     id="base"
     pagecolor="#ffffff"
     bordercolor="#666666"
     borderopacity="1.0"
     inkscape:pageopacity="0.0"
     inkscape:pageshadow="2"
     inkscape:zoom="2.8"
     inkscape:cx="45.356749"
     inkscape:cy="59.071428"
     inkscape:document-units="mm"
     inkscape:current-layer="layer1"
     showgrid="false"
     inkscape:pagecheckerboard="true"
     inkscape:window-width="1440"
     inkscape:window-height="837"
     inkscape:window-x="-8"
     inkscape:window-y="-8"
     inkscape:window-maximized="1" />
  <metadata
     id="metadata973">
    <rdf:RDF>
      <cc:Work
         rdf:about="">
        <dc:format>image/svg+xml</dc:format>
        <dc:type
           rdf:resource="http://purl.org/dc/dcmitype/StillImage" />
        <dc:title></dc:title>
      </cc:Work>
    </rdf:RDF>
  </metadata>
  <g
     inkscape:label="Layer 1"
     inkscape:groupmode="layer"
     id="layer1"
     transform="translate(0,-267)">
    <path
       inkscape:connector-curvature="0"
       class="cls-1"
       d="m 29.08046,281.19269 c -1.091413,-1.82789 -2.959238,-2.88824 -5.323969,-3.03022 a 4.7161491,4.7161491 0 0 0 -2.218319,-2.66198 5.1642499,5.1642499 0 0 0 -3.67354,-0.47029 7.1740482,7.1740482 0 0 0 -4.197063,-2.24494 9.0862405,9.0862405 0 0 0 -5.1420664,0.73205 c -3.141141,1.41972 -4.880305,4.18375 -4.671783,7.20954 a 5.2707293,5.2707293 0 0 0 -3.84213102,5.426 c 0.124225,2.41797 1.82345902,4.96461 4.81819202,5.15983 h 5.7099554 a 0.99824422,0.99824422 0 0 0 0.998244,-0.99825 v -3.83326 l 3.651357,4.48988 a 0.90951133,0.90951133 0 0 0 0.705427,0.33718 h 0.03993 a 0.90951133,0.90951133 0 0 0 0.723173,-1.48626 l -2.795083,-3.42953 2.5067,-2.66199 a 0.90951133,0.90951133 0 0 0 -0.665496,-1.53063 v 0 a 0.90951133,0.90951133 0 0 0 -0.661059,0.28838 l -3.50051,3.71789 v -7.49791 a 0.90951133,0.90951133 0 0 0 -0.909514,-0.90952 h -0.110923 a 0.90951133,0.90951133 0 0 0 -0.9095104,0.90952 v 10.64794 h -4.693959 c -1.850079,-0.12861 -2.897126,-1.77467 -2.976986,-3.31862 -0.07986,-1.49071 0.709863,-3.22543 3.150016,-3.62917 v 0 a 0.96718774,0.96718774 0 0 0 0.785285,-1.14909 v 0 c -0.62113,-2.97697 1.370923,-5.03114 3.442834,-5.98058 2.3647274,-1.06924 5.5946054,-1.03375 7.4713034,1.45965 v 0 a 0.96718774,0.96718774 0 0 0 1.126907,0.315 v 0 a 3.2698043,3.2698043 0 0 1 2.732971,0.15092 2.8926897,2.8926897 0 0 1 1.433035,2.08966 v 0 a 0.96718774,0.96718774 0 0 0 0.971625,0.78528 v 0 c 2.533322,-0.0577 3.775581,1.11359 4.365654,2.1074 a 5.1065737,5.1065737 0 0 1 0,4.99566 4.3345982,4.3345982 0 0 1 -3.94861,2.21831 h -4.259176 a 1.0026808,1.0026808 0 0 0 -1.015991,0.88733 0.96718774,0.96718774 0 0 0 0.958313,1.02488 h 4.307979 a 6.27341,6.27341 0 0 0 5.616788,-3.18552 6.9965826,6.9965826 0 0 0 0,-6.93447 z"
       id="path330"
       style="fill:#000000;fill-opacity:1;stroke-width:0.44366404"
       inkscape:export-xdpi="1845.0314"
       inkscape:export-ydpi="1845.0314" />
  </g>
</svg>
