<svg width="177" height="188" viewBox="0 0 177 188" version="1.1" xmlns="http://www.w3.org/2000/svg" xmlns:xlink="http://www.w3.org/1999/xlink">
<title>Group</title>
<desc>Created using Figma</desc>
<g id="Canvas" transform="translate(-129 -2948)">
<g id="Group">
<g id="Vector">
<use xlink:href="#path0_fill" transform="translate(178.9 3012.7)" fill="#24368A"/>
</g>
<g id="Vector">
<use xlink:href="#path1_fill" transform="translate(196.5 3030.3)" fill="#24368A"/>
</g>
<g id="Vector">
<use xlink:href="#path2_fill" transform="matrix(0.7312 -0.6821 0.6821 0.7312 144.651 3111.29)" fill="#24368A"/>
</g>
<g id="Vector">
<use xlink:href="#path3_fill" transform="matrix(0.6825 -0.7309 0.7309 0.6825 238.207 3076.94)" fill="#24368A"/>
</g>
<g id="Vector">
<use xlink:href="#path4_fill" transform="matrix(0.9558 -0.2939 0.2939 0.9558 189.407 2978.22)" fill="#24368A"/>
</g>
<g id="Vector">
<use xlink:href="#path5_fill" transform="translate(168 2948)" fill="#1B9DFF"/>
</g>
<g id="Vector">
<use xlink:href="#path6_fill" transform="translate(129 3095.8)" fill="#98CDFF"/>
</g>
<g id="Vector">
<use xlink:href="#path7_fill" transform="translate(261 3091.2)" fill="#24368A"/>
</g>
</g>
</g>
<defs>
<path id="path0_fill" d="M 37.8 75.6C 17 75.6 1.52588e-06 58.6 1.52588e-06 37.8C 1.52588e-06 17 17 -3.05176e-06 37.8 -3.05176e-06C 58.6 -3.05176e-06 75.6 17 75.6 37.8C 75.6 58.6 58.6 75.6 37.8 75.6ZM 37.8 8C 21.4 8 8 21.4 8 37.8C 8 54.2 21.4 67.6 37.8 67.6C 54.2 67.6 67.6 54.2 67.6 37.8C 67.6 21.4 54.2 8 37.8 8Z"/>
<path id="path1_fill" d="M 20.2 40.4C 9 40.4 0 31.3 0 20.2C 0 9.1 9.1 3.05176e-06 20.2 3.05176e-06C 31.3 3.05176e-06 40.4 9.1 40.4 20.2C 40.4 31.3 31.4 40.4 20.2 40.4ZM 20.2 7.9C 13.4 7.9 8 13.4 8 20.1C 8 26.8 13.5 32.3 20.2 32.3C 26.9 32.3 32.4 26.8 32.4 20.1C 32.4 13.4 27 7.9 20.2 7.9Z"/>
<path id="path2_fill" d="M 60.3 6.10352e-06L 0 6.10352e-06L 0 8.00001L 60.3 8.00001L 60.3 6.10352e-06Z"/>
<path id="path3_fill" d="M 8.00001 3.05176e-06L 6.10352e-06 3.05176e-06L 6.10352e-06 57.9L 8.00001 57.9L 8.00001 3.05176e-06Z"/>
<path id="path4_fill" d="M 8 0L 0 0L 0 43.3L 8 43.3L 8 0Z"/>
<path id="path5_fill" d="M 0 43.6L 25.2 0L 50.3 43.6L 0 43.6Z"/>
<path id="path6_fill" d="M 36.9 3.05176e-06L 0 3.05176e-06L 0 36.9L 36.9 36.9L 36.9 3.05176e-06Z"/>
<path id="path7_fill" d="M 22.3 44.6C 34.616 44.6 44.6 34.616 44.6 22.3C 44.6 9.98405 34.616 -3.05176e-06 22.3 -3.05176e-06C 9.98405 -3.05176e-06 0 9.98405 0 22.3C 0 34.616 9.98405 44.6 22.3 44.6Z"/>
</defs>
</svg>
