<svg width="180" height="183" viewBox="0 0 180 183" version="1.1" xmlns="http://www.w3.org/2000/svg" xmlns:xlink="http://www.w3.org/1999/xlink">
<title>Group</title>
<desc>Created using Figma</desc>
<g id="Canvas" transform="translate(474 -2315)">
<g id="Group">
<g id="Vector">
<use xlink:href="#path0_fill" transform="matrix(0.9174 -0.398 0.398 0.9174 -426.453 2391.37)" fill="#24368A"/>
</g>
<g id="Vector">
<use xlink:href="#path1_fill" transform="matrix(0.5321 -0.8467 0.8467 0.5321 -397.553 2453.42)" fill="#24368A"/>
</g>
<g id="Vector">
<use xlink:href="#path2_fill" transform="matrix(0.0264218 -0.9997 0.9997 0.0264218 -402.8 2367.25)" fill="#24368A"/>
</g>
<g id="Vector">
<use xlink:href="#path3_fill" transform="translate(-380.6 2315)" fill="#1B9DFF"/>
</g>
<g id="Vector">
<use xlink:href="#path4_fill" transform="translate(-474 2321)" fill="#24368A"/>
</g>
<g id="Vector">
<use xlink:href="#path5_fill" transform="translate(-436.2 2413.6)" fill="#98CDFF"/>
</g>
</g>
</g>
<defs>
<path id="path0_fill" d="M 8 3.05176e-06L 0 3.05176e-06L 0 71.7L 8 71.7L 8 3.05176e-06Z"/>
<path id="path1_fill" d="M 107 3.05176e-06L 0 3.05176e-06L 0 8L 107 8L 107 3.05176e-06Z"/>
<path id="path2_fill" d="M 8 0L 0 0L 0 65.5L 8 65.5L 8 0Z"/>
<path id="path3_fill" d="M 1.52588e-06 75L 43.3 0L 86.6 75L 1.52588e-06 75Z"/>
<path id="path4_fill" d="M 37.8 75.6C 17 75.6 0 58.6 0 37.8C 0 17 17 0 37.8 0C 58.6 0 75.6 17 75.6 37.8C 75.6 58.6 58.6 75.6 37.8 75.6ZM 37.8 8C 21.4 8 8 21.4 8 37.8C 8 54.2 21.4 67.6 37.8 67.6C 54.2 67.6 67.6 54.2 67.6 37.8C 67.6 21.4 54.2 8 37.8 8Z"/>
<path id="path5_fill" d="M 84 0L 0 0L 0 84L 84 84L 84 0Z"/>
</defs>
</svg>
