<svg width="173" height="177" viewBox="0 0 173 177" version="1.1" xmlns="http://www.w3.org/2000/svg" xmlns:xlink="http://www.w3.org/1999/xlink">
	<title>
		Group
	</title>
	<desc>
		Created using Figma
	</desc>
	<g id="Canvas" transform="translate(472 -2188)">
		<g id="Group">
			<g id="Group">
				<g id="Vector">
					<use xlink:href="#path0_fill" transform="translate(-386.2 2191)" fill="#1B9DFF" />
				</g>
				<g id="Vector">
					<use xlink:href="#path1_stroke" transform="translate(-468 2192)" fill="#24368A" />
				</g>
				<g id="Vector">
					<use xlink:href="#path2_fill" transform="translate(-434.2 2280.6)" fill="#98CDFF" />
				</g>
			</g>
		</g>
	</g>
	<defs>
		<path id="path0_fill" d="M 3.05176e-06 75L 43.3 0L 86.6 75L 3.05176e-06 75Z" />
		<path id="path1_stroke" d="M 63.6 33.8C 63.6 50.2581 50.2581 63.6 33.8 63.6L 33.8 71.6C 54.6764 71.6 71.6 54.6764 71.6 33.8L 63.6 33.8ZM 33.8 63.6C 17.3419 63.6 4 50.2581 4 33.8L -4 33.8C -4 54.6764 12.9236 71.6 33.8 71.6L 33.8 63.6ZM 4 33.8C 4 17.3419 17.3419 4 33.8 4L 33.8 -4C 12.9236 -4 -4 12.9236 -4 33.8L 4 33.8ZM 33.8 4C 50.2581 4 63.6 17.3419 63.6 33.8L 71.6 33.8C 71.6 12.9236 54.6764 -4 33.8 -4L 33.8 4Z" />
		<path id="path2_fill" d="M 84 0L 0 0L 0 84L 84 84L 84 0Z" />
	</defs>
</svg>
