<svg width="178" height="155" viewBox="0 0 178 155" version="1.1" xmlns="http://www.w3.org/2000/svg" xmlns:xlink="http://www.w3.org/1999/xlink">
<title>Group</title>
<desc>Created using Figma</desc>
<g id="Canvas" transform="translate(-127 -3690)">
<g id="Group">
<g id="Group">
<g id="Vector">
<use xlink:href="#path0_fill" transform="translate(221 3719.2)" fill="#1B9DFF"/>
</g>
<g id="Vector">
<use xlink:href="#path1_fill" transform="translate(179.4 3690)" fill="#24368A"/>
</g>
<g id="Vector">
<use xlink:href="#path2_fill" transform="translate(142.6 3751.9)" fill="#98CDFF"/>
</g>
</g>
<g id="Vector">
<use xlink:href="#path3_fill" transform="translate(127 3791)" fill="#24368A"/>
</g>
</g>
</g>
<defs>
<path id="path0_fill" d="M 0 59.2L 34.2 7.62939e-07L 68.4 59.2L 0 59.2Z"/>
<path id="path1_fill" d="M 28.1 56.2C 12.6 56.2 1.52588e-06 43.6 1.52588e-06 28.1C 1.52588e-06 12.6 12.6 0 28.1 0C 43.6 0 56.2 12.6 56.2 28.1C 56.2 43.6 43.6 56.2 28.1 56.2ZM 28.1 8C 17 8 8 17 8 28.1C 8 39.2 17 48.2 28.1 48.2C 39.2 48.2 48.2 39.2 48.2 28.1C 48.2 17 39.2 8 28.1 8Z"/>
<path id="path2_fill" d="M 64.9 0L 0 0L 0 43.1L 64.9 43.1L 64.9 0Z"/>
<path id="path3_fill" d="M 178 53.7L 0 53.7L 0 0L 178 0L 178 53.7ZM 8 45.7L 170 45.7L 170 8L 8 8L 8 45.7Z"/>
</defs>
</svg>
